SplineFontDB: 3.2
FontName: Regime-Regular
FullName: Regime Regular
FamilyName: Regular
Weight: Book
Copyright: Copyright (c) 2016 by Valerio Dell'Edera. All rights reserved.
Version: 1.000
ItalicAngle: 0
UnderlinePosition: -307.2
UnderlineWidth: 102.4
Ascent: 1638
Descent: 410
InvalidEm: 0
sfntRevision: 0x00010000
LayerCount: 2
Layer: 0 1 "Back" 1
Layer: 1 1 "Fore" 0
XUID: [1021 657 -141582489 15519928]
StyleMap: 0x0040
FSType: 0
OS2Version: 4
OS2_WeightWidthSlopeOnly: 0
OS2_UseTypoMetrics: 1
CreationTime: 1455744527
ModificationTime: 1740359153
PfmFamily: 81
TTFWeight: 400
TTFWidth: 5
LineGap: 37
VLineGap: 0
Panose: 0 0 0 0 0 0 0 0 0 0
OS2TypoAscent: 1456
OS2TypoAOffset: 0
OS2TypoDescent: 477
OS2TypoDOffset: 0
OS2TypoLinegap: 74
OS2WinAscent: 1456
OS2WinAOffset: 0
OS2WinDescent: 477
OS2WinDOffset: 0
HheadAscent: 1456
HheadAOffset: 0
HheadDescent: -477
HheadDOffset: 0
OS2SubXSize: 1434
OS2SubYSize: 1331
OS2SubXOff: 0
OS2SubYOff: 287
OS2SupXSize: 1434
OS2SupYSize: 1331
OS2SupXOff: 0
OS2SupYOff: 977
OS2StrikeYSize: 102
OS2StrikeYPos: 512
OS2CapHeight: 1456
OS2XHeight: 958
OS2Vendor: 'HL  '
OS2CodePages: 20000093.00000000
OS2UnicodeRanges: a000002f.1000006a.00000000.00000000
Lookup: 258 0 0 "'kern' Horizontal Kerning lookup 0" { "'kern' Horizontal Kerning lookup 0 subtable"  } ['kern' ('DFLT' <'dflt' > ) ]
MarkAttachClasses: 1
DEI: 91125
TtTable: prep
PUSHW_1
 10
CALL
SVTCA[x-axis]
PUSHW_3
 4
 18
 12
CALL
SVTCA[x-axis]
PUSHW_8
 20
 79
 68
 52
 38
 19
 0
 18
CALL
PUSHW_8
 21
 53
 44
 34
 25
 19
 0
 18
CALL
SVTCA[y-axis]
PUSHW_8
 17
 79
 68
 52
 38
 19
 0
 18
CALL
PUSHW_8
 18
 89
 68
 52
 38
 25
 0
 18
CALL
PUSHW_8
 19
 53
 44
 34
 25
 19
 0
 18
CALL
SVTCA[y-axis]
PUSHW_3
 22
 4
 17
CALL
PUSHW_1
 16
DUP
RCVT
RDTG
ROUND[Black]
RTG
WCVTP
PUSHW_1
 0
CALL
SVTCA[y-axis]
PUSHW_3
 1
 4
 2
CALL
SVTCA[x-axis]
PUSHW_3
 5
 3
 2
CALL
SVTCA[x-axis]
PUSHW_8
 5
 64
 54
 42
 30
 16
 0
 8
CALL
PUSHW_8
 6
 97
 79
 62
 44
 27
 0
 8
CALL
PUSHW_8
 7
 46
 38
 29
 21
 16
 0
 8
CALL

StartChar: exclam
Encoding: 33 33 4
Width: 378
GlyphClass: 2
Flags: W
LayerCount: 2
Fore
SplineSet
123 1456 m 1,0,-1
 260 1456 l 1,1,-1
 260 414 l 1,2,-1
 123 414 l 1,3,-1
 123 1456 l 1,0,-1
193 213 m 256,4,5
 238 213 238 213 268.5 182.5 c 128,-1,6
 299 152 299 152 299 106 c 256,7,8
 299 61 299 61 268.5 30.5 c 128,-1,9
 238 0 238 0 193 0 c 256,10,11
 148 0 148 0 117 30.5 c 128,-1,12
 86 61 86 61 86 106 c 256,13,14
 86 151 86 151 117 182 c 128,-1,15
 148 213 148 213 193 213 c 256,4,5
EndSplineSet
EndChar

StartChar: quotedbl
Encoding: 34 34 5
Width: 704
GlyphClass: 2
Flags: W
LayerCount: 2
Fore
SplineSet
121 1456 m 1,0,-1
 256 1456 l 1,1,-1
 256 928 l 1,2,-1
 121 928 l 1,3,-1
 121 1456 l 1,0,-1
457 1456 m 1,4,-1
 594 1456 l 1,5,-1
 594 928 l 1,6,-1
 457 928 l 1,7,-1
 457 1456 l 1,4,-1
EndSplineSet
EndChar

StartChar: numbersign
Encoding: 35 35 6
Width: 1050
GlyphClass: 2
Flags: W
LayerCount: 2
Fore
SplineSet
895 373 m 1,0,-1
 727 373 l 1,1,2
 717 287 717 287 702.5 188.5 c 128,-1,3
 688 90 688 90 676 0 c 1,4,-1
 575 0 l 1,5,-1
 629 373 l 1,6,-1
 389 373 l 1,7,8
 379 287 379 287 363.5 188.5 c 128,-1,9
 348 90 348 90 336 0 c 1,10,-1
 238 0 l 1,11,-1
 289 373 l 1,12,-1
 119 373 l 1,13,-1
 119 463 l 1,14,-1
 303 463 l 1,15,-1
 342 737 l 1,16,-1
 170 737 l 1,17,-1
 170 827 l 1,18,-1
 352 827 l 1,19,20
 362 915 362 915 375.5 1013.5 c 128,-1,21
 389 1112 389 1112 401 1200 c 1,22,-1
 506 1200 l 1,23,-1
 451 827 l 1,24,-1
 692 827 l 1,25,26
 702 915 702 915 714.5 1013.5 c 128,-1,27
 727 1112 727 1112 741 1200 c 1,28,-1
 846 1200 l 1,29,-1
 788 827 l 1,30,-1
 946 827 l 1,31,-1
 946 737 l 1,32,-1
 778 737 l 1,33,-1
 741 463 l 1,34,-1
 895 463 l 1,35,-1
 895 373 l 1,0,-1
438 737 m 1,36,-1
 401 463 l 1,37,-1
 641 463 l 1,38,-1
 680 737 l 1,39,-1
 438 737 l 1,36,-1
EndSplineSet
EndChar

StartChar: dollar
Encoding: 36 36 7
Width: 1021
GlyphClass: 2
Flags: W
LayerCount: 2
Fore
SplineSet
520 799 m 0,0,1
 602 799 602 799 675 767 c 128,-1,2
 748 735 748 735 801 682 c 128,-1,3
 854 629 854 629 886 555 c 128,-1,4
 918 481 918 481 918 399 c 0,5,6
 918 327 918 327 892 263 c 128,-1,7
 866 199 866 199 822 146.5 c 128,-1,8
 778 94 778 94 718.5 56 c 128,-1,9
 659 18 659 18 590 4 c 1,10,-1
 590 -168 l 1,11,-1
 446 -168 l 1,12,-1
 446 6 l 1,13,14
 378 20 378 20 319 55 c 128,-1,15
 260 90 260 90 217 139 c 128,-1,16
 174 188 174 188 147.5 249.5 c 128,-1,17
 121 311 121 311 119 379 c 1,18,-1
 262 379 l 1,19,20
 264 328 264 328 285.5 285 c 128,-1,21
 307 242 307 242 343 210 c 128,-1,22
 379 178 379 178 424 160.5 c 128,-1,23
 469 143 469 143 520 143 c 256,24,25
 571 143 571 143 617.5 163.5 c 128,-1,26
 664 184 664 184 698.5 220 c 128,-1,27
 733 256 733 256 753.5 302 c 128,-1,28
 774 348 774 348 774 399 c 256,29,30
 774 450 774 450 753.5 497.5 c 128,-1,31
 733 545 733 545 698.5 580.5 c 128,-1,32
 664 616 664 616 617.5 636.5 c 128,-1,33
 571 657 571 657 520 657 c 0,34,35
 436 657 436 657 363.5 689 c 128,-1,36
 291 721 291 721 236.5 774 c 128,-1,37
 182 827 182 827 150.5 900 c 128,-1,38
 119 973 119 973 119 1057 c 0,39,40
 119 1127 119 1127 143.5 1190 c 128,-1,41
 168 1253 168 1253 212 1305.5 c 128,-1,42
 256 1358 256 1358 315.5 1395 c 128,-1,43
 375 1432 375 1432 446 1450 c 1,44,-1
 446 1624 l 1,45,-1
 590 1624 l 1,46,-1
 590 1450 l 1,47,48
 658 1434 658 1434 716 1399 c 128,-1,49
 774 1364 774 1364 818 1316 c 128,-1,50
 862 1268 862 1268 887.5 1206.5 c 128,-1,51
 913 1145 913 1145 918 1077 c 1,52,-1
 774 1077 l 1,53,54
 772 1128 772 1128 750.5 1171 c 128,-1,55
 729 1214 729 1214 694 1246 c 128,-1,56
 659 1278 659 1278 614 1295.5 c 128,-1,57
 569 1313 569 1313 520 1313 c 0,58,59
 467 1313 467 1313 421 1292.5 c 128,-1,60
 375 1272 375 1272 339 1236 c 128,-1,61
 303 1200 303 1200 282.5 1154 c 128,-1,62
 262 1108 262 1108 262 1057 c 0,63,64
 262 1004 262 1004 282.5 957.5 c 128,-1,65
 303 911 303 911 339 875.5 c 128,-1,66
 375 840 375 840 421 819.5 c 128,-1,67
 467 799 467 799 520 799 c 0,0,1
EndSplineSet
EndChar

StartChar: percent
Encoding: 37 37 8
Width: 1851
GlyphClass: 2
Flags: W
LayerCount: 2
Fore
SplineSet
782 1118 m 256,0,1
 782 1048 782 1048 755.5 988 c 128,-1,2
 729 928 729 928 684 883 c 128,-1,3
 639 838 639 838 578.5 811 c 128,-1,4
 518 784 518 784 449 784 c 256,5,6
 379 784 379 784 317.5 811 c 128,-1,7
 256 838 256 838 211 883 c 128,-1,8
 166 928 166 928 139.5 988.5 c 128,-1,9
 113 1049 113 1049 113 1118 c 256,10,11
 113 1188 113 1188 138.5 1249.5 c 128,-1,12
 164 1311 164 1311 210 1357 c 128,-1,13
 256 1403 256 1403 316.5 1429.5 c 128,-1,14
 377 1456 377 1456 449 1456 c 0,15,16
 519 1456 519 1456 580 1429.5 c 128,-1,17
 641 1403 641 1403 686 1357 c 128,-1,18
 731 1311 731 1311 756.5 1249.5 c 128,-1,19
 782 1188 782 1188 782 1118 c 256,0,1
1765 336 m 256,20,21
 1765 266 1765 266 1738.5 204.5 c 128,-1,22
 1712 143 1712 143 1667 98 c 128,-1,23
 1622 53 1622 53 1560.5 26.5 c 128,-1,24
 1499 0 1499 0 1430 0 c 256,25,26
 1360 0 1360 0 1299.5 26.5 c 128,-1,27
 1239 53 1239 53 1194 98 c 128,-1,28
 1149 143 1149 143 1122.5 204.5 c 128,-1,29
 1096 266 1096 266 1096 336 c 256,30,31
 1096 406 1096 406 1121.5 466 c 128,-1,32
 1147 526 1147 526 1192 572 c 128,-1,33
 1237 618 1237 618 1298.5 645 c 128,-1,34
 1360 672 1360 672 1430 672 c 256,35,36
 1500 672 1500 672 1561 645 c 128,-1,37
 1622 618 1622 618 1668 572 c 128,-1,38
 1714 526 1714 526 1739.5 466 c 128,-1,39
 1765 406 1765 406 1765 336 c 256,20,21
1255 1456 m 1,40,-1
 1395 1456 l 1,41,42
 1297 1270 1297 1270 1201.5 1088.5 c 128,-1,43
 1106 907 1106 907 1010.5 728 c 128,-1,44
 915 549 915 549 820 367.5 c 128,-1,45
 725 186 725 186 627 0 c 1,46,-1
 483 0 l 1,47,-1
 1255 1456 l 1,40,-1
680 1118 m 256,48,49
 680 1167 680 1167 661.5 1209 c 128,-1,50
 643 1251 643 1251 612.5 1283 c 128,-1,51
 582 1315 582 1315 540 1333.5 c 128,-1,52
 498 1352 498 1352 449 1352 c 256,53,54
 400 1352 400 1352 356.5 1333.5 c 128,-1,55
 313 1315 313 1315 282.5 1283 c 128,-1,56
 252 1251 252 1251 234.5 1209 c 128,-1,57
 217 1167 217 1167 217 1118 c 256,58,59
 217 1069 217 1069 234.5 1027 c 128,-1,60
 252 985 252 985 283.5 954.5 c 128,-1,61
 315 924 315 924 357 905.5 c 128,-1,62
 399 887 399 887 449 887 c 256,63,64
 498 887 498 887 540 905.5 c 128,-1,65
 582 924 582 924 613.5 954.5 c 128,-1,66
 645 985 645 985 662.5 1027 c 128,-1,67
 680 1069 680 1069 680 1118 c 256,48,49
1661 336 m 0,68,69
 1661 383 1661 383 1642.5 425 c 128,-1,70
 1624 467 1624 467 1593.5 498.5 c 128,-1,71
 1563 530 1563 530 1521 548.5 c 128,-1,72
 1479 567 1479 567 1430 567 c 256,73,74
 1381 567 1381 567 1337.5 548.5 c 128,-1,75
 1294 530 1294 530 1263.5 498.5 c 128,-1,76
 1233 467 1233 467 1215.5 425 c 128,-1,77
 1198 383 1198 383 1198 336 c 0,78,79
 1198 287 1198 287 1215.5 244 c 128,-1,80
 1233 201 1233 201 1264.5 170 c 128,-1,81
 1296 139 1296 139 1338 120.5 c 128,-1,82
 1380 102 1380 102 1430 102 c 256,83,84
 1479 102 1479 102 1521 120.5 c 128,-1,85
 1563 139 1563 139 1594.5 170 c 128,-1,86
 1626 201 1626 201 1643.5 244 c 128,-1,87
 1661 287 1661 287 1661 336 c 0,68,69
EndSplineSet
EndChar

StartChar: ampersand
Encoding: 38 38 9
Width: 1400
GlyphClass: 2
Flags: W
LayerCount: 2
Fore
SplineSet
1085 0 m 1,0,-1
 975 141 l 1,1,2
 787 -2 787 -2 567 -2 c 0,3,4
 477 -2 477 -2 395 24.5 c 128,-1,5
 313 51 313 51 251.5 103.5 c 128,-1,6
 190 156 190 156 153.5 231.5 c 128,-1,7
 117 307 117 307 117 403 c 0,8,9
 117 544 117 544 204 657 c 128,-1,10
 291 770 291 770 428 831 c 1,11,12
 373 901 373 901 338 963.5 c 128,-1,13
 303 1026 303 1026 303 1104 c 0,14,15
 303 1176 303 1176 328.5 1239.5 c 128,-1,16
 354 1303 354 1303 399 1350 c 128,-1,17
 444 1397 444 1397 506.5 1424.5 c 128,-1,18
 569 1452 569 1452 641 1452 c 256,19,20
 713 1452 713 1452 775.5 1428.5 c 128,-1,21
 838 1405 838 1405 887 1358 c 1,22,-1
 772 1249 l 1,23,24
 745 1274 745 1274 715.5 1286 c 128,-1,25
 686 1298 686 1298 645 1298 c 0,26,27
 561 1298 561 1298 510 1243 c 128,-1,28
 459 1188 459 1188 459 1102 c 0,29,30
 459 1069 459 1069 474 1036.5 c 128,-1,31
 489 1004 489 1004 508 977 c 2,32,-1
 985 377 l 1,33,34
 1040 481 1040 481 1075 588.5 c 128,-1,35
 1110 696 1110 696 1114 803 c 1,36,-1
 1268 803 l 1,37,38
 1266 735 1266 735 1251.5 662.5 c 128,-1,39
 1237 590 1237 590 1213.5 518 c 128,-1,40
 1190 446 1190 446 1156 378.5 c 128,-1,41
 1122 311 1122 311 1079 256 c 1,42,-1
 1284 0 l 1,43,-1
 1085 0 l 1,0,-1
567 152 m 0,44,45
 649 152 649 152 727 180.5 c 128,-1,46
 805 209 805 209 877 262 c 1,47,-1
 524 709 l 1,48,49
 475 686 475 686 429 657.5 c 128,-1,50
 383 629 383 629 348 591 c 128,-1,51
 313 553 313 553 291.5 507 c 128,-1,52
 270 461 270 461 270 403 c 0,53,54
 270 337 270 337 294.5 290.5 c 128,-1,55
 319 244 319 244 361 213 c 128,-1,56
 403 182 403 182 456.5 167 c 128,-1,57
 510 152 510 152 567 152 c 0,44,45
EndSplineSet
EndChar

StartChar: quotesingle
Encoding: 39 39 10
Width: 452
GlyphClass: 2
Flags: W
LayerCount: 2
Fore
SplineSet
123 1133 m 1,0,1
 156 1143 156 1143 186.5 1168.5 c 128,-1,2
 217 1194 217 1194 227 1243 c 1,3,4
 182 1253 182 1253 152.5 1283 c 128,-1,5
 123 1313 123 1313 123 1350 c 0,6,7
 123 1393 123 1393 153.5 1424.5 c 128,-1,8
 184 1456 184 1456 229 1456 c 0,9,10
 272 1456 272 1456 304 1425.5 c 128,-1,11
 336 1395 336 1395 336 1352 c 0,12,13
 336 1307 336 1307 319.5 1264 c 128,-1,14
 303 1221 303 1221 274.5 1186 c 128,-1,15
 246 1151 246 1151 207 1128.5 c 128,-1,16
 168 1106 168 1106 123 1100 c 1,17,-1
 123 1133 l 1,0,1
EndSplineSet
EndChar

StartChar: parenleft
Encoding: 40 40 11
Width: 727
GlyphClass: 2
Flags: W
LayerCount: 2
Fore
SplineSet
514 -242 m 1,0,1
 315 -41 315 -41 218 209 c 128,-1,2
 121 459 121 459 121 725 c 0,3,4
 121 989 121 989 218 1240 c 128,-1,5
 315 1491 315 1491 514 1694 c 1,6,-1
 608 1599 l 1,7,8
 432 1417 432 1417 343 1190 c 128,-1,9
 254 963 254 963 254 725 c 256,10,11
 254 487 254 487 342 261 c 128,-1,12
 430 35 430 35 608 -147 c 1,13,-1
 514 -242 l 1,0,1
EndSplineSet
EndChar

StartChar: parenright
Encoding: 41 41 12
Width: 727
GlyphClass: 2
Flags: W
LayerCount: 2
Fore
SplineSet
129 -147 m 1,0,1
 309 35 309 35 396 261 c 128,-1,2
 483 487 483 487 483 725 c 256,3,4
 483 963 483 963 394 1190 c 128,-1,5
 305 1417 305 1417 129 1599 c 1,6,-1
 225 1694 l 1,7,8
 422 1491 422 1491 519 1240 c 128,-1,9
 616 989 616 989 616 725 c 0,10,11
 616 459 616 459 519 209 c 128,-1,12
 422 -41 422 -41 225 -242 c 1,13,-1
 129 -147 l 1,0,1
EndSplineSet
EndChar

StartChar: asterisk
Encoding: 42 42 13
Width: 753
GlyphClass: 2
Flags: W
LayerCount: 2
Fore
SplineSet
639 1233 m 1,0,-1
 436 1204 l 1,1,-1
 567 1028 l 1,2,3
 544 1016 544 1016 526 1001.5 c 128,-1,4
 508 987 508 987 492 975 c 1,5,-1
 383 1167 l 1,6,-1
 266 961 l 1,7,-1
 188 1012 l 1,8,-1
 328 1204 l 1,9,-1
 125 1233 l 1,10,11
 129 1260 129 1260 135 1278 c 128,-1,12
 141 1296 141 1296 145 1319 c 1,13,-1
 352 1257 l 1,14,15
 348 1298 348 1298 343 1352.5 c 128,-1,16
 338 1407 338 1407 334 1454 c 1,17,-1
 430 1454 l 1,18,-1
 412 1257 l 1,19,-1
 618 1319 l 1,20,-1
 639 1233 l 1,0,-1
EndSplineSet
EndChar

StartChar: plus
Encoding: 43 43 14
Width: 980
GlyphClass: 2
Flags: W
LayerCount: 2
Fore
SplineSet
567 860 m 1,0,-1
 567 553 l 1,1,-1
 877 553 l 1,2,-1
 877 412 l 1,3,-1
 567 412 l 1,4,-1
 567 102 l 1,5,-1
 428 102 l 1,6,-1
 428 412 l 1,7,-1
 119 412 l 1,8,-1
 119 553 l 1,9,-1
 428 553 l 1,10,-1
 428 860 l 1,11,-1
 567 860 l 1,0,-1
EndSplineSet
EndChar

StartChar: comma
Encoding: 44 44 15
Width: 452
GlyphClass: 2
Flags: W
LayerCount: 2
Fore
SplineSet
123 -115 m 1,0,1
 156 -105 156 -105 186.5 -78 c 128,-1,2
 217 -51 217 -51 227 -2 c 1,3,4
 182 8 182 8 152.5 38 c 128,-1,5
 123 68 123 68 123 102 c 0,6,7
 123 147 123 147 153.5 179 c 128,-1,8
 184 211 184 211 229 211 c 0,9,10
 272 211 272 211 304 180.5 c 128,-1,11
 336 150 336 150 336 104 c 256,12,13
 336 59 336 59 319.5 17 c 128,-1,14
 303 -25 303 -25 274.5 -59.5 c 128,-1,15
 246 -94 246 -94 207 -116.5 c 128,-1,16
 168 -139 168 -139 123 -145 c 1,17,-1
 123 -115 l 1,0,1
EndSplineSet
EndChar

StartChar: hyphen
Encoding: 45 45 16
Width: 796
GlyphClass: 2
Flags: W
LayerCount: 2
Fore
SplineSet
688 412 m 1,0,-1
 121 412 l 1,1,-1
 121 553 l 1,2,-1
 688 553 l 1,3,-1
 688 412 l 1,0,-1
EndSplineSet
EndChar

StartChar: period
Encoding: 46 46 17
Width: 452
GlyphClass: 2
Flags: W
LayerCount: 2
Fore
SplineSet
231 213 m 0,0,1
 274 213 274 213 305 182.5 c 128,-1,2
 336 152 336 152 336 106 c 0,3,4
 336 63 336 63 305 31.5 c 128,-1,5
 274 0 274 0 231 0 c 0,6,7
 186 0 186 0 154.5 31.5 c 128,-1,8
 123 63 123 63 123 106 c 0,9,10
 123 151 123 151 154.5 182 c 128,-1,11
 186 213 186 213 231 213 c 0,0,1
EndSplineSet
EndChar

StartChar: slash
Encoding: 47 47 18
Width: 897
GlyphClass: 2
Flags: W
LayerCount: 2
Fore
SplineSet
784 1581 m 1,0,-1
 266 -162 l 1,1,-1
 127 -125 l 1,2,-1
 645 1618 l 1,3,-1
 784 1581 l 1,0,-1
EndSplineSet
EndChar

StartChar: zero
Encoding: 48 48 19
Width: 1144
GlyphClass: 2
Flags: W
LayerCount: 2
Fore
SplineSet
119 1014 m 2,0,1
 119 1106 119 1106 152.5 1187 c 128,-1,2
 186 1268 186 1268 245.5 1328.5 c 128,-1,3
 305 1389 305 1389 386 1422.5 c 128,-1,4
 467 1456 467 1456 561 1456 c 0,5,6
 653 1456 653 1456 734 1422.5 c 128,-1,7
 815 1389 815 1389 875.5 1328.5 c 128,-1,8
 936 1268 936 1268 970 1187 c 128,-1,9
 1004 1106 1004 1106 1004 1014 c 2,10,-1
 1004 442 l 2,11,12
 1004 350 1004 350 970 269 c 128,-1,13
 936 188 936 188 875.5 128 c 128,-1,14
 815 68 815 68 734 34 c 128,-1,15
 653 0 653 0 561 0 c 0,16,17
 467 0 467 0 386 34 c 128,-1,18
 305 68 305 68 245.5 128 c 128,-1,19
 186 188 186 188 152.5 269 c 128,-1,20
 119 350 119 350 119 442 c 2,21,-1
 119 1014 l 2,0,1
864 1014 m 2,22,23
 864 1082 864 1082 841.5 1137 c 128,-1,24
 819 1192 819 1192 779 1231 c 128,-1,25
 739 1270 739 1270 684 1291.5 c 128,-1,26
 629 1313 629 1313 561 1313 c 0,27,28
 426 1313 426 1313 343 1231 c 128,-1,29
 260 1149 260 1149 260 1014 c 2,30,-1
 260 442 l 2,31,32
 260 307 260 307 343 225 c 128,-1,33
 426 143 426 143 561 143 c 0,34,35
 629 143 629 143 684 164.5 c 128,-1,36
 739 186 739 186 779 225 c 128,-1,37
 819 264 819 264 841.5 319.5 c 128,-1,38
 864 375 864 375 864 442 c 2,39,-1
 864 1014 l 2,22,23
EndSplineSet
EndChar

StartChar: one
Encoding: 49 49 20
Width: 708
GlyphClass: 2
Flags: W
LayerCount: 2
Fore
SplineSet
535 1456 m 1,0,-1
 535 0 l 1,1,-1
 391 0 l 1,2,-1
 391 1151 l 1,3,-1
 121 1151 l 1,4,-1
 121 1270 l 1,5,6
 166 1272 166 1272 214 1279 c 128,-1,7
 262 1286 262 1286 301 1306.5 c 128,-1,8
 340 1327 340 1327 365.5 1362 c 128,-1,9
 391 1397 391 1397 391 1456 c 1,10,-1
 535 1456 l 1,0,-1
EndSplineSet
EndChar

StartChar: two
Encoding: 50 50 21
Width: 1105
GlyphClass: 2
Flags: W
LayerCount: 2
Fore
SplineSet
1004 1014 m 0,0,1
 1004 932 1004 932 968 864.5 c 128,-1,2
 932 797 932 797 874.5 739.5 c 128,-1,3
 817 682 817 682 745.5 634 c 128,-1,4
 674 586 674 586 602 541 c 0,5,6
 536 500 536 500 475 458 c 128,-1,7
 414 416 414 416 365.5 369 c 128,-1,8
 317 322 317 322 287.5 266.5 c 128,-1,9
 258 211 258 211 258 143 c 1,10,-1
 1004 143 l 1,11,-1
 1004 0 l 1,12,-1
 119 0 l 1,13,-1
 119 164 l 2,14,15
 119 252 119 252 156 322.5 c 128,-1,16
 193 393 193 393 251 451.5 c 128,-1,17
 309 510 309 510 384 559 c 128,-1,18
 459 608 459 608 532 653 c 0,19,20
 598 692 598 692 657.5 732 c 128,-1,21
 717 772 717 772 763 815 c 128,-1,22
 809 858 809 858 836.5 906 c 128,-1,23
 864 954 864 954 864 1014 c 0,24,25
 864 1082 864 1082 841.5 1137 c 128,-1,26
 819 1192 819 1192 779 1231 c 128,-1,27
 739 1270 739 1270 684 1291.5 c 128,-1,28
 629 1313 629 1313 561 1313 c 0,29,30
 432 1313 432 1313 349 1238 c 128,-1,31
 266 1163 266 1163 258 1034 c 1,32,-1
 119 1034 l 1,33,34
 127 1118 127 1118 165 1195 c 128,-1,35
 203 1272 203 1272 261 1330.5 c 128,-1,36
 319 1389 319 1389 396 1422.5 c 128,-1,37
 473 1456 473 1456 561 1456 c 0,38,39
 653 1456 653 1456 734 1422.5 c 128,-1,40
 815 1389 815 1389 875.5 1328.5 c 128,-1,41
 936 1268 936 1268 970 1187 c 128,-1,42
 1004 1106 1004 1106 1004 1014 c 0,0,1
EndSplineSet
EndChar

StartChar: three
Encoding: 51 51 22
Width: 1105
GlyphClass: 2
Flags: W
LayerCount: 2
Fore
SplineSet
258 422 m 1,0,1
 262 354 262 354 288.5 303 c 128,-1,2
 315 252 315 252 356 216 c 128,-1,3
 397 180 397 180 449.5 161.5 c 128,-1,4
 502 143 502 143 561 143 c 0,5,6
 624 143 624 143 679.5 162.5 c 128,-1,7
 735 182 735 182 776 221 c 128,-1,8
 817 260 817 260 840.5 315.5 c 128,-1,9
 864 371 864 371 864 442 c 0,10,11
 864 522 864 522 846.5 569 c 128,-1,12
 829 616 829 616 796.5 639 c 128,-1,13
 764 662 764 662 719 668 c 128,-1,14
 674 674 674 674 618 674 c 1,15,-1
 618 786 l 1,16,17
 673 786 673 786 718.5 791.5 c 128,-1,18
 764 797 764 797 795.5 820.5 c 128,-1,19
 827 844 827 844 845.5 889 c 128,-1,20
 864 934 864 934 864 1014 c 0,21,22
 864 1086 864 1086 840.5 1141 c 128,-1,23
 817 1196 817 1196 776 1235 c 128,-1,24
 735 1274 735 1274 680 1293.5 c 128,-1,25
 625 1313 625 1313 561 1313 c 0,26,27
 502 1313 502 1313 448.5 1295.5 c 128,-1,28
 395 1278 395 1278 353 1242 c 128,-1,29
 311 1206 311 1206 285.5 1154 c 128,-1,30
 260 1102 260 1102 258 1034 c 1,31,-1
 119 1034 l 1,32,33
 125 1128 125 1128 162 1206 c 128,-1,34
 199 1284 199 1284 258 1339.5 c 128,-1,35
 317 1395 317 1395 395 1425.5 c 128,-1,36
 473 1456 473 1456 561 1456 c 0,37,38
 651 1456 651 1456 732 1424.5 c 128,-1,39
 813 1393 813 1393 873.5 1334.5 c 128,-1,40
 934 1276 934 1276 969 1194 c 128,-1,41
 1004 1112 1004 1112 1004 1014 c 0,42,43
 1004 928 1004 928 965 855 c 128,-1,44
 926 782 926 782 840 729 c 1,45,46
 926 676 926 676 965 602 c 128,-1,47
 1004 528 1004 528 1004 442 c 0,48,49
 1004 344 1004 344 969 262 c 128,-1,50
 934 180 934 180 873.5 121.5 c 128,-1,51
 813 63 813 63 732 31.5 c 128,-1,52
 651 0 651 0 561 0 c 0,53,54
 473 0 473 0 395 30.5 c 128,-1,55
 317 61 317 61 258 117.5 c 128,-1,56
 199 174 199 174 162 252 c 128,-1,57
 125 330 125 330 119 424 c 1,58,-1
 258 422 l 1,0,1
EndSplineSet
EndChar

StartChar: four
Encoding: 52 52 23
Width: 1200
GlyphClass: 2
Flags: W
LayerCount: 2
Fore
SplineSet
834 1456 m 1,0,-1
 834 555 l 1,1,-1
 1100 555 l 1,2,-1
 1100 414 l 1,3,-1
 834 414 l 1,4,-1
 834 0 l 1,5,-1
 692 0 l 1,6,-1
 692 414 l 1,7,-1
 117 414 l 1,8,-1
 117 569 l 1,9,10
 256 792 256 792 394 1012.5 c 128,-1,11
 532 1233 532 1233 670 1456 c 1,12,-1
 834 1456 l 1,0,-1
692 555 m 1,13,-1
 692 1235 l 1,14,-1
 258 555 l 1,15,-1
 692 555 l 1,13,-1
EndSplineSet
EndChar

StartChar: five
Encoding: 53 53 24
Width: 1081
GlyphClass: 2
Flags: W
LayerCount: 2
Fore
SplineSet
537 -2 m 0,0,1
 390 -2 390 -2 282 74 c 128,-1,2
 174 150 174 150 127 283 c 1,3,-1
 279 283 l 1,4,5
 320 205 320 205 385.5 164 c 128,-1,6
 451 123 451 123 537 123 c 0,7,8
 603 123 603 123 658 149.5 c 128,-1,9
 713 176 713 176 753 222 c 128,-1,10
 793 268 793 268 815.5 331.5 c 128,-1,11
 838 395 838 395 838 469 c 256,12,13
 838 543 838 543 815.5 607.5 c 128,-1,14
 793 672 793 672 753 719 c 128,-1,15
 713 766 713 766 657.5 792.5 c 128,-1,16
 602 819 602 819 537 819 c 0,17,18
 451 819 451 819 384 775 c 128,-1,19
 317 731 317 731 276 655 c 1,20,-1
 119 655 l 1,21,-1
 119 1456 l 1,22,-1
 918 1456 l 1,23,-1
 918 1313 l 1,24,-1
 258 1313 l 1,25,-1
 258 848 l 1,26,27
 391 944 391 944 537 944 c 0,28,29
 631 944 631 944 713 907 c 128,-1,30
 795 870 795 870 853 806.5 c 128,-1,31
 911 743 911 743 945 656 c 128,-1,32
 979 569 979 569 979 469 c 0,33,34
 979 371 979 371 945 285 c 128,-1,35
 911 199 911 199 853 135.5 c 128,-1,36
 795 72 795 72 713 35 c 128,-1,37
 631 -2 631 -2 537 -2 c 0,0,1
EndSplineSet
EndChar

StartChar: six
Encoding: 54 54 25
Width: 1126
GlyphClass: 2
Flags: W
LayerCount: 2
Fore
SplineSet
119 1014 m 2,0,1
 119 1106 119 1106 152.5 1187 c 128,-1,2
 186 1268 186 1268 245.5 1328.5 c 128,-1,3
 305 1389 305 1389 386 1422.5 c 128,-1,4
 467 1456 467 1456 561 1456 c 0,5,6
 704 1456 704 1456 811 1385.5 c 128,-1,7
 918 1315 918 1315 977 1167 c 1,8,-1
 825 1167 l 1,9,10
 784 1237 784 1237 717.5 1275 c 128,-1,11
 651 1313 651 1313 561 1313 c 0,12,13
 426 1313 426 1313 343 1231 c 128,-1,14
 260 1149 260 1149 260 1014 c 2,15,-1
 260 774 l 1,16,17
 293 827 293 827 331 861 c 128,-1,18
 369 895 369 895 410 913.5 c 128,-1,19
 451 932 451 932 495 939 c 128,-1,20
 539 946 539 946 582 946 c 0,21,22
 682 946 682 946 763 908 c 128,-1,23
 844 870 844 870 902.5 805.5 c 128,-1,24
 961 741 961 741 992.5 654 c 128,-1,25
 1024 567 1024 567 1024 471 c 0,26,27
 1024 377 1024 377 992.5 291 c 128,-1,28
 961 205 961 205 902.5 140.5 c 128,-1,29
 844 76 844 76 762 38 c 128,-1,30
 680 0 680 0 582 0 c 0,31,32
 445 0 445 0 355.5 61.5 c 128,-1,33
 266 123 266 123 214 219 c 128,-1,34
 162 315 162 315 140.5 433 c 128,-1,35
 119 551 119 551 119 666 c 2,36,-1
 119 1014 l 2,0,1
582 821 m 256,37,38
 510 821 510 821 454.5 790.5 c 128,-1,39
 399 760 399 760 360.5 711 c 128,-1,40
 322 662 322 662 301.5 599.5 c 128,-1,41
 281 537 281 537 281 471 c 256,42,43
 281 405 281 405 301.5 344 c 128,-1,44
 322 283 322 283 360.5 233.5 c 128,-1,45
 399 184 399 184 454.5 154.5 c 128,-1,46
 510 125 510 125 582 125 c 256,47,48
 654 125 654 125 710 154.5 c 128,-1,49
 766 184 766 184 804 233.5 c 128,-1,50
 842 283 842 283 862.5 344.5 c 128,-1,51
 883 406 883 406 883 471 c 256,52,53
 883 537 883 537 862.5 599.5 c 128,-1,54
 842 662 842 662 804 711 c 128,-1,55
 766 760 766 760 710 790.5 c 128,-1,56
 654 821 654 821 582 821 c 256,37,38
EndSplineSet
EndChar

StartChar: seven
Encoding: 55 55 26
Width: 1132
GlyphClass: 2
Flags: W
LayerCount: 2
Fore
SplineSet
1030 1456 m 1,0,-1
 1030 1317 l 1,1,2
 901 1182 901 1182 812 1021 c 128,-1,3
 723 860 723 860 661.5 689 c 128,-1,4
 600 518 600 518 560 342 c 128,-1,5
 520 166 520 166 489 0 c 1,6,-1
 348 0 l 1,7,8
 377 170 377 170 418 343 c 128,-1,9
 459 516 459 516 521.5 684 c 128,-1,10
 584 852 584 852 672 1011.5 c 128,-1,11
 760 1171 760 1171 883 1313 c 1,12,-1
 119 1313 l 1,13,-1
 119 1456 l 1,14,-1
 1030 1456 l 1,0,-1
EndSplineSet
EndChar

StartChar: eight
Encoding: 56 56 27
Width: 1105
GlyphClass: 2
Flags: W
LayerCount: 2
Fore
SplineSet
119 1063 m 0,0,1
 119 1153 119 1153 156 1225.5 c 128,-1,2
 193 1298 193 1298 254 1349.5 c 128,-1,3
 315 1401 315 1401 395 1428.5 c 128,-1,4
 475 1456 475 1456 561 1456 c 256,5,6
 647 1456 647 1456 727 1428.5 c 128,-1,7
 807 1401 807 1401 868.5 1349.5 c 128,-1,8
 930 1298 930 1298 967 1224.5 c 128,-1,9
 1004 1151 1004 1151 1004 1061 c 0,10,11
 1004 963 1004 963 951.5 875.5 c 128,-1,12
 899 788 899 788 807 727 c 1,13,14
 899 666 899 666 951.5 579 c 128,-1,15
 1004 492 1004 492 1004 395 c 0,16,17
 1004 305 1004 305 967 232.5 c 128,-1,18
 930 160 930 160 868.5 108.5 c 128,-1,19
 807 57 807 57 727 29.5 c 128,-1,20
 647 2 647 2 561 2 c 256,21,22
 475 2 475 2 395 29.5 c 128,-1,23
 315 57 315 57 254 108.5 c 128,-1,24
 193 160 193 160 156 232.5 c 128,-1,25
 119 305 119 305 119 395 c 0,26,27
 119 491 119 491 171 578.5 c 128,-1,28
 223 666 223 666 315 727 c 1,29,30
 223 793 223 793 171 879 c 128,-1,31
 119 965 119 965 119 1063 c 0,0,1
864 1063 m 0,32,33
 864 1126 864 1126 839.5 1176.5 c 128,-1,34
 815 1227 815 1227 773 1260.5 c 128,-1,35
 731 1294 731 1294 676 1312.5 c 128,-1,36
 621 1331 621 1331 561 1331 c 0,37,38
 500 1331 500 1331 445.5 1312.5 c 128,-1,39
 391 1294 391 1294 350 1260.5 c 128,-1,40
 309 1227 309 1227 284.5 1175.5 c 128,-1,41
 260 1124 260 1124 260 1061 c 0,42,43
 260 993 260 993 284.5 943 c 128,-1,44
 309 893 309 893 350 859 c 128,-1,45
 391 825 391 825 446.5 808 c 128,-1,46
 502 791 502 791 561 791 c 0,47,48
 622 791 622 791 676.5 809 c 128,-1,49
 731 827 731 827 773 862 c 128,-1,50
 815 897 815 897 839.5 947 c 128,-1,51
 864 997 864 997 864 1063 c 0,32,33
864 395 m 0,52,53
 864 458 864 458 839.5 509.5 c 128,-1,54
 815 561 815 561 773 595 c 128,-1,55
 731 629 731 629 676 647.5 c 128,-1,56
 621 666 621 666 561 666 c 256,57,58
 502 666 502 666 446.5 647.5 c 128,-1,59
 391 629 391 629 350 595 c 128,-1,60
 309 561 309 561 284.5 510 c 128,-1,61
 260 459 260 459 260 395 c 0,62,63
 260 329 260 329 284.5 279 c 128,-1,64
 309 229 309 229 350 195.5 c 128,-1,65
 391 162 391 162 446.5 144.5 c 128,-1,66
 502 127 502 127 561 127 c 256,67,68
 620 127 620 127 675.5 144.5 c 128,-1,69
 731 162 731 162 773 195.5 c 128,-1,70
 815 229 815 229 839.5 279 c 128,-1,71
 864 329 864 329 864 395 c 0,52,53
EndSplineSet
EndChar

StartChar: nine
Encoding: 57 57 28
Width: 1126
GlyphClass: 2
Flags: W
LayerCount: 2
Fore
SplineSet
1024 442 m 2,0,1
 1024 350 1024 350 990 269 c 128,-1,2
 956 188 956 188 897 128 c 128,-1,3
 838 68 838 68 757 34 c 128,-1,4
 676 0 676 0 582 0 c 0,5,6
 439 0 439 0 332 70.5 c 128,-1,7
 225 141 225 141 166 289 c 1,8,-1
 317 289 l 1,9,10
 358 219 358 219 425 181 c 128,-1,11
 492 143 492 143 582 143 c 0,12,13
 717 143 717 143 800 225 c 128,-1,14
 883 307 883 307 883 442 c 2,15,-1
 883 682 l 1,16,17
 850 629 850 629 812 595 c 128,-1,18
 774 561 774 561 733 542.5 c 128,-1,19
 692 524 692 524 648 517 c 128,-1,20
 604 510 604 510 561 510 c 0,21,22
 461 510 461 510 380 548 c 128,-1,23
 299 586 299 586 240.5 650.5 c 128,-1,24
 182 715 182 715 150.5 802 c 128,-1,25
 119 889 119 889 119 985 c 0,26,27
 119 1079 119 1079 150.5 1165 c 128,-1,28
 182 1251 182 1251 240.5 1315.5 c 128,-1,29
 299 1380 299 1380 381 1418 c 128,-1,30
 463 1456 463 1456 561 1456 c 0,31,32
 698 1456 698 1456 787.5 1394.5 c 128,-1,33
 877 1333 877 1333 929 1237 c 128,-1,34
 981 1141 981 1141 1002.5 1022 c 128,-1,35
 1024 903 1024 903 1024 791 c 2,36,-1
 1024 442 l 2,0,1
561 635 m 0,37,38
 631 635 631 635 687 665.5 c 128,-1,39
 743 696 743 696 782 745.5 c 128,-1,40
 821 795 821 795 841.5 857.5 c 128,-1,41
 862 920 862 920 862 985 c 0,42,43
 862 1048 862 1048 841.5 1111 c 128,-1,44
 821 1174 821 1174 782 1223 c 128,-1,45
 743 1272 743 1272 687 1301.5 c 128,-1,46
 631 1331 631 1331 561 1331 c 0,47,48
 489 1331 489 1331 433 1301.5 c 128,-1,49
 377 1272 377 1272 339 1223 c 128,-1,50
 301 1174 301 1174 280.5 1111.5 c 128,-1,51
 260 1049 260 1049 260 985 c 0,52,53
 260 919 260 919 280.5 857 c 128,-1,54
 301 795 301 795 339 745.5 c 128,-1,55
 377 696 377 696 433 665.5 c 128,-1,56
 489 635 489 635 561 635 c 0,37,38
EndSplineSet
EndChar

StartChar: colon
Encoding: 58 58 29
Width: 452
GlyphClass: 2
Flags: W
LayerCount: 2
Fore
SplineSet
231 213 m 0,0,1
 274 213 274 213 305 182.5 c 128,-1,2
 336 152 336 152 336 106 c 0,3,4
 336 63 336 63 305 31.5 c 128,-1,5
 274 0 274 0 231 0 c 0,6,7
 186 0 186 0 154.5 31.5 c 128,-1,8
 123 63 123 63 123 106 c 0,9,10
 123 151 123 151 154.5 182 c 128,-1,11
 186 213 186 213 231 213 c 0,0,1
231 944 m 0,12,13
 274 944 274 944 305 913.5 c 128,-1,14
 336 883 336 883 336 840 c 0,15,16
 336 795 336 795 305 763 c 128,-1,17
 274 731 274 731 231 731 c 0,18,19
 186 731 186 731 154.5 763 c 128,-1,20
 123 795 123 795 123 840 c 0,21,22
 123 883 123 883 154.5 913.5 c 128,-1,23
 186 944 186 944 231 944 c 0,12,13
EndSplineSet
EndChar

StartChar: semicolon
Encoding: 59 59 30
Width: 452
GlyphClass: 2
Flags: W
LayerCount: 2
Fore
SplineSet
231 944 m 0,0,1
 274 944 274 944 305 913.5 c 128,-1,2
 336 883 336 883 336 840 c 0,3,4
 336 795 336 795 305 763 c 128,-1,5
 274 731 274 731 231 731 c 0,6,7
 186 731 186 731 154.5 763 c 128,-1,8
 123 795 123 795 123 840 c 0,9,10
 123 883 123 883 154.5 913.5 c 128,-1,11
 186 944 186 944 231 944 c 0,0,1
123 -115 m 1,12,13
 156 -105 156 -105 186.5 -78 c 128,-1,14
 217 -51 217 -51 227 -2 c 1,15,16
 182 8 182 8 152.5 38 c 128,-1,17
 123 68 123 68 123 102 c 0,18,19
 123 147 123 147 153.5 179 c 128,-1,20
 184 211 184 211 229 211 c 0,21,22
 272 211 272 211 304 180.5 c 128,-1,23
 336 150 336 150 336 104 c 256,24,25
 336 59 336 59 319.5 17 c 128,-1,26
 303 -25 303 -25 274.5 -59.5 c 128,-1,27
 246 -94 246 -94 207 -116.5 c 128,-1,28
 168 -139 168 -139 123 -145 c 1,29,-1
 123 -115 l 1,12,13
EndSplineSet
EndChar

StartChar: less
Encoding: 60 60 31
Width: 980
GlyphClass: 2
Flags: W
LayerCount: 2
Fore
SplineSet
877 711 m 1,0,-1
 254 481 l 1,1,-1
 877 252 l 1,2,-1
 877 133 l 1,3,4
 680 203 680 203 497.5 270.5 c 128,-1,5
 315 338 315 338 119 410 c 1,6,-1
 119 555 l 1,7,8
 314 627 314 627 498 692.5 c 128,-1,9
 682 758 682 758 877 827 c 1,10,-1
 877 711 l 1,0,-1
EndSplineSet
EndChar

StartChar: equal
Encoding: 61 61 32
Width: 980
GlyphClass: 2
Flags: W
LayerCount: 2
Fore
SplineSet
877 342 m 1,0,-1
 877 201 l 1,1,-1
 119 201 l 1,2,-1
 119 342 l 1,3,-1
 877 342 l 1,0,-1
877 762 m 1,4,-1
 877 623 l 1,5,-1
 119 623 l 1,6,-1
 119 762 l 1,7,-1
 877 762 l 1,4,-1
EndSplineSet
EndChar

StartChar: greater
Encoding: 62 62 33
Width: 980
GlyphClass: 2
Flags: W
LayerCount: 2
Fore
SplineSet
119 827 m 1,0,-1
 877 555 l 1,1,-1
 877 410 l 1,2,-1
 119 133 l 1,3,-1
 119 252 l 1,4,-1
 741 481 l 1,5,-1
 119 711 l 1,6,-1
 119 827 l 1,0,-1
EndSplineSet
EndChar

StartChar: question
Encoding: 63 63 34
Width: 1087
GlyphClass: 2
Flags: W
LayerCount: 2
Fore
SplineSet
563 1456 m 0,0,1
 649 1456 649 1456 726 1430.5 c 128,-1,2
 803 1405 803 1405 860.5 1356 c 128,-1,3
 918 1307 918 1307 951.5 1236 c 128,-1,4
 985 1165 985 1165 985 1075 c 0,5,6
 985 1020 985 1020 970.5 976 c 128,-1,7
 956 932 956 932 931.5 896 c 128,-1,8
 907 860 907 860 875.5 828.5 c 128,-1,9
 844 797 844 797 811 766 c 0,10,11
 776 731 776 731 742.5 697.5 c 128,-1,12
 709 664 709 664 680 622 c 128,-1,13
 651 580 651 580 631.5 529.5 c 128,-1,14
 612 479 612 479 606 414 c 1,15,-1
 467 414 l 1,16,17
 471 494 471 494 491.5 553 c 128,-1,18
 512 612 512 612 542.5 658.5 c 128,-1,19
 573 705 573 705 609 740.5 c 128,-1,20
 645 776 645 776 682 809 c 0,21,22
 713 838 713 838 740.5 866.5 c 128,-1,23
 768 895 768 895 789.5 925.5 c 128,-1,24
 811 956 811 956 823.5 993 c 128,-1,25
 836 1030 836 1030 836 1077 c 0,26,27
 836 1208 836 1208 761 1273.5 c 128,-1,28
 686 1339 686 1339 557 1339 c 0,29,30
 473 1339 473 1339 417.5 1315.5 c 128,-1,31
 362 1292 362 1292 327.5 1249 c 128,-1,32
 293 1206 293 1206 276.5 1146.5 c 128,-1,33
 260 1087 260 1087 256 1016 c 1,34,-1
 119 1016 l 1,35,36
 123 1217 123 1217 238.5 1336.5 c 128,-1,37
 354 1456 354 1456 563 1456 c 0,0,1
541 213 m 256,38,39
 586 213 586 213 615.5 182.5 c 128,-1,40
 645 152 645 152 645 106 c 0,41,42
 645 63 645 63 615.5 31.5 c 128,-1,43
 586 0 586 0 541 0 c 256,44,45
 496 0 496 0 464 31.5 c 128,-1,46
 432 63 432 63 432 106 c 0,47,48
 432 151 432 151 464 182 c 128,-1,49
 496 213 496 213 541 213 c 256,38,39
EndSplineSet
EndChar

StartChar: at
Encoding: 64 64 35
Width: 1708
GlyphClass: 2
Flags: W
LayerCount: 2
Fore
SplineSet
1153 920 m 1,0,-1
 1257 920 l 1,1,-1
 1151 326 l 1,2,3
 1163 297 1163 297 1187.5 284.5 c 128,-1,4
 1212 272 1212 272 1241 272 c 0,5,6
 1307 272 1307 272 1355 315 c 128,-1,7
 1403 358 1403 358 1433.5 421.5 c 128,-1,8
 1464 485 1464 485 1479.5 554 c 128,-1,9
 1495 623 1495 623 1495 676 c 0,10,11
 1495 791 1495 791 1448 877 c 128,-1,12
 1401 963 1401 963 1324 1019 c 128,-1,13
 1247 1075 1247 1075 1149 1104 c 128,-1,14
 1051 1133 1051 1133 946 1133 c 0,15,16
 809 1133 809 1133 681 1088.5 c 128,-1,17
 553 1044 553 1044 454.5 961.5 c 128,-1,18
 356 879 356 879 297 761 c 128,-1,19
 238 643 238 643 238 498 c 0,20,21
 238 357 238 357 292 246 c 128,-1,22
 346 135 346 135 438 59.5 c 128,-1,23
 530 -16 530 -16 651 -56 c 128,-1,24
 772 -96 772 -96 905 -96 c 0,25,26
 1048 -96 1048 -96 1183.5 -49 c 128,-1,27
 1319 -2 1319 -2 1436 82 c 1,28,-1
 1493 -4 l 1,29,30
 1364 -102 1364 -102 1208.5 -156.5 c 128,-1,31
 1053 -211 1053 -211 891 -211 c 0,32,33
 731 -211 731 -211 590 -162 c 128,-1,34
 449 -113 449 -113 343.5 -20.5 c 128,-1,35
 238 72 238 72 176.5 205 c 128,-1,36
 115 338 115 338 115 506 c 0,37,38
 115 672 115 672 182.5 809 c 128,-1,39
 250 946 250 946 362.5 1042.5 c 128,-1,40
 475 1139 475 1139 622.5 1192 c 128,-1,41
 770 1245 770 1245 928 1245 c 0,42,43
 1061 1245 1061 1245 1185 1209.5 c 128,-1,44
 1309 1174 1309 1174 1405 1101 c 128,-1,45
 1501 1028 1501 1028 1559.5 919.5 c 128,-1,46
 1618 811 1618 811 1618 666 c 0,47,48
 1618 578 1618 578 1589.5 486.5 c 128,-1,49
 1561 395 1561 395 1506.5 320.5 c 128,-1,50
 1452 246 1452 246 1375 199 c 128,-1,51
 1298 152 1298 152 1200 152 c 0,52,53
 1147 152 1147 152 1104 184.5 c 128,-1,54
 1061 217 1061 217 1034 258 c 1,55,56
 979 213 979 213 910.5 182.5 c 128,-1,57
 842 152 842 152 768 152 c 0,58,59
 700 152 700 152 646 175.5 c 128,-1,60
 592 199 592 199 553 241 c 128,-1,61
 514 283 514 283 492.5 339 c 128,-1,62
 471 395 471 395 471 461 c 0,63,64
 471 549 471 549 505 631 c 128,-1,65
 539 713 539 713 597 777.5 c 128,-1,66
 655 842 655 842 735 881 c 128,-1,67
 815 920 815 920 905 920 c 0,68,69
 964 920 964 920 1019.5 895 c 128,-1,70
 1075 870 1075 870 1120 829 c 1,71,-1
 1153 920 l 1,0,-1
1075 590 m 0,72,73
 1075 680 1075 680 1028 742.5 c 128,-1,74
 981 805 981 805 885 805 c 0,75,76
 824 805 824 805 770.5 776.5 c 128,-1,77
 717 748 717 748 678 701.5 c 128,-1,78
 639 655 639 655 617.5 597 c 128,-1,79
 596 539 596 539 596 481 c 0,80,81
 596 438 596 438 610.5 399 c 128,-1,82
 625 360 625 360 650.5 330.5 c 128,-1,83
 676 301 676 301 712 283.5 c 128,-1,84
 748 266 748 266 793 266 c 0,85,86
 854 266 854 266 906 295 c 128,-1,87
 958 324 958 324 996 370 c 128,-1,88
 1034 416 1034 416 1054.5 474.5 c 128,-1,89
 1075 533 1075 533 1075 590 c 0,72,73
EndSplineSet
EndChar

StartChar: A
Encoding: 65 65 36
Width: 1241
GlyphClass: 2
Flags: W
LayerCount: 2
Fore
SplineSet
879 414 m 1,0,-1
 381 414 l 1,1,2
 352 314 352 314 321.5 207 c 128,-1,3
 291 100 291 100 260 0 c 1,4,-1
 125 0 l 1,5,-1
 545 1456 l 1,6,-1
 713 1456 l 1,7,-1
 1133 0 l 1,8,-1
 995 0 l 1,9,-1
 879 414 l 1,0,-1
629 1270 m 1,10,-1
 422 555 l 1,11,-1
 836 555 l 1,12,-1
 629 1270 l 1,10,-1
EndSplineSet
EndChar

StartChar: B
Encoding: 66 66 37
Width: 1320
GlyphClass: 2
Flags: W
LayerCount: 2
Fore
SplineSet
1223 1057 m 0,0,1
 1223 1000 1223 1000 1210.5 955.5 c 128,-1,2
 1198 911 1198 911 1176.5 873.5 c 128,-1,3
 1155 836 1155 836 1125.5 801 c 128,-1,4
 1096 766 1096 766 1059 727 c 1,5,6
 1135 653 1135 653 1179 580.5 c 128,-1,7
 1223 508 1223 508 1223 397 c 0,8,9
 1223 315 1223 315 1191 243.5 c 128,-1,10
 1159 172 1159 172 1105 117.5 c 128,-1,11
 1051 63 1051 63 979 31.5 c 128,-1,12
 907 0 907 0 825 0 c 2,13,-1
 180 0 l 1,14,-1
 180 1456 l 1,15,-1
 825 1456 l 2,16,17
 907 1456 907 1456 980 1424.5 c 128,-1,18
 1053 1393 1053 1393 1106 1338.5 c 128,-1,19
 1159 1284 1159 1284 1191 1211.5 c 128,-1,20
 1223 1139 1223 1139 1223 1057 c 0,0,1
825 143 m 2,21,22
 876 143 876 143 922.5 163.5 c 128,-1,23
 969 184 969 184 1003.5 219 c 128,-1,24
 1038 254 1038 254 1059.5 300 c 128,-1,25
 1081 346 1081 346 1081 397 c 0,26,27
 1081 446 1081 446 1064 493.5 c 128,-1,28
 1047 541 1047 541 1016 577.5 c 128,-1,29
 985 614 985 614 942 635.5 c 128,-1,30
 899 657 899 657 846 657 c 2,31,-1
 324 657 l 1,32,-1
 324 143 l 1,33,-1
 825 143 l 2,21,22
846 799 m 2,34,35
 899 799 899 799 942 820.5 c 128,-1,36
 985 842 985 842 1016 877.5 c 128,-1,37
 1047 913 1047 913 1064 960.5 c 128,-1,38
 1081 1008 1081 1008 1081 1057 c 0,39,40
 1081 1108 1081 1108 1060.5 1154 c 128,-1,41
 1040 1200 1040 1200 1004.5 1236 c 128,-1,42
 969 1272 969 1272 923 1292.5 c 128,-1,43
 877 1313 877 1313 825 1313 c 2,44,-1
 324 1313 l 1,45,-1
 324 799 l 1,46,-1
 846 799 l 2,34,35
EndSplineSet
EndChar

StartChar: C
Encoding: 67 67 38
Width: 1419
GlyphClass: 2
Flags: W
LayerCount: 2
Fore
SplineSet
1315 172 m 1,0,1
 1217 92 1217 92 1098 46 c 128,-1,2
 979 0 979 0 844 0 c 0,3,4
 692 0 692 0 560 57.5 c 128,-1,5
 428 115 428 115 329.5 213 c 128,-1,6
 231 311 231 311 174 443 c 128,-1,7
 117 575 117 575 117 727 c 0,8,9
 117 877 117 877 174 1010 c 128,-1,10
 231 1143 231 1143 329.5 1242 c 128,-1,11
 428 1341 428 1341 560 1398.5 c 128,-1,12
 692 1456 692 1456 844 1456 c 0,13,14
 979 1456 979 1456 1098 1410 c 128,-1,15
 1217 1364 1217 1364 1315 1284 c 1,16,-1
 1214 1182 l 1,17,18
 1136 1245 1136 1245 1045 1279 c 128,-1,19
 954 1313 954 1313 844 1313 c 0,20,21
 723 1313 723 1313 616.5 1267 c 128,-1,22
 510 1221 510 1221 431 1141 c 128,-1,23
 352 1061 352 1061 306 954.5 c 128,-1,24
 260 848 260 848 260 727 c 256,25,26
 260 606 260 606 306 499.5 c 128,-1,27
 352 393 352 393 431 314.5 c 128,-1,28
 510 236 510 236 616.5 189.5 c 128,-1,29
 723 143 723 143 844 143 c 0,30,31
 944 143 944 143 1043.5 182 c 128,-1,32
 1143 221 1143 221 1214 274 c 1,33,-1
 1315 172 l 1,0,1
EndSplineSet
EndChar

StartChar: D
Encoding: 68 68 39
Width: 1439
GlyphClass: 2
Flags: W
LayerCount: 2
Fore
SplineSet
616 1456 m 2,0,1
 766 1456 766 1456 899 1398.5 c 128,-1,2
 1032 1341 1032 1341 1130.5 1242 c 128,-1,3
 1229 1143 1229 1143 1286 1010 c 128,-1,4
 1343 877 1343 877 1343 727 c 0,5,6
 1343 575 1343 575 1286 443 c 128,-1,7
 1229 311 1229 311 1130.5 213 c 128,-1,8
 1032 115 1032 115 899 57.5 c 128,-1,9
 766 0 766 0 616 0 c 2,10,-1
 178 0 l 1,11,-1
 178 1456 l 1,12,-1
 616 1456 l 2,0,1
616 143 m 2,13,14
 739 143 739 143 845.5 189.5 c 128,-1,15
 952 236 952 236 1031 314.5 c 128,-1,16
 1110 393 1110 393 1156 499.5 c 128,-1,17
 1202 606 1202 606 1202 727 c 256,18,19
 1202 848 1202 848 1156 954.5 c 128,-1,20
 1110 1061 1110 1061 1031 1141 c 128,-1,21
 952 1221 952 1221 845.5 1267 c 128,-1,22
 739 1313 739 1313 616 1313 c 2,23,-1
 322 1313 l 1,24,-1
 322 143 l 1,25,-1
 616 143 l 2,13,14
EndSplineSet
EndChar

StartChar: E
Encoding: 69 69 40
Width: 1280
GlyphClass: 2
Flags: W
LayerCount: 2
Fore
SplineSet
1182 1313 m 1,0,-1
 322 1313 l 1,1,-1
 322 555 l 1,2,-1
 1182 555 l 1,3,-1
 1182 414 l 1,4,-1
 322 414 l 1,5,-1
 322 143 l 1,6,-1
 1182 143 l 1,7,-1
 1182 0 l 1,8,-1
 180 0 l 1,9,-1
 180 1456 l 1,10,-1
 1182 1456 l 1,11,-1
 1182 1313 l 1,0,-1
EndSplineSet
EndChar

StartChar: F
Encoding: 70 70 41
Width: 1280
GlyphClass: 2
Flags: W
LayerCount: 2
Fore
SplineSet
322 1313 m 1,0,-1
 322 555 l 1,1,-1
 1182 555 l 1,2,-1
 1182 414 l 1,3,-1
 322 414 l 1,4,-1
 322 0 l 1,5,-1
 180 0 l 1,6,-1
 180 1456 l 1,7,-1
 1182 1456 l 1,8,-1
 1182 1313 l 1,9,-1
 322 1313 l 1,0,-1
EndSplineSet
EndChar

StartChar: G
Encoding: 71 71 42
Width: 1443
GlyphClass: 2
Flags: W
LayerCount: 2
Fore
SplineSet
844 0 m 0,0,1
 692 0 692 0 560 57.5 c 128,-1,2
 428 115 428 115 329.5 213 c 128,-1,3
 231 311 231 311 174 443 c 128,-1,4
 117 575 117 575 117 727 c 0,5,6
 117 877 117 877 174 1010 c 128,-1,7
 231 1143 231 1143 329.5 1242 c 128,-1,8
 428 1341 428 1341 560 1398.5 c 128,-1,9
 692 1456 692 1456 844 1456 c 0,10,11
 973 1456 973 1456 1093.5 1412 c 128,-1,12
 1214 1368 1214 1368 1313 1286 c 1,13,-1
 1212 1182 l 1,14,15
 1134 1245 1134 1245 1039 1279 c 128,-1,16
 944 1313 944 1313 844 1313 c 0,17,18
 723 1313 723 1313 616.5 1267 c 128,-1,19
 510 1221 510 1221 431 1141 c 128,-1,20
 352 1061 352 1061 306 954.5 c 128,-1,21
 260 848 260 848 260 727 c 256,22,23
 260 606 260 606 306 499.5 c 128,-1,24
 352 393 352 393 431 314.5 c 128,-1,25
 510 236 510 236 616.5 189.5 c 128,-1,26
 723 143 723 143 844 143 c 0,27,28
 936 143 936 143 1030 177 c 128,-1,29
 1124 211 1124 211 1206 268 c 1,30,-1
 1206 532 l 1,31,-1
 903 532 l 1,32,-1
 903 676 l 1,33,-1
 1350 676 l 1,34,-1
 1350 203 l 1,35,36
 1246 103 1246 103 1116.5 51.5 c 128,-1,37
 987 0 987 0 844 0 c 0,0,1
EndSplineSet
EndChar

StartChar: H
Encoding: 72 72 43
Width: 1382
GlyphClass: 2
Flags: W
LayerCount: 2
Fore
SplineSet
180 1456 m 1,0,-1
 324 1456 l 1,1,-1
 324 555 l 1,2,-1
 1081 555 l 1,3,-1
 1081 1456 l 1,4,-1
 1223 1456 l 1,5,-1
 1223 0 l 1,6,-1
 1081 0 l 1,7,-1
 1081 414 l 1,8,-1
 324 414 l 1,9,-1
 324 0 l 1,10,-1
 180 0 l 1,11,-1
 180 1456 l 1,0,-1
EndSplineSet
EndChar

StartChar: I
Encoding: 73 73 44
Width: 507
GlyphClass: 2
Flags: W
LayerCount: 2
Fore
SplineSet
330 1456 m 1,0,-1
 330 0 l 1,1,-1
 186 0 l 1,2,-1
 186 1456 l 1,3,-1
 330 1456 l 1,0,-1
EndSplineSet
EndChar

StartChar: J
Encoding: 74 74 45
Width: 1320
GlyphClass: 2
Flags: W
LayerCount: 2
Fore
SplineSet
637 0 m 0,0,1
 541 0 541 0 453 38 c 128,-1,2
 365 76 365 76 295 139.5 c 128,-1,3
 225 203 225 203 179 288 c 128,-1,4
 133 373 133 373 119 469 c 1,5,-1
 262 469 l 1,6,7
 272 399 272 399 305 340 c 128,-1,8
 338 281 338 281 387 237 c 128,-1,9
 436 193 436 193 500.5 168 c 128,-1,10
 565 143 565 143 637 143 c 0,11,12
 715 143 715 143 783.5 173 c 128,-1,13
 852 203 852 203 904 255 c 128,-1,14
 956 307 956 307 987 375.5 c 128,-1,15
 1018 444 1018 444 1018 522 c 2,16,-1
 1018 1456 l 1,17,-1
 1161 1456 l 1,18,-1
 1161 522 l 2,19,20
 1161 413 1161 413 1119 319 c 128,-1,21
 1077 225 1077 225 1006.5 153.5 c 128,-1,22
 936 82 936 82 839.5 41 c 128,-1,23
 743 0 743 0 637 0 c 0,0,1
EndSplineSet
EndChar

StartChar: K
Encoding: 75 75 46
Width: 1290
GlyphClass: 2
Flags: W
LayerCount: 2
Fore
SplineSet
324 0 m 1,0,-1
 180 0 l 1,1,-1
 180 1456 l 1,2,-1
 324 1456 l 1,3,-1
 324 0 l 1,0,-1
1100 1456 m 1,4,-1
 508 821 l 1,5,6
 674 616 674 616 837.5 411.5 c 128,-1,7
 1001 207 1001 207 1167 0 c 1,8,-1
 1010 0 l 1,9,-1
 332 827 l 1,10,-1
 932 1456 l 1,11,-1
 1100 1456 l 1,4,-1
EndSplineSet
EndChar

StartChar: L
Encoding: 76 76 47
Width: 1280
GlyphClass: 2
Flags: W
LayerCount: 2
Fore
SplineSet
322 143 m 1,0,-1
 1182 143 l 1,1,-1
 1182 0 l 1,2,-1
 180 0 l 1,3,-1
 180 1456 l 1,4,-1
 322 1456 l 1,5,-1
 322 143 l 1,0,-1
EndSplineSet
EndChar

StartChar: M
Encoding: 77 77 48
Width: 1382
GlyphClass: 2
Flags: W
LayerCount: 2
Fore
SplineSet
702 184 m 1,0,-1
 1069 1456 l 1,1,-1
 1223 1456 l 1,2,-1
 1223 0 l 1,3,-1
 1081 0 l 1,4,-1
 1081 985 l 1,5,-1
 784 0 l 1,6,-1
 618 0 l 1,7,-1
 324 985 l 1,8,-1
 324 0 l 1,9,-1
 180 0 l 1,10,-1
 180 1456 l 1,11,-1
 334 1456 l 1,12,-1
 702 184 l 1,0,-1
EndSplineSet
EndChar

StartChar: N
Encoding: 78 78 49
Width: 1382
GlyphClass: 2
Flags: W
LayerCount: 2
Fore
SplineSet
1223 0 m 1,0,-1
 1059 0 l 1,1,-1
 324 1233 l 1,2,-1
 324 0 l 1,3,-1
 180 0 l 1,4,-1
 180 1456 l 1,5,-1
 344 1456 l 1,6,-1
 1081 221 l 1,7,-1
 1081 1456 l 1,8,-1
 1223 1456 l 1,9,-1
 1223 0 l 1,0,-1
EndSplineSet
EndChar

StartChar: O
Encoding: 79 79 50
Width: 1660
GlyphClass: 2
Flags: W
LayerCount: 2
Fore
SplineSet
1571 727 m 0,0,1
 1571 575 1571 575 1513.5 443 c 128,-1,2
 1456 311 1456 311 1356.5 213 c 128,-1,3
 1257 115 1257 115 1124 57.5 c 128,-1,4
 991 0 991 0 842 0 c 0,5,6
 690 0 690 0 558 57.5 c 128,-1,7
 426 115 426 115 327.5 213 c 128,-1,8
 229 311 229 311 172 443 c 128,-1,9
 115 575 115 575 115 727 c 0,10,11
 115 877 115 877 172 1010 c 128,-1,12
 229 1143 229 1143 327.5 1242 c 128,-1,13
 426 1341 426 1341 558 1398.5 c 128,-1,14
 690 1456 690 1456 842 1456 c 0,15,16
 992 1456 992 1456 1124.5 1398.5 c 128,-1,17
 1257 1341 1257 1341 1356.5 1242 c 128,-1,18
 1456 1143 1456 1143 1513.5 1010 c 128,-1,19
 1571 877 1571 877 1571 727 c 0,0,1
258 727 m 256,20,21
 258 606 258 606 304 499.5 c 128,-1,22
 350 393 350 393 429 314.5 c 128,-1,23
 508 236 508 236 614.5 189.5 c 128,-1,24
 721 143 721 143 842 143 c 256,25,26
 963 143 963 143 1069.5 189.5 c 128,-1,27
 1176 236 1176 236 1255.5 314.5 c 128,-1,28
 1335 393 1335 393 1381 499.5 c 128,-1,29
 1427 606 1427 606 1427 727 c 256,30,31
 1427 848 1427 848 1381 954.5 c 128,-1,32
 1335 1061 1335 1061 1255.5 1141 c 128,-1,33
 1176 1221 1176 1221 1069.5 1267 c 128,-1,34
 963 1313 963 1313 842 1313 c 256,35,36
 721 1313 721 1313 614.5 1267 c 128,-1,37
 508 1221 508 1221 429 1141 c 128,-1,38
 350 1061 350 1061 304 954.5 c 128,-1,39
 258 848 258 848 258 727 c 256,20,21
EndSplineSet
EndChar

StartChar: P
Encoding: 80 80 51
Width: 1320
GlyphClass: 2
Flags: W
LayerCount: 2
Fore
SplineSet
1223 934 m 0,0,1
 1223 825 1223 825 1182 731 c 128,-1,2
 1141 637 1141 637 1070 566.5 c 128,-1,3
 999 496 999 496 904 455 c 128,-1,4
 809 414 809 414 702 414 c 2,5,-1
 324 414 l 1,6,-1
 324 0 l 1,7,-1
 180 0 l 1,8,-1
 180 1456 l 1,9,-1
 702 1456 l 2,10,11
 808 1456 808 1456 903.5 1415 c 128,-1,12
 999 1374 999 1374 1070 1302.5 c 128,-1,13
 1141 1231 1141 1231 1182 1135.5 c 128,-1,14
 1223 1040 1223 1040 1223 934 c 0,0,1
702 555 m 2,15,16
 780 555 780 555 849 584.5 c 128,-1,17
 918 614 918 614 970 666.5 c 128,-1,18
 1022 719 1022 719 1051.5 787.5 c 128,-1,19
 1081 856 1081 856 1081 934 c 256,20,21
 1081 1012 1081 1012 1051.5 1080.5 c 128,-1,22
 1022 1149 1022 1149 970 1201 c 128,-1,23
 918 1253 918 1253 849 1283 c 128,-1,24
 780 1313 780 1313 702 1313 c 2,25,-1
 324 1313 l 1,26,-1
 324 555 l 1,27,-1
 702 555 l 2,15,16
EndSplineSet
EndChar

StartChar: Q
Encoding: 81 81 52
Width: 1660
GlyphClass: 2
Flags: W
LayerCount: 2
Fore
SplineSet
1571 725 m 0,0,1
 1571 608 1571 608 1535 501.5 c 128,-1,2
 1499 395 1499 395 1432 299 c 2,3,-1
 1407 264 l 1,4,-1
 1538 131 l 1,5,-1
 1438 29 l 1,6,-1
 1305 162 l 1,7,-1
 1270 137 l 2,8,9
 1176 67 1176 67 1067 32.5 c 128,-1,10
 958 -2 958 -2 842 -2 c 0,11,12
 690 -2 690 -2 558 55.5 c 128,-1,13
 426 113 426 113 327.5 211 c 128,-1,14
 229 309 229 309 172 441 c 128,-1,15
 115 573 115 573 115 725 c 0,16,17
 115 875 115 875 172 1008 c 128,-1,18
 229 1141 229 1141 327.5 1240 c 128,-1,19
 426 1339 426 1339 558 1396.5 c 128,-1,20
 690 1454 690 1454 842 1454 c 0,21,22
 992 1454 992 1454 1124.5 1396.5 c 128,-1,23
 1257 1339 1257 1339 1356.5 1240 c 128,-1,24
 1456 1141 1456 1141 1513.5 1008 c 128,-1,25
 1571 875 1571 875 1571 725 c 0,0,1
1204 262 m 1,26,-1
 377 1087 l 1,27,-1
 344 1032 l 1,28,-1
 346 1032 l 1,29,30
 258 893 258 893 258 725 c 0,31,32
 258 604 258 604 304 497.5 c 128,-1,33
 350 391 350 391 429 312 c 128,-1,34
 508 233 508 233 614.5 187 c 128,-1,35
 721 141 721 141 842 141 c 0,36,37
 1010 141 1010 141 1149 229 c 1,38,-1
 1149 227 l 1,39,-1
 1204 262 l 1,26,-1
1341 420 m 1,40,-1
 1339 420 l 1,41,42
 1427 559 1427 559 1427 725 c 0,43,44
 1427 846 1427 846 1381 952.5 c 128,-1,45
 1335 1059 1335 1059 1255.5 1139 c 128,-1,46
 1176 1219 1176 1219 1069.5 1265 c 128,-1,47
 963 1311 963 1311 842 1311 c 0,48,49
 676 1311 676 1311 535 1225 c 1,50,-1
 481 1186 l 1,51,-1
 1307 362 l 1,52,-1
 1341 420 l 1,40,-1
EndSplineSet
EndChar

StartChar: R
Encoding: 82 82 53
Width: 1320
GlyphClass: 2
Flags: W
LayerCount: 2
Fore
SplineSet
1057 0 m 1,0,1
 1032 84 1032 84 986 153.5 c 128,-1,2
 940 223 940 223 876.5 276.5 c 128,-1,3
 813 330 813 330 734 364.5 c 128,-1,4
 655 399 655 399 567 412 c 1,5,-1
 324 414 l 1,6,-1
 324 0 l 1,7,-1
 180 0 l 1,8,-1
 180 1456 l 1,9,-1
 702 1456 l 2,10,11
 808 1456 808 1456 903.5 1415 c 128,-1,12
 999 1374 999 1374 1070 1302.5 c 128,-1,13
 1141 1231 1141 1231 1182 1135.5 c 128,-1,14
 1223 1040 1223 1040 1223 934 c 0,15,16
 1223 793 1223 793 1152 673 c 128,-1,17
 1081 553 1081 553 958 481 c 1,18,-1
 961 481 l 1,19,-1
 895 444 l 1,20,-1
 952 395 l 2,21,22
 1046 319 1046 319 1110 218 c 128,-1,23
 1174 117 1174 117 1202 0 c 1,24,-1
 1057 0 l 1,0,1
324 1313 m 1,25,-1
 324 555 l 1,26,-1
 702 555 l 2,27,28
 780 555 780 555 849 584.5 c 128,-1,29
 918 614 918 614 970 666.5 c 128,-1,30
 1022 719 1022 719 1051.5 787.5 c 128,-1,31
 1081 856 1081 856 1081 934 c 256,32,33
 1081 1012 1081 1012 1051.5 1080.5 c 128,-1,34
 1022 1149 1022 1149 970 1201 c 128,-1,35
 918 1253 918 1253 849 1283 c 128,-1,36
 780 1313 780 1313 702 1313 c 2,37,-1
 324 1313 l 1,25,-1
EndSplineSet
EndChar

StartChar: S
Encoding: 83 83 54
Width: 1021
GlyphClass: 2
Flags: W
LayerCount: 2
Fore
SplineSet
520 799 m 0,0,1
 602 799 602 799 675 767 c 128,-1,2
 748 735 748 735 801 682 c 128,-1,3
 854 629 854 629 886 555 c 128,-1,4
 918 481 918 481 918 399 c 0,5,6
 918 315 918 315 886 242.5 c 128,-1,7
 854 170 854 170 801 115.5 c 128,-1,8
 748 61 748 61 675 30.5 c 128,-1,9
 602 0 602 0 520 0 c 256,10,11
 438 0 438 0 366.5 28.5 c 128,-1,12
 295 57 295 57 241.5 108.5 c 128,-1,13
 188 160 188 160 155.5 229.5 c 128,-1,14
 123 299 123 299 119 379 c 1,15,-1
 262 379 l 1,16,17
 264 328 264 328 285.5 285 c 128,-1,18
 307 242 307 242 343 210 c 128,-1,19
 379 178 379 178 424 160.5 c 128,-1,20
 469 143 469 143 520 143 c 256,21,22
 571 143 571 143 617.5 163.5 c 128,-1,23
 664 184 664 184 698.5 220 c 128,-1,24
 733 256 733 256 753.5 302 c 128,-1,25
 774 348 774 348 774 399 c 256,26,27
 774 450 774 450 753.5 497.5 c 128,-1,28
 733 545 733 545 698.5 580.5 c 128,-1,29
 664 616 664 616 617.5 636.5 c 128,-1,30
 571 657 571 657 520 657 c 0,31,32
 436 657 436 657 363.5 689 c 128,-1,33
 291 721 291 721 236.5 774 c 128,-1,34
 182 827 182 827 150.5 900 c 128,-1,35
 119 973 119 973 119 1057 c 0,36,37
 119 1139 119 1139 150.5 1211.5 c 128,-1,38
 182 1284 182 1284 236.5 1338.5 c 128,-1,39
 291 1393 291 1393 363.5 1424.5 c 128,-1,40
 436 1456 436 1456 520 1456 c 0,41,42
 600 1456 600 1456 670.5 1426.5 c 128,-1,43
 741 1397 741 1397 794.5 1345.5 c 128,-1,44
 848 1294 848 1294 880.5 1225.5 c 128,-1,45
 913 1157 913 1157 918 1077 c 1,46,-1
 774 1077 l 1,47,48
 772 1128 772 1128 750.5 1171 c 128,-1,49
 729 1214 729 1214 694 1246 c 128,-1,50
 659 1278 659 1278 614 1295.5 c 128,-1,51
 569 1313 569 1313 520 1313 c 0,52,53
 467 1313 467 1313 421 1292.5 c 128,-1,54
 375 1272 375 1272 339 1236 c 128,-1,55
 303 1200 303 1200 282.5 1154 c 128,-1,56
 262 1108 262 1108 262 1057 c 0,57,58
 262 1004 262 1004 282.5 957.5 c 128,-1,59
 303 911 303 911 339 875.5 c 128,-1,60
 375 840 375 840 421 819.5 c 128,-1,61
 467 799 467 799 520 799 c 0,0,1
EndSplineSet
EndChar

StartChar: T
Encoding: 84 84 55
Width: 1259
GlyphClass: 2
Flags: W
LayerCount: 2
Fore
SplineSet
567 0 m 1,0,-1
 567 1313 l 1,1,-1
 117 1313 l 1,2,-1
 117 1456 l 1,3,-1
 1161 1456 l 1,4,-1
 1161 1313 l 1,5,-1
 709 1313 l 1,6,-1
 709 0 l 1,7,-1
 567 0 l 1,0,-1
EndSplineSet
EndChar

StartChar: U
Encoding: 85 85 56
Width: 1259
GlyphClass: 2
Flags: W
LayerCount: 2
Fore
SplineSet
1020 1456 m 1,0,-1
 1161 1456 l 1,1,-1
 1161 522 l 2,2,3
 1161 413 1161 413 1120 319 c 128,-1,4
 1079 225 1079 225 1007.5 153.5 c 128,-1,5
 936 82 936 82 840.5 41 c 128,-1,6
 745 0 745 0 639 0 c 0,7,8
 530 0 530 0 435 41 c 128,-1,9
 340 82 340 82 269.5 153.5 c 128,-1,10
 199 225 199 225 158 319.5 c 128,-1,11
 117 414 117 414 117 522 c 2,12,-1
 117 1456 l 1,13,-1
 258 1456 l 1,14,-1
 258 522 l 2,15,16
 258 444 258 444 288.5 375.5 c 128,-1,17
 319 307 319 307 371.5 255 c 128,-1,18
 424 203 424 203 492.5 173 c 128,-1,19
 561 143 561 143 639 143 c 256,20,21
 717 143 717 143 785.5 173 c 128,-1,22
 854 203 854 203 906 255 c 128,-1,23
 958 307 958 307 989 375.5 c 128,-1,24
 1020 444 1020 444 1020 522 c 2,25,-1
 1020 1456 l 1,0,-1
EndSplineSet
EndChar

StartChar: V
Encoding: 86 86 57
Width: 1241
GlyphClass: 2
Flags: W
LayerCount: 2
Fore
SplineSet
262 1456 m 1,0,-1
 629 207 l 1,1,-1
 995 1456 l 1,2,-1
 1133 1456 l 1,3,4
 1027 1083 1027 1083 922 728 c 128,-1,5
 817 373 817 373 713 0 c 1,6,-1
 545 0 l 1,7,-1
 125 1456 l 1,8,-1
 262 1456 l 1,0,-1
EndSplineSet
EndChar

StartChar: W
Encoding: 87 87 58
Width: 1691
GlyphClass: 2
Flags: W
LayerCount: 2
Fore
SplineSet
1196 231 m 1,0,1
 1268 530 1268 530 1332.5 843.5 c 128,-1,2
 1397 1157 1397 1157 1456 1456 c 1,3,-1
 1595 1456 l 1,4,5
 1513 1083 1513 1083 1436.5 727 c 128,-1,6
 1360 371 1360 371 1278 0 c 1,7,-1
 1108 0 l 1,8,-1
 856 1225 l 1,9,-1
 608 0 l 1,10,-1
 438 0 l 1,11,-1
 121 1456 l 1,12,-1
 260 1456 l 1,13,-1
 520 211 l 1,14,-1
 778 1456 l 1,15,-1
 938 1456 l 1,16,-1
 1196 231 l 1,0,1
EndSplineSet
EndChar

StartChar: X
Encoding: 88 88 59
Width: 1218
GlyphClass: 2
Flags: W
LayerCount: 2
Fore
SplineSet
958 1456 m 1,0,-1
 1102 1456 l 1,1,-1
 688 727 l 1,2,-1
 1104 0 l 1,3,-1
 958 0 l 1,4,-1
 616 600 l 1,5,6
 538 459 538 459 447 301 c 128,-1,7
 356 143 356 143 279 0 c 1,8,-1
 135 0 l 1,9,-1
 545 727 l 1,10,11
 443 907 443 907 341.5 1091.5 c 128,-1,12
 240 1276 240 1276 135 1456 c 1,13,-1
 279 1456 l 1,14,-1
 616 856 l 1,15,-1
 958 1456 l 1,0,-1
EndSplineSet
EndChar

StartChar: Y
Encoding: 89 89 60
Width: 1218
GlyphClass: 2
Flags: W
LayerCount: 2
Fore
SplineSet
547 0 m 1,0,-1
 547 723 l 1,1,-1
 135 1456 l 1,2,-1
 279 1456 l 1,3,-1
 616 856 l 1,4,-1
 958 1456 l 1,5,-1
 1102 1456 l 1,6,-1
 688 723 l 1,7,-1
 688 0 l 1,8,-1
 547 0 l 1,0,-1
EndSplineSet
EndChar

StartChar: Z
Encoding: 90 90 61
Width: 1259
GlyphClass: 2
Flags: W
LayerCount: 2
Fore
SplineSet
117 1313 m 1,0,-1
 117 1456 l 1,1,-1
 1161 1456 l 1,2,-1
 1161 1280 l 1,3,-1
 772 799 l 1,4,-1
 1161 799 l 1,5,-1
 1161 657 l 1,6,-1
 657 657 l 1,7,-1
 242 143 l 1,8,-1
 1161 143 l 1,9,-1
 1161 0 l 1,10,-1
 117 0 l 1,11,-1
 117 174 l 1,12,-1
 508 657 l 1,13,-1
 117 657 l 1,14,-1
 117 799 l 1,15,-1
 623 799 l 1,16,-1
 1036 1313 l 1,17,-1
 117 1313 l 1,0,-1
EndSplineSet
EndChar

StartChar: bracketleft
Encoding: 91 91 62
Width: 548
GlyphClass: 2
Flags: W
LayerCount: 2
Fore
SplineSet
434 -143 m 1,0,-1
 434 -276 l 1,1,-1
 123 -276 l 1,2,-1
 123 1729 l 1,3,-1
 434 1729 l 1,4,-1
 434 1595 l 1,5,-1
 258 1595 l 1,6,-1
 258 -143 l 1,7,-1
 434 -143 l 1,0,-1
EndSplineSet
EndChar

StartChar: backslash
Encoding: 92 92 63
Width: 897
GlyphClass: 2
Flags: W
LayerCount: 2
Fore
SplineSet
266 1618 m 1,0,-1
 784 -125 l 1,1,-1
 645 -162 l 1,2,-1
 127 1581 l 1,3,-1
 266 1618 l 1,0,-1
EndSplineSet
EndChar

StartChar: bracketright
Encoding: 93 93 64
Width: 548
GlyphClass: 2
Flags: W
LayerCount: 2
Fore
SplineSet
123 -143 m 1,0,-1
 299 -143 l 1,1,-1
 299 1595 l 1,2,-1
 123 1595 l 1,3,-1
 123 1729 l 1,4,-1
 434 1729 l 1,5,-1
 434 -276 l 1,6,-1
 123 -276 l 1,7,-1
 123 -143 l 1,0,-1
EndSplineSet
EndChar

StartChar: asciicircum
Encoding: 94 94 65
Width: 731
GlyphClass: 2
Flags: W
LayerCount: 2
Fore
SplineSet
428 1456 m 1,0,1
 473 1399 473 1399 514 1343.5 c 128,-1,2
 555 1288 555 1288 598 1231 c 1,3,-1
 477 1231 l 1,4,-1
 371 1372 l 1,5,-1
 264 1231 l 1,6,-1
 141 1231 l 1,7,8
 190 1294 190 1294 228 1344.5 c 128,-1,9
 266 1395 266 1395 313 1456 c 1,10,-1
 428 1456 l 1,0,1
EndSplineSet
EndChar

StartChar: underscore
Encoding: 95 95 66
Width: 878
GlyphClass: 2
Flags: W
LayerCount: 2
Fore
SplineSet
772 0 m 1,0,-1
 121 0 l 1,1,-1
 121 141 l 1,2,-1
 772 141 l 1,3,-1
 772 0 l 1,0,-1
EndSplineSet
EndChar

StartChar: grave
Encoding: 96 96 67
Width: 518
GlyphClass: 2
Flags: W
LayerCount: 2
Fore
SplineSet
76 1397 m 1,0,1
 107 1338 107 1338 138.5 1284.5 c 128,-1,2
 170 1231 170 1231 201 1171 c 1,3,-1
 111 1171 l 1,4,5
 70 1228 70 1228 33 1284.5 c 128,-1,6
 -4 1341 -4 1341 -45 1397 c 1,7,-1
 76 1397 l 1,0,1
EndSplineSet
EndChar

StartChar: a
Encoding: 97 97 68
Width: 997
GlyphClass: 2
Flags: W
LayerCount: 2
Fore
SplineSet
524 958 m 0,0,1
 612 958 612 958 683 929.5 c 128,-1,2
 754 901 754 901 803 850 c 128,-1,3
 852 799 852 799 877.5 726 c 128,-1,4
 903 653 903 653 903 565 c 2,5,-1
 903 -2 l 1,6,-1
 778 -2 l 1,7,-1
 764 113 l 1,8,9
 690 60 690 60 612.5 29 c 128,-1,10
 535 -2 535 -2 463 -2 c 0,11,12
 400 -2 400 -2 337 16.5 c 128,-1,13
 274 35 274 35 225 70.5 c 128,-1,14
 176 106 176 106 146.5 159.5 c 128,-1,15
 117 213 117 213 117 283 c 0,16,17
 117 363 117 363 147.5 409 c 128,-1,18
 178 455 178 455 229.5 480.5 c 128,-1,19
 281 506 281 506 343.5 515 c 128,-1,20
 406 524 406 524 471 530 c 0,21,22
 551 536 551 536 628 549.5 c 128,-1,23
 705 563 705 563 766 610 c 1,24,25
 766 708 766 708 705.5 769.5 c 128,-1,26
 645 831 645 831 524 831 c 0,27,28
 493 831 493 831 457.5 823 c 128,-1,29
 422 815 422 815 391 798.5 c 128,-1,30
 360 782 360 782 336.5 756.5 c 128,-1,31
 313 731 313 731 307 696 c 1,32,-1
 166 696 l 1,33,34
 172 757 172 757 206 805.5 c 128,-1,35
 240 854 240 854 291 888 c 128,-1,36
 342 922 342 922 402.5 940 c 128,-1,37
 463 958 463 958 524 958 c 0,0,1
463 113 m 0,38,39
 516 113 516 113 566 127 c 128,-1,40
 616 141 616 141 657 169 c 128,-1,41
 698 197 698 197 727 236.5 c 128,-1,42
 756 276 756 276 766 328 c 1,43,-1
 766 508 l 1,44,45
 713 477 713 477 660.5 467 c 128,-1,46
 608 457 608 457 555 449 c 0,47,48
 504 443 504 443 450.5 433.5 c 128,-1,49
 397 424 397 424 354 407.5 c 128,-1,50
 311 391 311 391 283.5 361.5 c 128,-1,51
 256 332 256 332 256 287 c 0,52,53
 256 244 256 244 273.5 211 c 128,-1,54
 291 178 291 178 320.5 156.5 c 128,-1,55
 350 135 350 135 387 124 c 128,-1,56
 424 113 424 113 463 113 c 0,38,39
EndSplineSet
EndChar

StartChar: b
Encoding: 98 98 69
Width: 1161
GlyphClass: 2
Flags: W
LayerCount: 2
Fore
SplineSet
319 1479 m 1,0,-1
 319 838 l 1,1,2
 391 893 391 893 468 923.5 c 128,-1,3
 545 954 545 954 627 954 c 0,4,5
 721 954 721 954 803 918.5 c 128,-1,6
 885 883 885 883 944.5 818.5 c 128,-1,7
 1004 754 1004 754 1037.5 667 c 128,-1,8
 1071 580 1071 580 1071 477 c 256,9,10
 1071 375 1071 375 1037.5 288 c 128,-1,11
 1004 201 1004 201 944.5 136.5 c 128,-1,12
 885 72 885 72 803 36 c 128,-1,13
 721 0 721 0 627 0 c 0,14,15
 459 0 459 0 313 125 c 1,16,-1
 301 0 l 1,17,-1
 178 0 l 1,18,-1
 178 1479 l 1,19,-1
 319 1479 l 1,0,-1
627 829 m 0,20,21
 559 829 559 829 502.5 802.5 c 128,-1,22
 446 776 446 776 405.5 729 c 128,-1,23
 365 682 365 682 342 617.5 c 128,-1,24
 319 553 319 553 319 477 c 256,25,26
 319 401 319 401 342 336.5 c 128,-1,27
 365 272 365 272 405.5 225 c 128,-1,28
 446 178 446 178 502.5 151.5 c 128,-1,29
 559 125 559 125 627 125 c 0,30,31
 693 125 693 125 748 151.5 c 128,-1,32
 803 178 803 178 844 225 c 128,-1,33
 885 272 885 272 907.5 336.5 c 128,-1,34
 930 401 930 401 930 477 c 256,35,36
 930 553 930 553 907.5 617.5 c 128,-1,37
 885 682 885 682 844 729 c 128,-1,38
 803 776 803 776 748 802.5 c 128,-1,39
 693 829 693 829 627 829 c 0,20,21
EndSplineSet
EndChar

StartChar: c
Encoding: 99 99 70
Width: 1081
GlyphClass: 2
Flags: W
LayerCount: 2
Fore
SplineSet
565 -2 m 0,0,1
 469 -2 469 -2 386 35 c 128,-1,2
 303 72 303 72 243.5 136.5 c 128,-1,3
 184 201 184 201 150.5 288 c 128,-1,4
 117 375 117 375 117 477 c 256,5,6
 117 579 117 579 150.5 667.5 c 128,-1,7
 184 756 184 756 243.5 820.5 c 128,-1,8
 303 885 303 885 386 921.5 c 128,-1,9
 469 958 469 958 565 958 c 0,10,11
 635 958 635 958 699.5 935.5 c 128,-1,12
 764 913 764 913 817 873.5 c 128,-1,13
 870 834 870 834 912 780.5 c 128,-1,14
 954 727 954 727 981 666 c 1,15,-1
 829 666 l 1,16,17
 788 742 788 742 720.5 786.5 c 128,-1,18
 653 831 653 831 565 831 c 0,19,20
 497 831 497 831 442 803.5 c 128,-1,21
 387 776 387 776 346 729 c 128,-1,22
 305 682 305 682 282.5 617.5 c 128,-1,23
 260 553 260 553 260 477 c 256,24,25
 260 401 260 401 282.5 336.5 c 128,-1,26
 305 272 305 272 346 225 c 128,-1,27
 387 178 387 178 442.5 151.5 c 128,-1,28
 498 125 498 125 565 125 c 0,29,30
 651 125 651 125 718.5 167 c 128,-1,31
 786 209 786 209 827 287 c 1,32,-1
 979 287 l 1,33,34
 926 158 926 158 817 78 c 128,-1,35
 708 -2 708 -2 565 -2 c 0,0,1
EndSplineSet
EndChar

StartChar: d
Encoding: 100 100 71
Width: 1161
GlyphClass: 2
Flags: W
LayerCount: 2
Fore
SplineSet
1008 1479 m 1,0,-1
 1008 0 l 1,1,-1
 887 0 l 1,2,-1
 872 125 l 1,3,4
 727 0 727 0 561 0 c 0,5,6
 465 0 465 0 384 36 c 128,-1,7
 303 72 303 72 243.5 136.5 c 128,-1,8
 184 201 184 201 150.5 288 c 128,-1,9
 117 375 117 375 117 477 c 256,10,11
 117 579 117 579 150.5 666.5 c 128,-1,12
 184 754 184 754 243.5 818.5 c 128,-1,13
 303 883 303 883 384 918.5 c 128,-1,14
 465 954 465 954 561 954 c 0,15,16
 641 954 641 954 718 923.5 c 128,-1,17
 795 893 795 893 866 838 c 1,18,-1
 866 1479 l 1,19,-1
 1008 1479 l 1,0,-1
561 829 m 0,20,21
 495 829 495 829 439 802.5 c 128,-1,22
 383 776 383 776 343 729 c 128,-1,23
 303 682 303 682 280.5 617.5 c 128,-1,24
 258 553 258 553 258 477 c 256,25,26
 258 401 258 401 280.5 336.5 c 128,-1,27
 303 272 303 272 343 225 c 128,-1,28
 383 178 383 178 439.5 151.5 c 128,-1,29
 496 125 496 125 561 125 c 0,30,31
 629 125 629 125 684 151.5 c 128,-1,32
 739 178 739 178 780 225 c 128,-1,33
 821 272 821 272 843.5 336.5 c 128,-1,34
 866 401 866 401 866 477 c 256,35,36
 866 553 866 553 843.5 617.5 c 128,-1,37
 821 682 821 682 780 729 c 128,-1,38
 739 776 739 776 684 802.5 c 128,-1,39
 629 829 629 829 561 829 c 0,20,21
EndSplineSet
EndChar

StartChar: e
Encoding: 101 101 72
Width: 1105
GlyphClass: 2
Flags: W
LayerCount: 2
Fore
SplineSet
565 -2 m 0,0,1
 469 -2 469 -2 386 35 c 128,-1,2
 303 72 303 72 243.5 136.5 c 128,-1,3
 184 201 184 201 150.5 288 c 128,-1,4
 117 375 117 375 117 477 c 256,5,6
 117 579 117 579 150.5 667.5 c 128,-1,7
 184 756 184 756 243.5 820.5 c 128,-1,8
 303 885 303 885 386 921.5 c 128,-1,9
 469 958 469 958 565 958 c 0,10,11
 674 958 674 958 758 917.5 c 128,-1,12
 842 877 842 877 898 806 c 128,-1,13
 954 735 954 735 983 642 c 128,-1,14
 1012 549 1012 549 1012 446 c 1,15,-1
 258 446 l 1,16,17
 278 303 278 303 360 214 c 128,-1,18
 442 125 442 125 565 125 c 0,19,20
 651 125 651 125 717.5 167 c 128,-1,21
 784 209 784 209 825 287 c 1,22,-1
 979 287 l 1,23,24
 926 158 926 158 817 78 c 128,-1,25
 708 -2 708 -2 565 -2 c 0,0,1
565 831 m 256,26,27
 459 831 459 831 381 759.5 c 128,-1,28
 303 688 303 688 266 571 c 1,29,-1
 864 571 l 1,30,31
 827 688 827 688 749 759.5 c 128,-1,32
 671 831 671 831 565 831 c 256,26,27
EndSplineSet
EndChar

StartChar: f
Encoding: 102 102 73
Width: 866
GlyphClass: 2
Flags: W
LayerCount: 2
Fore
SplineSet
723 1298 m 1,0,1
 703 1321 703 1321 679 1329 c 128,-1,2
 655 1337 655 1337 625 1337 c 0,3,4
 588 1337 588 1337 560 1322 c 128,-1,5
 532 1307 532 1307 513 1282 c 128,-1,6
 494 1257 494 1257 483.5 1226.5 c 128,-1,7
 473 1196 473 1196 473 1163 c 2,8,-1
 473 958 l 1,9,-1
 766 958 l 1,10,-1
 766 834 l 1,11,-1
 473 834 l 1,12,-1
 473 0 l 1,13,-1
 332 0 l 1,14,-1
 332 834 l 1,15,-1
 119 834 l 1,16,-1
 119 958 l 1,17,-1
 332 958 l 1,18,-1
 332 1196 l 2,19,20
 332 1253 332 1253 356.5 1305.5 c 128,-1,21
 381 1358 381 1358 422 1396 c 128,-1,22
 463 1434 463 1434 515 1456.5 c 128,-1,23
 567 1479 567 1479 625 1479 c 0,24,25
 680 1479 680 1479 731 1457.5 c 128,-1,26
 782 1436 782 1436 821 1401 c 1,27,-1
 723 1298 l 1,0,1
EndSplineSet
EndChar

StartChar: g
Encoding: 103 103 74
Width: 1165
GlyphClass: 2
Flags: W
LayerCount: 2
Fore
SplineSet
563 0 m 0,0,1
 461 0 461 0 379 38 c 128,-1,2
 297 76 297 76 238.5 141.5 c 128,-1,3
 180 207 180 207 148.5 294 c 128,-1,4
 117 381 117 381 117 479 c 256,5,6
 117 577 117 577 148.5 664.5 c 128,-1,7
 180 752 180 752 238.5 817.5 c 128,-1,8
 297 883 297 883 379 920.5 c 128,-1,9
 461 958 461 958 563 958 c 0,10,11
 721 958 721 958 872 836 c 1,12,13
 876 859 876 859 879.5 894.5 c 128,-1,14
 883 930 883 930 887 958 c 1,15,-1
 1012 958 l 1,16,-1
 1012 -20 l 2,17,18
 1012 -118 1012 -118 980 -205.5 c 128,-1,19
 948 -293 948 -293 888.5 -357.5 c 128,-1,20
 829 -422 829 -422 746.5 -460 c 128,-1,21
 664 -498 664 -498 563 -498 c 0,22,23
 413 -498 413 -498 301.5 -417 c 128,-1,24
 190 -336 190 -336 143 -195 c 1,25,-1
 293 -195 l 1,26,27
 328 -273 328 -273 398.5 -324 c 128,-1,28
 469 -375 469 -375 563 -375 c 0,29,30
 635 -375 635 -375 692.5 -344 c 128,-1,31
 750 -313 750 -313 788.5 -264 c 128,-1,32
 827 -215 827 -215 847.5 -151.5 c 128,-1,33
 868 -88 868 -88 868 -20 c 2,34,-1
 868 119 l 1,35,36
 790 60 790 60 713.5 30 c 128,-1,37
 637 0 637 0 563 0 c 0,0,1
563 831 m 256,38,39
 491 831 491 831 434 800.5 c 128,-1,40
 377 770 377 770 338 721 c 128,-1,41
 299 672 299 672 278.5 608.5 c 128,-1,42
 258 545 258 545 258 479 c 0,43,44
 258 411 258 411 278.5 348 c 128,-1,45
 299 285 299 285 338 235.5 c 128,-1,46
 377 186 377 186 434.5 156.5 c 128,-1,47
 492 127 492 127 563 127 c 256,48,49
 635 127 635 127 692.5 156.5 c 128,-1,50
 750 186 750 186 788.5 235.5 c 128,-1,51
 827 285 827 285 847.5 348.5 c 128,-1,52
 868 412 868 412 868 479 c 0,53,54
 868 545 868 545 847.5 608.5 c 128,-1,55
 827 672 827 672 788.5 721 c 128,-1,56
 750 770 750 770 692.5 800.5 c 128,-1,57
 635 831 635 831 563 831 c 256,38,39
EndSplineSet
EndChar

StartChar: h
Encoding: 104 104 75
Width: 1126
GlyphClass: 2
Flags: W
LayerCount: 2
Fore
SplineSet
649 958 m 0,0,1
 749 958 749 958 822 920.5 c 128,-1,2
 895 883 895 883 942 816.5 c 128,-1,3
 989 750 989 750 1011.5 662.5 c 128,-1,4
 1034 575 1034 575 1034 477 c 2,5,-1
 1034 0 l 1,6,-1
 891 0 l 1,7,-1
 891 477 l 2,8,9
 891 543 891 543 881.5 606.5 c 128,-1,10
 872 670 872 670 845.5 720 c 128,-1,11
 819 770 819 770 772 800.5 c 128,-1,12
 725 831 725 831 649 831 c 0,13,14
 575 831 575 831 516 800.5 c 128,-1,15
 457 770 457 770 414 720 c 128,-1,16
 371 670 371 670 347.5 606.5 c 128,-1,17
 324 543 324 543 324 477 c 2,18,-1
 324 0 l 1,19,-1
 180 0 l 1,20,-1
 180 1479 l 1,21,-1
 319 1479 l 1,22,-1
 319 784 l 1,23,24
 387 876 387 876 478 917 c 128,-1,25
 569 958 569 958 649 958 c 0,0,1
EndSplineSet
EndChar

StartChar: i
Encoding: 105 105 76
Width: 501
GlyphClass: 2
Flags: W
LayerCount: 2
Fore
SplineSet
186 958 m 1,0,-1
 326 958 l 1,1,-1
 326 0 l 1,2,-1
 186 0 l 1,3,-1
 186 958 l 1,0,-1
258 1262 m 0,4,5
 211 1262 211 1262 179 1292.5 c 128,-1,6
 147 1323 147 1323 147 1370 c 256,7,8
 147 1417 147 1417 179 1448 c 128,-1,9
 211 1479 211 1479 258 1479 c 0,10,11
 303 1479 303 1479 334 1448 c 128,-1,12
 365 1417 365 1417 365 1370 c 256,13,14
 365 1323 365 1323 334 1292.5 c 128,-1,15
 303 1262 303 1262 258 1262 c 0,4,5
EndSplineSet
EndChar

StartChar: j
Encoding: 106 106 77
Width: 505
GlyphClass: 2
Flags: W
LayerCount: 2
Fore
SplineSet
88 -352 m 1,0,1
 133 -344 133 -344 160.5 -307 c 128,-1,2
 188 -270 188 -270 188 -217 c 2,3,-1
 188 958 l 1,4,-1
 332 958 l 1,5,-1
 332 -217 l 2,6,7
 332 -274 332 -274 314.5 -324.5 c 128,-1,8
 297 -375 297 -375 264 -413 c 128,-1,9
 231 -451 231 -451 187 -473.5 c 128,-1,10
 143 -496 143 -496 88 -498 c 1,11,-1
 88 -352 l 1,0,1
258 1262 m 0,12,13
 211 1262 211 1262 180.5 1292.5 c 128,-1,14
 150 1323 150 1323 150 1370 c 256,15,16
 150 1417 150 1417 180.5 1448 c 128,-1,17
 211 1479 211 1479 258 1479 c 0,18,19
 303 1479 303 1479 334 1448 c 128,-1,20
 365 1417 365 1417 365 1370 c 256,21,22
 365 1323 365 1323 334 1292.5 c 128,-1,23
 303 1262 303 1262 258 1262 c 0,12,13
EndSplineSet
EndChar

StartChar: k
Encoding: 107 107 78
Width: 1112
GlyphClass: 2
Flags: W
LayerCount: 2
Fore
SplineSet
322 0 m 1,0,-1
 180 0 l 1,1,-1
 180 1479 l 1,2,-1
 322 1479 l 1,3,-1
 322 563 l 1,4,-1
 485 563 l 1,5,-1
 795 958 l 1,6,-1
 958 958 l 1,7,-1
 594 487 l 1,8,-1
 997 0 l 1,9,-1
 834 0 l 1,10,-1
 475 420 l 1,11,-1
 322 420 l 1,12,-1
 322 0 l 1,0,-1
EndSplineSet
EndChar

StartChar: l
Encoding: 108 108 79
Width: 503
GlyphClass: 2
Flags: W
LayerCount: 2
Fore
SplineSet
328 0 m 1,0,-1
 186 0 l 1,1,-1
 186 1628 l 1,2,-1
 328 1628 l 1,3,-1
 328 0 l 1,0,-1
EndSplineSet
EndChar

StartChar: m
Encoding: 109 109 80
Width: 1523
GlyphClass: 2
Flags: W
LayerCount: 2
Fore
SplineSet
1114 958 m 0,0,1
 1188 958 1188 958 1249.5 930.5 c 128,-1,2
 1311 903 1311 903 1354 855 c 128,-1,3
 1397 807 1397 807 1421.5 742.5 c 128,-1,4
 1446 678 1446 678 1446 606 c 2,5,-1
 1446 0 l 1,6,-1
 1303 0 l 1,7,-1
 1303 563 l 2,8,9
 1303 608 1303 608 1295.5 655 c 128,-1,10
 1288 702 1288 702 1266.5 741 c 128,-1,11
 1245 780 1245 780 1208 805.5 c 128,-1,12
 1171 831 1171 831 1114 831 c 0,13,14
 1059 831 1059 831 1016 808.5 c 128,-1,15
 973 786 973 786 942 748.5 c 128,-1,16
 911 711 911 711 896 662.5 c 128,-1,17
 881 614 881 614 881 563 c 2,18,-1
 881 0 l 1,19,-1
 739 0 l 1,20,-1
 739 563 l 2,21,22
 739 608 739 608 732 655 c 128,-1,23
 725 702 725 702 703.5 741 c 128,-1,24
 682 780 682 780 645 805.5 c 128,-1,25
 608 831 608 831 551 831 c 0,26,27
 496 831 496 831 452 808.5 c 128,-1,28
 408 786 408 786 378 748.5 c 128,-1,29
 348 711 348 711 332.5 662.5 c 128,-1,30
 317 614 317 614 317 563 c 2,31,-1
 317 0 l 1,32,-1
 174 0 l 1,33,-1
 174 958 l 1,34,-1
 281 958 l 1,35,-1
 299 823 l 1,36,37
 418 958 418 958 551 958 c 0,38,39
 637 958 637 958 711.5 913 c 128,-1,40
 786 868 786 868 842 782 c 1,41,42
 891 868 891 868 961.5 913 c 128,-1,43
 1032 958 1032 958 1114 958 c 0,0,1
EndSplineSet
EndChar

StartChar: n
Encoding: 110 110 81
Width: 1126
GlyphClass: 2
Flags: W
LayerCount: 2
Fore
SplineSet
649 958 m 0,0,1
 749 958 749 958 822 920.5 c 128,-1,2
 895 883 895 883 942 816.5 c 128,-1,3
 989 750 989 750 1011.5 662.5 c 128,-1,4
 1034 575 1034 575 1034 477 c 2,5,-1
 1034 0 l 1,6,-1
 891 0 l 1,7,-1
 891 477 l 2,8,9
 891 543 891 543 881.5 606.5 c 128,-1,10
 872 670 872 670 845.5 720 c 128,-1,11
 819 770 819 770 772 800.5 c 128,-1,12
 725 831 725 831 649 831 c 0,13,14
 575 831 575 831 516 800.5 c 128,-1,15
 457 770 457 770 414 720 c 128,-1,16
 371 670 371 670 347.5 606.5 c 128,-1,17
 324 543 324 543 324 477 c 2,18,-1
 324 0 l 1,19,-1
 180 0 l 1,20,-1
 180 958 l 1,21,-1
 303 958 l 1,22,-1
 319 782 l 1,23,24
 385 874 385 874 475 916 c 128,-1,25
 565 958 565 958 649 958 c 0,0,1
EndSplineSet
EndChar

StartChar: o
Encoding: 111 111 82
Width: 1105
GlyphClass: 2
Flags: W
LayerCount: 2
Fore
SplineSet
565 0 m 0,0,1
 463 0 463 0 381 38 c 128,-1,2
 299 76 299 76 239.5 141.5 c 128,-1,3
 180 207 180 207 148.5 294 c 128,-1,4
 117 381 117 381 117 479 c 256,5,6
 117 577 117 577 148.5 664.5 c 128,-1,7
 180 752 180 752 239.5 818.5 c 128,-1,8
 299 885 299 885 381 923 c 128,-1,9
 463 961 463 961 565 961 c 0,10,11
 665 961 665 961 748 923 c 128,-1,12
 831 885 831 885 890.5 818.5 c 128,-1,13
 950 752 950 752 982 665 c 128,-1,14
 1014 578 1014 578 1014 479 c 256,15,16
 1014 381 1014 381 982 294 c 128,-1,17
 950 207 950 207 890.5 141.5 c 128,-1,18
 831 76 831 76 748 38 c 128,-1,19
 665 0 665 0 565 0 c 0,0,1
565 834 m 256,20,21
 493 834 493 834 436 803 c 128,-1,22
 379 772 379 772 340 722 c 128,-1,23
 301 672 301 672 280.5 608.5 c 128,-1,24
 260 545 260 545 260 479 c 0,25,26
 260 411 260 411 280.5 348 c 128,-1,27
 301 285 301 285 340 235.5 c 128,-1,28
 379 186 379 186 436.5 156.5 c 128,-1,29
 494 127 494 127 565 127 c 256,30,31
 637 127 637 127 694.5 156.5 c 128,-1,32
 752 186 752 186 790.5 235.5 c 128,-1,33
 829 285 829 285 849.5 348.5 c 128,-1,34
 870 412 870 412 870 479 c 0,35,36
 870 545 870 545 849.5 608.5 c 128,-1,37
 829 672 829 672 790.5 722 c 128,-1,38
 752 772 752 772 694.5 803 c 128,-1,39
 637 834 637 834 565 834 c 256,20,21
EndSplineSet
EndChar

StartChar: p
Encoding: 112 112 83
Width: 1161
GlyphClass: 2
Flags: W
LayerCount: 2
Fore
SplineSet
178 -498 m 1,0,-1
 178 958 l 1,1,-1
 301 958 l 1,2,-1
 313 834 l 1,3,4
 458 959 458 959 627 958 c 0,5,6
 721 958 721 958 803 922.5 c 128,-1,7
 885 887 885 887 944.5 822.5 c 128,-1,8
 1004 758 1004 758 1037.5 671 c 128,-1,9
 1071 584 1071 584 1071 481 c 256,10,11
 1071 379 1071 379 1037.5 292 c 128,-1,12
 1004 205 1004 205 944.5 140.5 c 128,-1,13
 885 76 885 76 803 40 c 128,-1,14
 721 4 721 4 627 4 c 0,15,16
 545 4 545 4 468 35 c 128,-1,17
 391 66 391 66 319 119 c 1,18,-1
 319 -498 l 1,19,-1
 178 -498 l 1,0,-1
627 129 m 0,20,21
 693 129 693 129 748 155.5 c 128,-1,22
 803 182 803 182 844 229 c 128,-1,23
 885 276 885 276 907.5 341 c 128,-1,24
 930 406 930 406 930 481 c 256,25,26
 930 557 930 557 907.5 621.5 c 128,-1,27
 885 686 885 686 844 733 c 128,-1,28
 803 780 803 780 747.5 807 c 128,-1,29
 692 834 692 834 627 834 c 0,30,31
 559 834 559 834 502.5 807 c 128,-1,32
 446 780 446 780 405.5 733 c 128,-1,33
 365 686 365 686 342 621.5 c 128,-1,34
 319 557 319 557 319 481 c 256,35,36
 319 405 319 405 342 340.5 c 128,-1,37
 365 276 365 276 405.5 229 c 128,-1,38
 446 182 446 182 502.5 155.5 c 128,-1,39
 559 129 559 129 627 129 c 0,20,21
EndSplineSet
EndChar

StartChar: q
Encoding: 113 113 84
Width: 1099
GlyphClass: 2
Flags: W
LayerCount: 2
Fore
SplineSet
866 -498 m 1,0,-1
 866 119 l 1,1,2
 794 66 794 66 717.5 35 c 128,-1,3
 641 4 641 4 561 4 c 0,4,5
 465 4 465 4 384 40 c 128,-1,6
 303 76 303 76 243.5 140.5 c 128,-1,7
 184 205 184 205 150.5 292 c 128,-1,8
 117 379 117 379 117 481 c 256,9,10
 117 583 117 583 150.5 670.5 c 128,-1,11
 184 758 184 758 243.5 822.5 c 128,-1,12
 303 887 303 887 384 922.5 c 128,-1,13
 465 958 465 958 561 958 c 0,14,15
 727 958 727 958 872 834 c 1,16,-1
 887 958 l 1,17,-1
 1008 958 l 1,18,-1
 1008 -498 l 1,19,-1
 866 -498 l 1,0,-1
561 129 m 0,20,21
 629 129 629 129 684 155.5 c 128,-1,22
 739 182 739 182 780 229 c 128,-1,23
 821 276 821 276 843.5 341 c 128,-1,24
 866 406 866 406 866 481 c 256,25,26
 866 557 866 557 843.5 621.5 c 128,-1,27
 821 686 821 686 780 733 c 128,-1,28
 739 780 739 780 684 807 c 128,-1,29
 629 834 629 834 561 834 c 0,30,31
 495 834 495 834 439 807 c 128,-1,32
 383 780 383 780 343 733 c 128,-1,33
 303 686 303 686 280.5 621.5 c 128,-1,34
 258 557 258 557 258 481 c 256,35,36
 258 405 258 405 280.5 340.5 c 128,-1,37
 303 276 303 276 343 229 c 128,-1,38
 383 182 383 182 439 155.5 c 128,-1,39
 495 129 495 129 561 129 c 0,20,21
EndSplineSet
EndChar

StartChar: r
Encoding: 114 114 85
Width: 755
GlyphClass: 2
Flags: W
LayerCount: 2
Fore
SplineSet
653 958 m 0,0,1
 667 958 667 958 681.5 957 c 128,-1,2
 696 956 696 956 711 954 c 2,3,-1
 715 954 l 1,4,-1
 715 825 l 1,5,6
 699 829 699 829 684.5 830 c 128,-1,7
 670 831 670 831 653 831 c 0,8,9
 583 831 583 831 523 801.5 c 128,-1,10
 463 772 463 772 419 721 c 128,-1,11
 375 670 375 670 350.5 599 c 128,-1,12
 326 528 326 528 326 449 c 2,13,-1
 326 -2 l 1,14,-1
 182 -2 l 1,15,-1
 182 958 l 1,16,-1
 307 958 l 1,17,-1
 324 766 l 1,18,19
 390 856 390 856 469.5 907 c 128,-1,20
 549 958 549 958 653 958 c 0,0,1
EndSplineSet
EndChar

StartChar: s
Encoding: 115 115 86
Width: 991
GlyphClass: 2
Flags: W
LayerCount: 2
Fore
SplineSet
287 713 m 0,0,1
 287 676 287 676 307.5 651.5 c 128,-1,2
 328 627 328 627 361.5 610.5 c 128,-1,3
 395 594 395 594 441 581.5 c 128,-1,4
 487 569 487 569 537 559 c 0,5,6
 596 545 596 545 660.5 527.5 c 128,-1,7
 725 510 725 510 777 480.5 c 128,-1,8
 829 451 829 451 863 404.5 c 128,-1,9
 897 358 897 358 897 287 c 0,10,11
 897 205 897 205 863 149.5 c 128,-1,12
 829 94 829 94 774 61.5 c 128,-1,13
 719 29 719 29 649.5 14.5 c 128,-1,14
 580 0 580 0 506 0 c 0,15,16
 346 0 346 0 240.5 68.5 c 128,-1,17
 135 137 135 137 119 299 c 1,18,-1
 258 299 l 1,19,20
 262 246 262 246 284.5 211 c 128,-1,21
 307 176 307 176 341 155.5 c 128,-1,22
 375 135 375 135 420 127 c 128,-1,23
 465 119 465 119 516 119 c 0,24,25
 549 119 549 119 590 124 c 128,-1,26
 631 129 631 129 664.5 144.5 c 128,-1,27
 698 160 698 160 721.5 188.5 c 128,-1,28
 745 217 745 217 745 266 c 0,29,30
 745 309 745 309 723.5 335.5 c 128,-1,31
 702 362 702 362 665.5 380.5 c 128,-1,32
 629 399 629 399 582 411.5 c 128,-1,33
 535 424 535 424 483 436 c 0,34,35
 424 448 424 448 362.5 465.5 c 128,-1,36
 301 483 301 483 252 512 c 128,-1,37
 203 541 203 541 171 587 c 128,-1,38
 139 633 139 633 139 702 c 0,39,40
 139 770 139 770 170 819 c 128,-1,41
 201 868 201 868 250 899 c 128,-1,42
 299 930 299 930 359.5 945.5 c 128,-1,43
 420 961 420 961 479 961 c 0,44,45
 557 961 557 961 622.5 948.5 c 128,-1,46
 688 936 688 936 736 904 c 128,-1,47
 784 872 784 872 814 818 c 128,-1,48
 844 764 844 764 854 682 c 1,49,-1
 715 682 l 1,50,51
 709 721 709 721 686.5 749.5 c 128,-1,52
 664 778 664 778 632 797.5 c 128,-1,53
 600 817 600 817 563 826.5 c 128,-1,54
 526 836 526 836 489 836 c 0,55,56
 460 836 460 836 425.5 831.5 c 128,-1,57
 391 827 391 827 360.5 815 c 128,-1,58
 330 803 330 803 308.5 778.5 c 128,-1,59
 287 754 287 754 287 713 c 0,0,1
EndSplineSet
EndChar

StartChar: t
Encoding: 116 116 87
Width: 925
GlyphClass: 2
Flags: W
LayerCount: 2
Fore
SplineSet
819 76 m 1,0,1
 737 0 737 0 625 0 c 0,2,3
 568 0 568 0 515.5 22.5 c 128,-1,4
 463 45 463 45 422 83 c 128,-1,5
 381 121 381 121 356.5 172 c 128,-1,6
 332 223 332 223 332 283 c 2,7,-1
 332 834 l 1,8,-1
 119 834 l 1,9,-1
 119 958 l 1,10,-1
 332 958 l 1,11,-1
 332 1202 l 1,12,-1
 473 1202 l 1,13,-1
 473 958 l 1,14,-1
 766 958 l 1,15,-1
 766 834 l 1,16,-1
 473 834 l 1,17,-1
 473 315 l 2,18,19
 473 282 473 282 483.5 251.5 c 128,-1,20
 494 221 494 221 513 196.5 c 128,-1,21
 532 172 532 172 560 156.5 c 128,-1,22
 588 141 588 141 625 141 c 0,23,24
 684 141 684 141 723 180 c 1,25,-1
 819 76 l 1,0,1
EndSplineSet
EndChar

StartChar: u
Encoding: 117 117 88
Width: 1126
GlyphClass: 2
Flags: W
LayerCount: 2
Fore
SplineSet
502 0 m 0,0,1
 402 0 402 0 329 38 c 128,-1,2
 256 76 256 76 209 142.5 c 128,-1,3
 162 209 162 209 139.5 296 c 128,-1,4
 117 383 117 383 117 481 c 2,5,-1
 117 958 l 1,6,-1
 260 958 l 1,7,-1
 260 481 l 2,8,9
 260 415 260 415 270.5 352 c 128,-1,10
 281 289 281 289 307.5 238.5 c 128,-1,11
 334 188 334 188 381 157.5 c 128,-1,12
 428 127 428 127 502 127 c 256,13,14
 576 127 576 127 636 157.5 c 128,-1,15
 696 188 696 188 739 238.5 c 128,-1,16
 782 289 782 289 805.5 352.5 c 128,-1,17
 829 416 829 416 829 481 c 2,18,-1
 829 958 l 1,19,-1
 973 958 l 1,20,-1
 973 0 l 1,21,-1
 848 0 l 1,22,-1
 831 176 l 1,23,24
 765 84 765 84 675.5 42 c 128,-1,25
 586 0 586 0 502 0 c 0,0,1
EndSplineSet
EndChar

StartChar: v
Encoding: 118 118 89
Width: 1087
GlyphClass: 2
Flags: W
LayerCount: 2
Fore
SplineSet
989 958 m 1,0,1
 948 833 948 833 907 714.5 c 128,-1,2
 866 596 866 596 826 479 c 128,-1,3
 786 362 786 362 746.5 243.5 c 128,-1,4
 707 125 707 125 664 0 c 1,5,-1
 446 0 l 1,6,-1
 123 958 l 1,7,-1
 279 958 l 1,8,-1
 555 76 l 1,9,10
 586 176 586 176 621.5 288.5 c 128,-1,11
 657 401 657 401 693 516 c 128,-1,12
 729 631 729 631 765 743.5 c 128,-1,13
 801 856 801 856 834 958 c 1,14,-1
 989 958 l 1,0,1
EndSplineSet
EndChar

StartChar: w
Encoding: 119 119 90
Width: 1466
GlyphClass: 2
Flags: W
LayerCount: 2
Fore
SplineSet
1038 158 m 1,0,-1
 1249 958 l 1,1,-1
 1380 958 l 1,2,3
 1314 710 1314 710 1253 479 c 128,-1,4
 1192 248 1192 248 1126 0 c 1,5,-1
 944 0 l 1,6,-1
 752 721 l 1,7,-1
 555 0 l 1,8,-1
 373 0 l 1,9,10
 312 236 312 236 246 480.5 c 128,-1,11
 180 725 180 725 119 958 c 1,12,-1
 250 958 l 1,13,-1
 465 158 l 1,14,15
 528 351 528 351 578.5 557.5 c 128,-1,16
 629 764 629 764 680 958 c 1,17,-1
 819 958 l 1,18,-1
 1038 158 l 1,0,-1
EndSplineSet
EndChar

StartChar: x
Encoding: 120 120 91
Width: 993
GlyphClass: 2
Flags: W
LayerCount: 2
Fore
SplineSet
780 958 m 1,0,-1
 940 958 l 1,1,-1
 598 477 l 1,2,3
 686 358 686 358 770 239.5 c 128,-1,4
 854 121 854 121 940 0 c 1,5,-1
 782 0 l 1,6,-1
 504 403 l 1,7,8
 441 309 441 309 368 203.5 c 128,-1,9
 295 98 295 98 231 0 c 1,10,-1
 72 0 l 1,11,-1
 414 477 l 1,12,13
 332 594 332 594 245 718 c 128,-1,14
 158 842 158 842 72 958 c 1,15,-1
 231 958 l 1,16,-1
 510 553 l 1,17,-1
 780 958 l 1,0,-1
EndSplineSet
EndChar

StartChar: y
Encoding: 121 121 92
Width: 1087
GlyphClass: 2
Flags: W
LayerCount: 2
Fore
SplineSet
821 958 m 1,0,-1
 987 958 l 1,1,2
 932 804 932 804 883 652 c 128,-1,3
 834 500 834 500 787.5 348.5 c 128,-1,4
 741 197 741 197 694 47.5 c 128,-1,5
 647 -102 647 -102 592 -250 c 0,6,7
 557 -334 557 -334 491.5 -384 c 128,-1,8
 426 -434 426 -434 334 -434 c 0,9,10
 311 -434 311 -434 283.5 -429 c 128,-1,11
 256 -424 256 -424 233 -418 c 1,12,-1
 233 -291 l 1,13,14
 266 -297 266 -297 301 -297 c 0,15,16
 346 -297 346 -297 376 -284.5 c 128,-1,17
 406 -272 406 -272 424 -250.5 c 128,-1,18
 442 -229 442 -229 453.5 -199.5 c 128,-1,19
 465 -170 465 -170 475 -137 c 2,20,-1
 489 -90 l 1,21,-1
 125 958 l 1,22,-1
 291 958 l 1,23,-1
 578 94 l 1,24,-1
 821 958 l 1,0,-1
EndSplineSet
EndChar

StartChar: z
Encoding: 122 122 93
Width: 950
GlyphClass: 2
Flags: W
LayerCount: 2
Fore
SplineSet
854 958 m 1,0,-1
 854 823 l 1,1,-1
 264 127 l 1,2,-1
 854 127 l 1,3,-1
 854 0 l 1,4,-1
 117 0 l 1,5,-1
 117 135 l 1,6,-1
 709 831 l 1,7,-1
 117 831 l 1,8,-1
 117 958 l 1,9,-1
 854 958 l 1,0,-1
EndSplineSet
EndChar

StartChar: braceleft
Encoding: 123 123 94
Width: 700
GlyphClass: 2
Flags: W
LayerCount: 2
Fore
SplineSet
121 793 m 1,0,1
 168 799 168 799 197.5 834.5 c 128,-1,2
 227 870 227 870 227 920 c 2,3,-1
 227 1343 l 2,4,5
 227 1421 227 1421 255 1490 c 128,-1,6
 283 1559 283 1559 332 1610 c 128,-1,7
 381 1661 381 1661 446.5 1692.5 c 128,-1,8
 512 1724 512 1724 590 1729 c 1,9,-1
 590 1595 l 1,10,11
 539 1593 539 1593 497 1572.5 c 128,-1,12
 455 1552 455 1552 425 1518.5 c 128,-1,13
 395 1485 395 1485 378.5 1440 c 128,-1,14
 362 1395 362 1395 362 1343 c 2,15,-1
 362 920 l 2,16,17
 362 869 362 869 338.5 818.5 c 128,-1,18
 315 768 315 768 274 725 c 1,19,20
 315 682 315 682 338.5 633 c 128,-1,21
 362 584 362 584 362 530 c 2,22,-1
 362 104 l 2,23,24
 362 59 362 59 380.5 17 c 128,-1,25
 399 -25 399 -25 430 -58.5 c 128,-1,26
 461 -92 461 -92 502 -114.5 c 128,-1,27
 543 -137 543 -137 590 -143 c 1,28,-1
 590 -276 l 1,29,30
 512 -272 512 -272 446.5 -240.5 c 128,-1,31
 381 -209 381 -209 332 -157.5 c 128,-1,32
 283 -106 283 -106 255 -38.5 c 128,-1,33
 227 29 227 29 227 104 c 2,34,-1
 227 530 l 2,35,36
 227 577 227 577 196.5 613 c 128,-1,37
 166 649 166 649 121 657 c 1,38,-1
 121 793 l 1,0,1
EndSplineSet
EndChar

StartChar: bar
Encoding: 124 124 95
Width: 385
GlyphClass: 2
Flags: W
LayerCount: 2
Fore
SplineSet
266 1624 m 1,0,-1
 266 -168 l 1,1,-1
 123 -168 l 1,2,-1
 123 1624 l 1,3,-1
 266 1624 l 1,0,-1
EndSplineSet
EndChar

StartChar: braceright
Encoding: 125 125 96
Width: 700
GlyphClass: 2
Flags: W
LayerCount: 2
Fore
SplineSet
590 657 m 1,0,1
 545 649 545 649 514 613.5 c 128,-1,2
 483 578 483 578 483 530 c 2,3,-1
 483 104 l 2,4,5
 483 28 483 28 455.5 -39 c 128,-1,6
 428 -106 428 -106 379 -157.5 c 128,-1,7
 330 -209 330 -209 263.5 -240.5 c 128,-1,8
 197 -272 197 -272 121 -276 c 1,9,-1
 121 -143 l 1,10,11
 172 -141 172 -141 214 -120.5 c 128,-1,12
 256 -100 256 -100 285.5 -66.5 c 128,-1,13
 315 -33 315 -33 331.5 11 c 128,-1,14
 348 55 348 55 348 104 c 2,15,-1
 348 530 l 2,16,17
 348 583 348 583 371.5 632.5 c 128,-1,18
 395 682 395 682 436 725 c 1,19,20
 395 768 395 768 371.5 818 c 128,-1,21
 348 868 348 868 348 920 c 2,22,-1
 348 1343 l 2,23,24
 348 1390 348 1390 329.5 1433.5 c 128,-1,25
 311 1477 311 1477 280.5 1510.5 c 128,-1,26
 250 1544 250 1544 208 1566.5 c 128,-1,27
 166 1589 166 1589 121 1595 c 1,28,-1
 121 1729 l 1,29,30
 197 1725 197 1725 263.5 1693 c 128,-1,31
 330 1661 330 1661 379 1610 c 128,-1,32
 428 1559 428 1559 455.5 1490 c 128,-1,33
 483 1421 483 1421 483 1343 c 2,34,-1
 483 920 l 2,35,36
 483 871 483 871 513 835 c 128,-1,37
 543 799 543 799 590 793 c 1,38,-1
 590 657 l 1,0,1
EndSplineSet
EndChar

StartChar: asciitilde
Encoding: 126 126 97
Width: 929
GlyphClass: 2
Flags: W
LayerCount: 2
Fore
SplineSet
608 721 m 0,0,1
 663 721 663 721 687 754.5 c 128,-1,2
 711 788 711 788 715 840 c 1,3,-1
 821 840 l 1,4,5
 819 797 819 797 806 757 c 128,-1,6
 793 717 793 717 768 685 c 128,-1,7
 743 653 743 653 706.5 632.5 c 128,-1,8
 670 612 670 612 625 610 c 0,9,10
 580 610 580 610 540 628.5 c 128,-1,11
 500 647 500 647 463 669.5 c 128,-1,12
 426 692 426 692 394 710.5 c 128,-1,13
 362 729 362 729 334 729 c 0,14,15
 279 729 279 729 256 694 c 128,-1,16
 233 659 233 659 229 610 c 1,17,-1
 121 610 l 1,18,19
 123 649 123 649 137.5 690 c 128,-1,20
 152 731 152 731 177.5 765 c 128,-1,21
 203 799 203 799 238.5 819.5 c 128,-1,22
 274 840 274 840 317 840 c 0,23,24
 358 840 358 840 398 821.5 c 128,-1,25
 438 803 438 803 475 780.5 c 128,-1,26
 512 758 512 758 544.5 739.5 c 128,-1,27
 577 721 577 721 608 721 c 0,0,1
EndSplineSet
EndChar

StartChar: exclamdown
Encoding: 161 161 98
Width: 378
GlyphClass: 2
Flags: W
LayerCount: 2
Fore
SplineSet
260 0 m 1,0,-1
 123 0 l 1,1,-1
 123 1042 l 1,2,-1
 260 1042 l 1,3,-1
 260 0 l 1,0,-1
190 1243 m 0,4,5
 147 1243 147 1243 116.5 1274 c 128,-1,6
 86 1305 86 1305 86 1350 c 256,7,8
 86 1395 86 1395 116.5 1425.5 c 128,-1,9
 147 1456 147 1456 190 1456 c 0,10,11
 237 1456 237 1456 268 1425.5 c 128,-1,12
 299 1395 299 1395 299 1350 c 256,13,14
 299 1305 299 1305 268 1274 c 128,-1,15
 237 1243 237 1243 190 1243 c 0,4,5
EndSplineSet
EndChar

StartChar: cent
Encoding: 162 162 99
Width: 1081
GlyphClass: 2
Flags: W
LayerCount: 2
Fore
SplineSet
119 469 m 0,0,1
 119 557 119 557 145.5 634 c 128,-1,2
 172 711 172 711 219 771 c 128,-1,3
 266 831 266 831 331.5 874.5 c 128,-1,4
 397 918 397 918 477 936 c 1,5,-1
 477 1092 l 1,6,-1
 621 1092 l 1,7,-1
 621 940 l 1,8,9
 746 917 746 917 836 841.5 c 128,-1,10
 926 766 926 766 969 655 c 1,11,-1
 821 655 l 1,12,13
 780 729 780 729 713.5 774 c 128,-1,14
 647 819 647 819 561 819 c 0,15,16
 495 819 495 819 440 792.5 c 128,-1,17
 385 766 385 766 345 719 c 128,-1,18
 305 672 305 672 282.5 607.5 c 128,-1,19
 260 543 260 543 260 469 c 256,20,21
 260 395 260 395 282.5 331.5 c 128,-1,22
 305 268 305 268 345 222 c 128,-1,23
 385 176 385 176 440.5 149.5 c 128,-1,24
 496 123 496 123 561 123 c 0,25,26
 647 123 647 123 712.5 164 c 128,-1,27
 778 205 778 205 819 283 c 1,28,-1
 969 283 l 1,29,30
 928 172 928 172 838 98.5 c 128,-1,31
 748 25 748 25 621 2 c 1,32,-1
 621 -147 l 1,33,-1
 477 -147 l 1,34,-1
 477 4 l 1,35,36
 397 22 397 22 331.5 65.5 c 128,-1,37
 266 109 266 109 219 169 c 128,-1,38
 172 229 172 229 145.5 306 c 128,-1,39
 119 383 119 383 119 469 c 0,0,1
EndSplineSet
EndChar

StartChar: sterling
Encoding: 163 163 100
Width: 1396
GlyphClass: 2
Flags: W
LayerCount: 2
Fore
SplineSet
795 616 m 1,0,-1
 506 567 l 1,1,2
 516 522 516 522 523 487.5 c 128,-1,3
 530 453 530 453 530 430 c 0,4,5
 530 326 530 326 453 211 c 1,6,7
 514 203 514 203 556 193.5 c 128,-1,8
 598 184 598 184 639 174 c 0,9,10
 696 160 696 160 753.5 149.5 c 128,-1,11
 811 139 811 139 874 139 c 0,12,13
 993 139 993 139 1067 192.5 c 128,-1,14
 1141 246 1141 246 1147 365 c 1,15,-1
 1300 365 l 1,16,17
 1294 277 1294 277 1260.5 206 c 128,-1,18
 1227 135 1227 135 1171.5 86 c 128,-1,19
 1116 37 1116 37 1040.5 10.5 c 128,-1,20
 965 -16 965 -16 874 -16 c 0,21,22
 815 -16 815 -16 758.5 -5 c 128,-1,23
 702 6 702 6 645 20 c 0,24,25
 588 36 588 36 530.5 47.5 c 128,-1,26
 473 59 473 59 410 59 c 0,27,28
 340 59 340 59 291 47 c 128,-1,29
 242 35 242 35 182 6 c 1,30,31
 166 47 166 47 151.5 76.5 c 128,-1,32
 137 106 137 106 121 147 c 1,33,34
 160 167 160 167 204 195 c 128,-1,35
 248 223 248 223 286 258 c 128,-1,36
 324 293 324 293 349.5 336 c 128,-1,37
 375 379 375 379 375 430 c 0,38,39
 375 455 375 455 370 482.5 c 128,-1,40
 365 510 365 510 356 541 c 1,41,42
 305 533 305 533 245.5 521.5 c 128,-1,43
 186 510 186 510 133 500 c 1,44,-1
 111 639 l 1,45,-1
 303 674 l 1,46,47
 270 758 270 758 243.5 841 c 128,-1,48
 217 924 217 924 217 1012 c 0,49,50
 217 1108 217 1108 253 1189 c 128,-1,51
 289 1270 289 1270 350.5 1329.5 c 128,-1,52
 412 1389 412 1389 493.5 1422.5 c 128,-1,53
 575 1456 575 1456 670 1456 c 0,54,55
 772 1456 772 1456 873.5 1412 c 128,-1,56
 975 1368 975 1368 1042 1290 c 1,57,-1
 918 1198 l 1,58,59
 873 1251 873 1251 807 1282 c 128,-1,60
 741 1313 741 1313 672 1313 c 0,61,62
 606 1313 606 1313 552 1290.5 c 128,-1,63
 498 1268 498 1268 457 1228 c 128,-1,64
 416 1188 416 1188 393.5 1132.5 c 128,-1,65
 371 1077 371 1077 371 1012 c 0,66,67
 371 932 371 932 396.5 855 c 128,-1,68
 422 778 422 778 455 702 c 1,69,70
 531 716 531 716 612.5 728.5 c 128,-1,71
 694 741 694 741 772 756 c 1,72,-1
 795 616 l 1,0,-1
EndSplineSet
EndChar

StartChar: yen
Encoding: 165 165 101
Width: 1218
GlyphClass: 2
Flags: W
LayerCount: 2
Fore
SplineSet
997 868 m 1,0,-1
 997 727 l 1,1,-1
 688 727 l 1,2,-1
 688 489 l 1,3,-1
 997 489 l 1,4,-1
 997 348 l 1,5,-1
 688 348 l 1,6,-1
 688 0 l 1,7,-1
 547 0 l 1,8,-1
 547 348 l 1,9,-1
 240 348 l 1,10,-1
 240 489 l 1,11,-1
 547 489 l 1,12,-1
 547 727 l 1,13,-1
 240 727 l 1,14,-1
 240 868 l 1,15,-1
 463 868 l 1,16,17
 385 1007 385 1007 298 1160 c 128,-1,18
 211 1313 211 1313 133 1456 c 1,19,-1
 279 1456 l 1,20,-1
 616 856 l 1,21,-1
 958 1456 l 1,22,-1
 1104 1456 l 1,23,-1
 770 868 l 1,24,-1
 997 868 l 1,0,-1
EndSplineSet
EndChar

StartChar: brokenbar
Encoding: 166 166 102
Width: 385
GlyphClass: 2
Flags: W
LayerCount: 2
Fore
SplineSet
266 553 m 1,0,-1
 266 -168 l 1,1,-1
 123 -168 l 1,2,-1
 123 553 l 1,3,-1
 266 553 l 1,0,-1
123 903 m 1,4,-1
 123 1624 l 1,5,-1
 266 1624 l 1,6,-1
 266 903 l 1,7,-1
 123 903 l 1,4,-1
EndSplineSet
EndChar

StartChar: section
Encoding: 167 167 103
Width: 1177
GlyphClass: 2
Flags: W
LayerCount: 2
Fore
SplineSet
383 1542 m 0,0,1
 508 1612 508 1612 645 1612 c 0,2,3
 768 1612 768 1612 878.5 1559.5 c 128,-1,4
 989 1507 989 1507 1067 1397 c 1,5,6
 1032 1379 1032 1379 1004.5 1361 c 128,-1,7
 977 1343 977 1343 944 1323 c 1,8,9
 891 1393 891 1393 812 1430.5 c 128,-1,10
 733 1468 733 1468 649 1468 c 0,11,12
 624 1468 624 1468 594.5 1464 c 128,-1,13
 565 1460 565 1460 524 1450 c 1,14,-1
 1001 629 l 2,15,16
 1073 502 1073 502 1073 369 c 0,17,18
 1073 303 1073 303 1054.5 237.5 c 128,-1,19
 1036 172 1036 172 1001.5 112.5 c 128,-1,20
 967 53 967 53 918.5 2 c 128,-1,21
 870 -49 870 -49 811 -86 c 0,22,23
 684 -156 684 -156 555 -156 c 0,24,25
 428 -156 428 -156 317.5 -103.5 c 128,-1,26
 207 -51 207 -51 129 59 c 1,27,28
 164 77 164 77 191.5 95 c 128,-1,29
 219 113 219 113 250 133 c 1,30,31
 305 63 305 63 385 24.5 c 128,-1,32
 465 -14 465 -14 551 -14 c 0,33,34
 576 -14 576 -14 605.5 -10 c 128,-1,35
 635 -6 635 -6 670 2 c 1,36,-1
 195 827 l 2,37,38
 158 890 158 890 140.5 956 c 128,-1,39
 123 1022 123 1022 123 1087 c 0,40,41
 123 1155 123 1155 140.5 1220.5 c 128,-1,42
 158 1286 158 1286 190.5 1345.5 c 128,-1,43
 223 1405 223 1405 272.5 1455 c 128,-1,44
 322 1505 322 1505 383 1542 c 0,0,1
401 1382 m 1,45,46
 335 1319 335 1319 300.5 1242 c 128,-1,47
 266 1165 266 1165 266 1090 c 0,48,49
 266 1041 266 1041 278.5 991.5 c 128,-1,50
 291 942 291 942 315 899 c 2,51,-1
 793 72 l 1,52,53
 859 135 859 135 894.5 212 c 128,-1,54
 930 289 930 289 930 365 c 0,55,56
 930 412 930 412 916.5 463 c 128,-1,57
 903 514 903 514 879 557 c 2,58,-1
 401 1382 l 1,45,46
EndSplineSet
EndChar

StartChar: dieresis
Encoding: 168 168 104
Width: 1067
GlyphClass: 2
Flags: W
LayerCount: 2
Fore
SplineSet
225 1397 m 0,0,1
 270 1397 270 1397 301 1367 c 128,-1,2
 332 1337 332 1337 332 1292 c 256,3,4
 332 1247 332 1247 301 1215.5 c 128,-1,5
 270 1184 270 1184 225 1184 c 0,6,7
 182 1184 182 1184 150.5 1215.5 c 128,-1,8
 119 1247 119 1247 119 1292 c 256,9,10
 119 1337 119 1337 150.5 1367 c 128,-1,11
 182 1397 182 1397 225 1397 c 0,0,1
858 1397 m 256,12,13
 903 1397 903 1397 934 1367 c 128,-1,14
 965 1337 965 1337 965 1292 c 256,15,16
 965 1247 965 1247 934 1215.5 c 128,-1,17
 903 1184 903 1184 858 1184 c 256,18,19
 813 1184 813 1184 782.5 1215.5 c 128,-1,20
 752 1247 752 1247 752 1292 c 256,21,22
 752 1337 752 1337 782.5 1367 c 128,-1,23
 813 1397 813 1397 858 1397 c 256,12,13
EndSplineSet
EndChar

StartChar: copyright
Encoding: 169 169 105
Width: 1304
GlyphClass: 2
Flags: W
LayerCount: 2
Fore
SplineSet
860 539 m 1,0,1
 788 471 788 471 688 471 c 0,2,3
 635 471 635 471 590 491.5 c 128,-1,4
 545 512 545 512 510 546 c 128,-1,5
 475 580 475 580 455.5 626 c 128,-1,6
 436 672 436 672 436 725 c 0,7,8
 436 776 436 776 455.5 822 c 128,-1,9
 475 868 475 868 510 903 c 128,-1,10
 545 938 545 938 590 957.5 c 128,-1,11
 635 977 635 977 688 977 c 0,12,13
 786 977 786 977 856 913 c 1,14,-1
 858 913 l 1,15,16
 844 897 844 897 833.5 888 c 128,-1,17
 823 879 823 879 811 866 c 1,18,19
 782 889 782 889 752.5 902 c 128,-1,20
 723 915 723 915 688 915 c 0,21,22
 649 915 649 915 614.5 900 c 128,-1,23
 580 885 580 885 554 859.5 c 128,-1,24
 528 834 528 834 513 799 c 128,-1,25
 498 764 498 764 498 725 c 0,26,27
 498 688 498 688 513 653 c 128,-1,28
 528 618 528 618 554 591.5 c 128,-1,29
 580 565 580 565 614.5 550 c 128,-1,30
 649 535 649 535 688 535 c 0,31,32
 758 535 758 535 817 584 c 1,33,-1
 860 539 l 1,0,1
662 1270 m 256,34,35
 775 1270 775 1270 874 1227 c 128,-1,36
 973 1184 973 1184 1046.5 1110 c 128,-1,37
 1120 1036 1120 1036 1163 937 c 128,-1,38
 1206 838 1206 838 1206 725 c 256,39,40
 1206 612 1206 612 1163 513 c 128,-1,41
 1120 414 1120 414 1046.5 340 c 128,-1,42
 973 266 973 266 873.5 223 c 128,-1,43
 774 180 774 180 662 180 c 256,44,45
 549 180 549 180 449.5 223 c 128,-1,46
 350 266 350 266 276.5 340 c 128,-1,47
 203 414 203 414 160 513 c 128,-1,48
 117 612 117 612 117 725 c 256,49,50
 117 838 117 838 160 937 c 128,-1,51
 203 1036 203 1036 276.5 1110 c 128,-1,52
 350 1184 350 1184 449.5 1227 c 128,-1,53
 549 1270 549 1270 662 1270 c 256,34,35
1137 725 m 256,54,55
 1137 823 1137 823 1099 909 c 128,-1,56
 1061 995 1061 995 996.5 1059.5 c 128,-1,57
 932 1124 932 1124 845 1162 c 128,-1,58
 758 1200 758 1200 662 1200 c 0,59,60
 564 1200 564 1200 477.5 1162 c 128,-1,61
 391 1124 391 1124 325.5 1059.5 c 128,-1,62
 260 995 260 995 222 909 c 128,-1,63
 184 823 184 823 184 725 c 256,64,65
 184 627 184 627 222 541 c 128,-1,66
 260 455 260 455 325.5 390.5 c 128,-1,67
 391 326 391 326 477 288 c 128,-1,68
 563 250 563 250 662 250 c 0,69,70
 758 250 758 250 845 288 c 128,-1,71
 932 326 932 326 996.5 390.5 c 128,-1,72
 1061 455 1061 455 1099 541 c 128,-1,73
 1137 627 1137 627 1137 725 c 256,54,55
EndSplineSet
EndChar

StartChar: guillemotleft
Encoding: 171 171 106
Width: 1304
GlyphClass: 2
Flags: W
LayerCount: 2
Fore
SplineSet
659 944 m 1,0,-1
 295 469 l 1,1,-1
 659 -2 l 1,2,-1
 500 -2 l 1,3,4
 404 121 404 121 311.5 233.5 c 128,-1,5
 219 346 219 346 121 469 c 1,6,-1
 500 944 l 1,7,-1
 659 944 l 1,0,-1
1186 944 m 1,8,-1
 821 469 l 1,9,-1
 1186 -2 l 1,10,-1
 1028 -2 l 1,11,12
 930 121 930 121 837.5 233.5 c 128,-1,13
 745 346 745 346 647 469 c 1,14,-1
 1028 944 l 1,15,-1
 1186 944 l 1,8,-1
EndSplineSet
EndChar

StartChar: registered
Encoding: 174 174 107
Width: 827
GlyphClass: 2
Flags: W
LayerCount: 2
Fore
SplineSet
414 1456 m 0,0,1
 477 1456 477 1456 534.5 1431.5 c 128,-1,2
 592 1407 592 1407 634 1364 c 128,-1,3
 676 1321 676 1321 700.5 1263.5 c 128,-1,4
 725 1206 725 1206 725 1143 c 256,5,6
 725 1080 725 1080 700.5 1022.5 c 128,-1,7
 676 965 676 965 634 922 c 128,-1,8
 592 879 592 879 534.5 854 c 128,-1,9
 477 829 477 829 414 829 c 0,10,11
 348 829 348 829 292 854 c 128,-1,12
 236 879 236 879 194 922 c 128,-1,13
 152 965 152 965 127 1022 c 128,-1,14
 102 1079 102 1079 102 1143 c 256,15,16
 102 1206 102 1206 127 1263.5 c 128,-1,17
 152 1321 152 1321 194 1364 c 128,-1,18
 236 1407 236 1407 292 1431.5 c 128,-1,19
 348 1456 348 1456 414 1456 c 0,0,1
653 1143 m 256,20,21
 653 1192 653 1192 633.5 1235 c 128,-1,22
 614 1278 614 1278 582.5 1310.5 c 128,-1,23
 551 1343 551 1343 507 1361.5 c 128,-1,24
 463 1380 463 1380 414 1380 c 256,25,26
 365 1380 365 1380 320.5 1361.5 c 128,-1,27
 276 1343 276 1343 244.5 1310.5 c 128,-1,28
 213 1278 213 1278 193.5 1235 c 128,-1,29
 174 1192 174 1192 174 1143 c 256,30,31
 174 1094 174 1094 193.5 1050 c 128,-1,32
 213 1006 213 1006 244.5 973 c 128,-1,33
 276 940 276 940 320.5 920.5 c 128,-1,34
 365 901 365 901 414 901 c 256,35,36
 463 901 463 901 507 920.5 c 128,-1,37
 551 940 551 940 582.5 974 c 128,-1,38
 614 1008 614 1008 633.5 1051 c 128,-1,39
 653 1094 653 1094 653 1143 c 256,20,21
494 1096 m 1,40,41
 517 1076 517 1076 526 1052 c 128,-1,42
 535 1028 535 1028 541 999 c 1,43,-1
 471 999 l 1,44,45
 467 1034 467 1034 437.5 1054.5 c 128,-1,46
 408 1075 408 1075 375 1073 c 1,47,-1
 375 999 l 1,48,-1
 307 999 l 1,49,-1
 307 1307 l 1,50,-1
 422 1307 l 2,51,52
 469 1307 469 1307 505 1273 c 128,-1,53
 541 1239 541 1239 541 1192 c 0,54,55
 541 1137 541 1137 494 1096 c 1,40,41
375 1237 m 1,56,-1
 375 1143 l 1,57,-1
 422 1143 l 2,58,59
 445 1143 445 1143 458 1156 c 128,-1,60
 471 1169 471 1169 471 1192 c 0,61,62
 471 1212 471 1212 456.5 1224.5 c 128,-1,63
 442 1237 442 1237 422 1237 c 2,64,-1
 375 1237 l 1,56,-1
EndSplineSet
EndChar

StartChar: macron
Encoding: 175 175 108
Width: 1910
GlyphClass: 2
Flags: W
LayerCount: 2
Fore
SplineSet
121 1270 m 1,0,-1
 651 1270 l 1,1,-1
 651 1171 l 1,2,-1
 121 1171 l 1,3,-1
 121 1270 l 1,0,-1
EndSplineSet
EndChar

StartChar: degree
Encoding: 176 176 109
Width: 583
GlyphClass: 2
Flags: W
LayerCount: 2
Fore
SplineSet
481 1268 m 256,0,1
 481 1229 481 1229 466 1194 c 128,-1,2
 451 1159 451 1159 425 1133.5 c 128,-1,3
 399 1108 399 1108 364.5 1092.5 c 128,-1,4
 330 1077 330 1077 291 1077 c 256,5,6
 252 1077 252 1077 218 1092.5 c 128,-1,7
 184 1108 184 1108 158.5 1133.5 c 128,-1,8
 133 1159 133 1159 117.5 1194 c 128,-1,9
 102 1229 102 1229 102 1268 c 0,10,11
 102 1346 102 1346 157.5 1401 c 128,-1,12
 213 1456 213 1456 291 1456 c 0,13,14
 330 1456 330 1456 364.5 1440.5 c 128,-1,15
 399 1425 399 1425 425 1399.5 c 128,-1,16
 451 1374 451 1374 466 1340.5 c 128,-1,17
 481 1307 481 1307 481 1268 c 256,0,1
219 1268 m 0,18,19
 219 1237 219 1237 240.5 1216.5 c 128,-1,20
 262 1196 262 1196 291 1196 c 0,21,22
 322 1196 322 1196 342 1216.5 c 128,-1,23
 362 1237 362 1237 362 1268 c 0,24,25
 362 1297 362 1297 342 1318 c 128,-1,26
 322 1339 322 1339 291 1339 c 0,27,28
 262 1339 262 1339 240.5 1318 c 128,-1,29
 219 1297 219 1297 219 1268 c 0,18,19
EndSplineSet
EndChar

StartChar: plusminus
Encoding: 177 177 110
Width: 980
GlyphClass: 2
Flags: W
LayerCount: 2
Fore
SplineSet
567 944 m 1,0,-1
 567 637 l 1,1,-1
 877 637 l 1,2,-1
 877 496 l 1,3,-1
 567 496 l 1,4,-1
 567 141 l 1,5,-1
 877 141 l 1,6,-1
 877 0 l 1,7,-1
 119 0 l 1,8,-1
 119 141 l 1,9,-1
 428 141 l 1,10,-1
 428 496 l 1,11,-1
 119 496 l 1,12,-1
 119 637 l 1,13,-1
 428 637 l 1,14,-1
 428 944 l 1,15,-1
 567 944 l 1,0,-1
EndSplineSet
EndChar

StartChar: acute
Encoding: 180 180 111
Width: 518
GlyphClass: 2
Flags: W
LayerCount: 2
Fore
SplineSet
449 1397 m 1,0,-1
 571 1397 l 1,1,-1
 416 1171 l 1,2,-1
 324 1171 l 1,3,-1
 449 1397 l 1,0,-1
EndSplineSet
EndChar

StartChar: mu
Encoding: 181 181 112
Width: 1126
GlyphClass: 2
Flags: W
LayerCount: 2
Fore
SplineSet
502 0 m 0,0,1
 377 0 377 0 260 82 c 1,2,-1
 260 -498 l 1,3,-1
 117 -498 l 1,4,-1
 117 958 l 1,5,-1
 260 958 l 1,6,-1
 260 481 l 2,7,8
 260 415 260 415 270.5 352 c 128,-1,9
 281 289 281 289 307.5 238.5 c 128,-1,10
 334 188 334 188 381 157.5 c 128,-1,11
 428 127 428 127 502 127 c 256,12,13
 576 127 576 127 636 157.5 c 128,-1,14
 696 188 696 188 739 238.5 c 128,-1,15
 782 289 782 289 805.5 352.5 c 128,-1,16
 829 416 829 416 829 481 c 2,17,-1
 829 958 l 1,18,-1
 973 958 l 1,19,-1
 973 0 l 1,20,-1
 848 0 l 1,21,-1
 831 176 l 1,22,23
 765 84 765 84 675.5 42 c 128,-1,24
 586 0 586 0 502 0 c 0,0,1
EndSplineSet
EndChar

StartChar: paragraph
Encoding: 182 182 113
Width: 1662
GlyphClass: 2
Flags: W
LayerCount: 2
Fore
SplineSet
115 934 m 0,0,1
 115 1040 115 1040 156 1135.5 c 128,-1,2
 197 1231 197 1231 267.5 1302.5 c 128,-1,3
 338 1374 338 1374 433 1415 c 128,-1,4
 528 1456 528 1456 637 1456 c 2,5,-1
 1573 1456 l 1,6,-1
 1573 0 l 1,7,-1
 1430 0 l 1,8,-1
 1430 1313 l 1,9,-1
 1157 1313 l 1,10,-1
 1157 0 l 1,11,-1
 1016 0 l 1,12,-1
 1016 414 l 1,13,-1
 637 414 l 2,14,15
 528 414 528 414 433 455 c 128,-1,16
 338 496 338 496 267.5 566.5 c 128,-1,17
 197 637 197 637 156 731 c 128,-1,18
 115 825 115 825 115 934 c 0,0,1
EndSplineSet
EndChar

StartChar: cedilla
Encoding: 184 184 114
Width: 446
GlyphClass: 2
Flags: W
LayerCount: 2
Fore
SplineSet
344 88 m 1,0,-1
 449 88 l 1,1,-1
 449 -113 l 1,2,3
 500 -146 500 -146 542 -206 c 128,-1,4
 584 -266 584 -266 584 -332 c 0,5,6
 584 -377 584 -377 564.5 -418 c 128,-1,7
 545 -459 545 -459 512 -491.5 c 128,-1,8
 479 -524 479 -524 436 -544.5 c 128,-1,9
 393 -565 393 -565 344 -571 c 1,10,-1
 344 -455 l 1,11,12
 397 -449 397 -449 433 -414 c 128,-1,13
 469 -379 469 -379 469 -332 c 256,14,15
 469 -285 469 -285 433 -248 c 128,-1,16
 397 -211 397 -211 344 -205 c 1,17,-1
 344 88 l 1,0,-1
EndSplineSet
EndChar

StartChar: guillemotright
Encoding: 187 187 115
Width: 1304
GlyphClass: 2
Flags: W
LayerCount: 2
Fore
SplineSet
823 944 m 1,0,-1
 1200 469 l 1,1,-1
 823 -2 l 1,2,-1
 666 -2 l 1,3,-1
 1030 469 l 1,4,-1
 666 944 l 1,5,-1
 823 944 l 1,0,-1
297 944 m 1,6,-1
 674 469 l 1,7,-1
 297 -2 l 1,8,-1
 137 -2 l 1,9,-1
 502 469 l 1,10,-1
 137 944 l 1,11,-1
 297 944 l 1,6,-1
EndSplineSet
EndChar

StartChar: questiondown
Encoding: 191 191 116
Width: 1087
GlyphClass: 2
Flags: W
LayerCount: 2
Fore
SplineSet
541 0 m 0,0,1
 455 0 455 0 378 25.5 c 128,-1,2
 301 51 301 51 243.5 100.5 c 128,-1,3
 186 150 186 150 152.5 220.5 c 128,-1,4
 119 291 119 291 119 381 c 0,5,6
 119 436 119 436 133 479 c 128,-1,7
 147 522 147 522 171 559 c 128,-1,8
 195 596 195 596 225.5 626.5 c 128,-1,9
 256 657 256 657 289 688 c 0,10,11
 324 721 324 721 358.5 757 c 128,-1,12
 393 793 393 793 422 833.5 c 128,-1,13
 451 874 451 874 471.5 925.5 c 128,-1,14
 492 977 492 977 498 1042 c 1,15,-1
 635 1042 l 1,16,17
 629 964 629 964 607.5 905 c 128,-1,18
 586 846 586 846 556 800 c 128,-1,19
 526 754 526 754 490.5 718 c 128,-1,20
 455 682 455 682 422 649 c 0,21,22
 363 594 363 594 315.5 531.5 c 128,-1,23
 268 469 268 469 268 379 c 0,24,25
 268 248 268 248 343 182.5 c 128,-1,26
 418 117 418 117 547 117 c 0,27,28
 631 117 631 117 687 140.5 c 128,-1,29
 743 164 743 164 777 207 c 128,-1,30
 811 250 811 250 827.5 309.5 c 128,-1,31
 844 369 844 369 848 440 c 1,32,-1
 985 440 l 1,33,34
 983 340 983 340 952.5 259 c 128,-1,35
 922 178 922 178 864.5 120.5 c 128,-1,36
 807 63 807 63 725 31.5 c 128,-1,37
 643 0 643 0 541 0 c 0,0,1
563 1243 m 256,38,39
 518 1243 518 1243 488.5 1274 c 128,-1,40
 459 1305 459 1305 459 1350 c 0,41,42
 459 1393 459 1393 488.5 1424.5 c 128,-1,43
 518 1456 518 1456 563 1456 c 256,44,45
 608 1456 608 1456 639 1424.5 c 128,-1,46
 670 1393 670 1393 670 1350 c 0,47,48
 670 1305 670 1305 639 1274 c 128,-1,49
 608 1243 608 1243 563 1243 c 256,38,39
EndSplineSet
EndChar

StartChar: Agrave
Encoding: 192 192 117
Width: 1241
GlyphClass: 2
Flags: W
LayerCount: 2
Fore
SplineSet
879 414 m 1,0,-1
 381 414 l 1,1,2
 352 314 352 314 321.5 207 c 128,-1,3
 291 100 291 100 260 0 c 1,4,-1
 125 0 l 1,5,-1
 545 1456 l 1,6,-1
 713 1456 l 1,7,-1
 1133 0 l 1,8,-1
 995 0 l 1,9,-1
 879 414 l 1,0,-1
629 1270 m 1,10,-1
 422 555 l 1,11,-1
 836 555 l 1,12,-1
 629 1270 l 1,10,-1
543 1909 m 1,13,14
 576 1850 576 1850 606.5 1796.5 c 128,-1,15
 637 1743 637 1743 670 1683 c 1,16,-1
 580 1683 l 1,17,18
 539 1740 539 1740 501 1796.5 c 128,-1,19
 463 1853 463 1853 424 1909 c 1,20,-1
 543 1909 l 1,13,14
EndSplineSet
EndChar

StartChar: Aacute
Encoding: 193 193 118
Width: 1241
GlyphClass: 2
Flags: W
LayerCount: 2
Fore
SplineSet
879 414 m 1,0,-1
 381 414 l 1,1,2
 352 314 352 314 321.5 207 c 128,-1,3
 291 100 291 100 260 0 c 1,4,-1
 125 0 l 1,5,-1
 545 1456 l 1,6,-1
 713 1456 l 1,7,-1
 1133 0 l 1,8,-1
 995 0 l 1,9,-1
 879 414 l 1,0,-1
629 1270 m 1,10,-1
 422 555 l 1,11,-1
 836 555 l 1,12,-1
 629 1270 l 1,10,-1
713 1909 m 1,13,-1
 834 1909 l 1,14,-1
 678 1683 l 1,15,-1
 588 1683 l 1,16,-1
 713 1909 l 1,13,-1
EndSplineSet
EndChar

StartChar: Acircumflex
Encoding: 194 194 119
Width: 1241
GlyphClass: 2
Flags: W
LayerCount: 2
Fore
SplineSet
879 414 m 1,0,-1
 381 414 l 1,1,2
 352 314 352 314 321.5 207 c 128,-1,3
 291 100 291 100 260 0 c 1,4,-1
 125 0 l 1,5,-1
 545 1456 l 1,6,-1
 713 1456 l 1,7,-1
 1133 0 l 1,8,-1
 995 0 l 1,9,-1
 879 414 l 1,0,-1
629 1270 m 1,10,-1
 422 555 l 1,11,-1
 836 555 l 1,12,-1
 629 1270 l 1,10,-1
686 1909 m 1,13,14
 731 1852 731 1852 772 1796.5 c 128,-1,15
 813 1741 813 1741 854 1683 c 1,16,-1
 735 1683 l 1,17,-1
 627 1825 l 1,18,-1
 522 1683 l 1,19,-1
 399 1683 l 1,20,21
 448 1746 448 1746 486 1796.5 c 128,-1,22
 524 1847 524 1847 571 1909 c 1,23,-1
 686 1909 l 1,13,14
EndSplineSet
EndChar

StartChar: Atilde
Encoding: 195 195 120
Width: 1241
GlyphClass: 2
Flags: W
LayerCount: 2
Fore
SplineSet
879 414 m 1,0,-1
 381 414 l 1,1,2
 352 314 352 314 321.5 207 c 128,-1,3
 291 100 291 100 260 0 c 1,4,-1
 125 0 l 1,5,-1
 545 1456 l 1,6,-1
 713 1456 l 1,7,-1
 1133 0 l 1,8,-1
 995 0 l 1,9,-1
 879 414 l 1,0,-1
629 1270 m 1,10,-1
 422 555 l 1,11,-1
 836 555 l 1,12,-1
 629 1270 l 1,10,-1
766 1794 m 0,13,14
 827 1794 827 1794 847.5 1829 c 128,-1,15
 868 1864 868 1864 872 1911 c 1,16,-1
 979 1911 l 1,17,18
 975 1809 975 1809 918.5 1748.5 c 128,-1,19
 862 1688 862 1688 782 1683 c 1,20,-1
 786 1683 l 1,21,22
 733 1683 733 1683 687 1707 c 128,-1,23
 641 1731 641 1731 602 1753 c 0,24,25
 569 1771 569 1771 542.5 1786.5 c 128,-1,26
 516 1802 516 1802 494 1802 c 0,27,28
 431 1802 431 1802 411 1766.5 c 128,-1,29
 391 1731 391 1731 387 1683 c 1,30,-1
 281 1683 l 1,31,32
 283 1734 283 1734 298 1775.5 c 128,-1,33
 313 1817 313 1817 340 1845.5 c 128,-1,34
 367 1874 367 1874 401.5 1891.5 c 128,-1,35
 436 1909 436 1909 475 1911 c 0,36,37
 524 1909 524 1909 570 1886.5 c 128,-1,38
 616 1864 616 1864 655 1839 c 0,39,40
 684 1821 684 1821 712.5 1807.5 c 128,-1,41
 741 1794 741 1794 766 1794 c 0,13,14
EndSplineSet
EndChar

StartChar: Adieresis
Encoding: 196 196 121
Width: 1241
GlyphClass: 2
Flags: W
LayerCount: 2
Fore
SplineSet
879 414 m 1,0,-1
 381 414 l 1,1,2
 352 314 352 314 321.5 207 c 128,-1,3
 291 100 291 100 260 0 c 1,4,-1
 125 0 l 1,5,-1
 545 1456 l 1,6,-1
 713 1456 l 1,7,-1
 1133 0 l 1,8,-1
 995 0 l 1,9,-1
 879 414 l 1,0,-1
629 1270 m 1,10,-1
 422 555 l 1,11,-1
 836 555 l 1,12,-1
 629 1270 l 1,10,-1
313 1909 m 256,13,14
 358 1909 358 1909 388 1879 c 128,-1,15
 418 1849 418 1849 418 1804 c 256,16,17
 418 1759 418 1759 388 1727.5 c 128,-1,18
 358 1696 358 1696 313 1696 c 256,19,20
 268 1696 268 1696 237.5 1727.5 c 128,-1,21
 207 1759 207 1759 207 1804 c 256,22,23
 207 1849 207 1849 237.5 1879 c 128,-1,24
 268 1909 268 1909 313 1909 c 256,13,14
946 1909 m 256,25,26
 991 1909 991 1909 1021 1879 c 128,-1,27
 1051 1849 1051 1849 1051 1804 c 256,28,29
 1051 1759 1051 1759 1021 1727.5 c 128,-1,30
 991 1696 991 1696 946 1696 c 256,31,32
 901 1696 901 1696 869.5 1727.5 c 128,-1,33
 838 1759 838 1759 838 1804 c 256,34,35
 838 1849 838 1849 869.5 1879 c 128,-1,36
 901 1909 901 1909 946 1909 c 256,25,26
EndSplineSet
EndChar

StartChar: Aring
Encoding: 197 197 122
Width: 1241
GlyphClass: 2
Flags: W
LayerCount: 2
Fore
SplineSet
879 414 m 1,0,-1
 381 414 l 1,1,2
 352 314 352 314 321.5 207 c 128,-1,3
 291 100 291 100 260 0 c 1,4,-1
 125 0 l 1,5,-1
 545 1456 l 1,6,-1
 713 1456 l 1,7,-1
 1133 0 l 1,8,-1
 995 0 l 1,9,-1
 879 414 l 1,0,-1
629 1270 m 1,10,-1
 422 555 l 1,11,-1
 836 555 l 1,12,-1
 629 1270 l 1,10,-1
803 1860 m 0,13,14
 803 1786 803 1786 751.5 1734.5 c 128,-1,15
 700 1683 700 1683 627 1683 c 0,16,17
 555 1683 555 1683 505 1734.5 c 128,-1,18
 455 1786 455 1786 455 1860 c 0,19,20
 455 1932 455 1932 505 1982 c 128,-1,21
 555 2032 555 2032 627 2032 c 0,22,23
 701 2032 701 2032 752 1982 c 128,-1,24
 803 1932 803 1932 803 1860 c 0,13,14
532 1860 m 0,25,26
 532 1819 532 1819 561 1791 c 128,-1,27
 590 1763 590 1763 627 1763 c 0,28,29
 668 1763 668 1763 695.5 1791 c 128,-1,30
 723 1819 723 1819 723 1860 c 0,31,32
 723 1897 723 1897 695.5 1925.5 c 128,-1,33
 668 1954 668 1954 627 1954 c 0,34,35
 590 1954 590 1954 561 1925.5 c 128,-1,36
 532 1897 532 1897 532 1860 c 0,25,26
EndSplineSet
EndChar

StartChar: AE
Encoding: 198 198 123
Width: 1347
GlyphClass: 2
Flags: W
LayerCount: 2
Fore
SplineSet
1251 1313 m 1,0,-1
 791 1313 l 1,1,-1
 791 555 l 1,2,-1
 1251 555 l 1,3,-1
 1251 414 l 1,4,-1
 791 414 l 1,5,-1
 791 143 l 1,6,-1
 1251 143 l 1,7,-1
 1251 0 l 1,8,-1
 649 0 l 1,9,-1
 649 414 l 1,10,-1
 381 414 l 1,11,12
 352 314 352 314 320.5 207 c 128,-1,13
 289 100 289 100 260 0 c 1,14,-1
 125 0 l 1,15,-1
 545 1456 l 1,16,-1
 1251 1456 l 1,17,-1
 1251 1313 l 1,0,-1
649 1196 m 1,18,-1
 610 1204 l 1,19,-1
 420 555 l 1,20,-1
 649 555 l 1,21,-1
 649 1196 l 1,18,-1
EndSplineSet
EndChar

StartChar: Ccedilla
Encoding: 199 199 124
Width: 1419
GlyphClass: 2
Flags: W
LayerCount: 2
Fore
SplineSet
1315 172 m 1,0,1
 1217 92 1217 92 1091 46 c 128,-1,2
 965 0 965 0 805 0 c 1,3,-1
 805 -113 l 1,4,5
 856 -146 856 -146 898 -206 c 128,-1,6
 940 -266 940 -266 940 -332 c 0,7,8
 940 -377 940 -377 920.5 -418 c 128,-1,9
 901 -459 901 -459 869.5 -491.5 c 128,-1,10
 838 -524 838 -524 794 -544.5 c 128,-1,11
 750 -565 750 -565 700 -571 c 1,12,-1
 700 -455 l 1,13,14
 753 -449 753 -449 790 -414 c 128,-1,15
 827 -379 827 -379 827 -332 c 256,16,17
 827 -285 827 -285 790.5 -248 c 128,-1,18
 754 -211 754 -211 700 -205 c 1,19,-1
 700 12 l 1,20,21
 573 39 573 39 466.5 105.5 c 128,-1,22
 360 172 360 172 282.5 267 c 128,-1,23
 205 362 205 362 161 480 c 128,-1,24
 117 598 117 598 117 727 c 0,25,26
 117 877 117 877 174 1010 c 128,-1,27
 231 1143 231 1143 329.5 1242 c 128,-1,28
 428 1341 428 1341 560 1398.5 c 128,-1,29
 692 1456 692 1456 844 1456 c 0,30,31
 979 1456 979 1456 1098 1410 c 128,-1,32
 1217 1364 1217 1364 1315 1284 c 1,33,-1
 1214 1182 l 1,34,35
 1136 1245 1136 1245 1045 1279 c 128,-1,36
 954 1313 954 1313 844 1313 c 0,37,38
 723 1313 723 1313 616.5 1267 c 128,-1,39
 510 1221 510 1221 431 1141 c 128,-1,40
 352 1061 352 1061 306 954.5 c 128,-1,41
 260 848 260 848 260 727 c 256,42,43
 260 606 260 606 306 499.5 c 128,-1,44
 352 393 352 393 431 314.5 c 128,-1,45
 510 236 510 236 616.5 189.5 c 128,-1,46
 723 143 723 143 844 143 c 0,47,48
 944 143 944 143 1043.5 182 c 128,-1,49
 1143 221 1143 221 1214 274 c 1,50,-1
 1315 172 l 1,0,1
EndSplineSet
EndChar

StartChar: Egrave
Encoding: 200 200 125
Width: 1280
GlyphClass: 2
Flags: W
LayerCount: 2
Fore
SplineSet
1182 1313 m 1,0,-1
 322 1313 l 1,1,-1
 322 555 l 1,2,-1
 1182 555 l 1,3,-1
 1182 414 l 1,4,-1
 322 414 l 1,5,-1
 322 143 l 1,6,-1
 1182 143 l 1,7,-1
 1182 0 l 1,8,-1
 180 0 l 1,9,-1
 180 1456 l 1,10,-1
 1182 1456 l 1,11,-1
 1182 1313 l 1,0,-1
596 1909 m 1,12,13
 627 1850 627 1850 658.5 1796.5 c 128,-1,14
 690 1743 690 1743 721 1683 c 1,15,-1
 631 1683 l 1,16,17
 590 1740 590 1740 553 1796.5 c 128,-1,18
 516 1853 516 1853 475 1909 c 1,19,-1
 596 1909 l 1,12,13
EndSplineSet
EndChar

StartChar: Eacute
Encoding: 201 201 126
Width: 1280
GlyphClass: 2
Flags: W
LayerCount: 2
Fore
SplineSet
1182 1313 m 1,0,-1
 322 1313 l 1,1,-1
 322 555 l 1,2,-1
 1182 555 l 1,3,-1
 1182 414 l 1,4,-1
 322 414 l 1,5,-1
 322 143 l 1,6,-1
 1182 143 l 1,7,-1
 1182 0 l 1,8,-1
 180 0 l 1,9,-1
 180 1456 l 1,10,-1
 1182 1456 l 1,11,-1
 1182 1313 l 1,0,-1
764 1909 m 1,12,-1
 887 1909 l 1,13,-1
 729 1683 l 1,14,-1
 639 1683 l 1,15,-1
 764 1909 l 1,12,-1
EndSplineSet
EndChar

StartChar: Ecircumflex
Encoding: 202 202 127
Width: 1280
GlyphClass: 2
Flags: W
LayerCount: 2
Fore
SplineSet
1182 1313 m 1,0,-1
 322 1313 l 1,1,-1
 322 555 l 1,2,-1
 1182 555 l 1,3,-1
 1182 414 l 1,4,-1
 322 414 l 1,5,-1
 322 143 l 1,6,-1
 1182 143 l 1,7,-1
 1182 0 l 1,8,-1
 180 0 l 1,9,-1
 180 1456 l 1,10,-1
 1182 1456 l 1,11,-1
 1182 1313 l 1,0,-1
739 1909 m 1,12,13
 782 1852 782 1852 823 1796.5 c 128,-1,14
 864 1741 864 1741 907 1683 c 1,15,-1
 786 1683 l 1,16,-1
 680 1825 l 1,17,-1
 573 1683 l 1,18,-1
 453 1683 l 1,19,20
 502 1746 502 1746 538.5 1796.5 c 128,-1,21
 575 1847 575 1847 623 1909 c 1,22,-1
 739 1909 l 1,12,13
EndSplineSet
EndChar

StartChar: Edieresis
Encoding: 203 203 128
Width: 1280
GlyphClass: 2
Flags: W
LayerCount: 2
Fore
SplineSet
1182 1313 m 1,0,-1
 322 1313 l 1,1,-1
 322 555 l 1,2,-1
 1182 555 l 1,3,-1
 1182 414 l 1,4,-1
 322 414 l 1,5,-1
 322 143 l 1,6,-1
 1182 143 l 1,7,-1
 1182 0 l 1,8,-1
 180 0 l 1,9,-1
 180 1456 l 1,10,-1
 1182 1456 l 1,11,-1
 1182 1313 l 1,0,-1
997 1909 m 256,12,13
 1042 1909 1042 1909 1073 1879 c 128,-1,14
 1104 1849 1104 1849 1104 1804 c 256,15,16
 1104 1759 1104 1759 1073 1727.5 c 128,-1,17
 1042 1696 1042 1696 997 1696 c 256,18,19
 952 1696 952 1696 921.5 1727.5 c 128,-1,20
 891 1759 891 1759 891 1804 c 256,21,22
 891 1849 891 1849 921.5 1879 c 128,-1,23
 952 1909 952 1909 997 1909 c 256,12,13
365 1909 m 0,24,25
 410 1909 410 1909 440.5 1879 c 128,-1,26
 471 1849 471 1849 471 1804 c 256,27,28
 471 1759 471 1759 440.5 1727.5 c 128,-1,29
 410 1696 410 1696 365 1696 c 0,30,31
 322 1696 322 1696 290 1727.5 c 128,-1,32
 258 1759 258 1759 258 1804 c 256,33,34
 258 1849 258 1849 290 1879 c 128,-1,35
 322 1909 322 1909 365 1909 c 0,24,25
EndSplineSet
EndChar

StartChar: Igrave
Encoding: 204 204 129
Width: 507
GlyphClass: 2
Flags: W
LayerCount: 2
Fore
SplineSet
330 1456 m 1,0,-1
 330 0 l 1,1,-1
 186 0 l 1,2,-1
 186 1456 l 1,3,-1
 330 1456 l 1,0,-1
172 1909 m 1,4,5
 205 1850 205 1850 235.5 1796.5 c 128,-1,6
 266 1743 266 1743 299 1683 c 1,7,-1
 209 1683 l 1,8,9
 168 1740 168 1740 130 1796.5 c 128,-1,10
 92 1853 92 1853 51 1909 c 1,11,-1
 172 1909 l 1,4,5
EndSplineSet
EndChar

StartChar: Iacute
Encoding: 205 205 130
Width: 507
GlyphClass: 2
Flags: W
LayerCount: 2
Fore
SplineSet
328 1456 m 1,0,-1
 328 0 l 1,1,-1
 184 0 l 1,2,-1
 184 1456 l 1,3,-1
 328 1456 l 1,0,-1
340 1909 m 1,4,-1
 463 1909 l 1,5,-1
 307 1683 l 1,6,-1
 217 1683 l 1,7,-1
 340 1909 l 1,4,-1
EndSplineSet
EndChar

StartChar: Icircumflex
Encoding: 206 206 131
Width: 507
GlyphClass: 2
Flags: W
LayerCount: 2
Fore
SplineSet
330 1456 m 1,0,-1
 330 0 l 1,1,-1
 186 0 l 1,2,-1
 186 1456 l 1,3,-1
 330 1456 l 1,0,-1
317 1909 m 1,4,5
 360 1852 360 1852 401 1796.5 c 128,-1,6
 442 1741 442 1741 485 1683 c 1,7,-1
 365 1683 l 1,8,-1
 258 1825 l 1,9,-1
 152 1683 l 1,10,-1
 31 1683 l 1,11,12
 80 1746 80 1746 117 1796.5 c 128,-1,13
 154 1847 154 1847 201 1909 c 1,14,-1
 317 1909 l 1,4,5
EndSplineSet
EndChar

StartChar: Idieresis
Encoding: 207 207 132
Width: 507
GlyphClass: 2
Flags: W
LayerCount: 2
Fore
SplineSet
330 1456 m 1,0,-1
 330 0 l 1,1,-1
 186 0 l 1,2,-1
 186 1456 l 1,3,-1
 330 1456 l 1,0,-1
-57 1909 m 0,4,5
 -12 1909 -12 1909 18.5 1879 c 128,-1,6
 49 1849 49 1849 49 1804 c 256,7,8
 49 1759 49 1759 18.5 1727.5 c 128,-1,9
 -12 1696 -12 1696 -57 1696 c 0,10,11
 -100 1696 -100 1696 -132 1727.5 c 128,-1,12
 -164 1759 -164 1759 -164 1804 c 256,13,14
 -164 1849 -164 1849 -132 1879 c 128,-1,15
 -100 1909 -100 1909 -57 1909 c 0,4,5
575 1909 m 256,16,17
 620 1909 620 1909 651 1879 c 128,-1,18
 682 1849 682 1849 682 1804 c 256,19,20
 682 1759 682 1759 651.5 1727.5 c 128,-1,21
 621 1696 621 1696 575 1696 c 256,22,23
 530 1696 530 1696 499.5 1727.5 c 128,-1,24
 469 1759 469 1759 469 1804 c 256,25,26
 469 1849 469 1849 499.5 1879 c 128,-1,27
 530 1909 530 1909 575 1909 c 256,16,17
EndSplineSet
EndChar

StartChar: Ntilde
Encoding: 209 209 133
Width: 1382
GlyphClass: 2
Flags: W
LayerCount: 2
Fore
SplineSet
1223 0 m 1,0,-1
 1059 0 l 1,1,-1
 324 1233 l 1,2,-1
 324 0 l 1,3,-1
 180 0 l 1,4,-1
 180 1456 l 1,5,-1
 344 1456 l 1,6,-1
 1081 221 l 1,7,-1
 1081 1456 l 1,8,-1
 1223 1456 l 1,9,-1
 1223 0 l 1,0,-1
838 1794 m 0,10,11
 899 1794 899 1794 918.5 1829 c 128,-1,12
 938 1864 938 1864 942 1911 c 1,13,-1
 1051 1911 l 1,14,15
 1049 1860 1049 1860 1032.5 1819 c 128,-1,16
 1016 1778 1016 1778 989.5 1749 c 128,-1,17
 963 1720 963 1720 928 1703 c 128,-1,18
 893 1686 893 1686 854 1683 c 1,19,-1
 856 1683 l 1,20,21
 803 1683 803 1683 757 1707 c 128,-1,22
 711 1731 711 1731 674 1753 c 0,23,24
 641 1771 641 1771 613.5 1786.5 c 128,-1,25
 586 1802 586 1802 563 1802 c 0,26,27
 502 1802 502 1802 482.5 1766.5 c 128,-1,28
 463 1731 463 1731 459 1683 c 1,29,-1
 350 1683 l 1,30,31
 354 1785 354 1785 410.5 1846 c 128,-1,32
 467 1907 467 1907 547 1911 c 0,33,34
 596 1909 596 1909 642 1886.5 c 128,-1,35
 688 1864 688 1864 725 1839 c 0,36,37
 756 1821 756 1821 783.5 1807.5 c 128,-1,38
 811 1794 811 1794 838 1794 c 0,10,11
EndSplineSet
EndChar

StartChar: Ograve
Encoding: 210 210 134
Width: 1660
GlyphClass: 2
Flags: W
LayerCount: 2
Fore
SplineSet
1571 727 m 0,0,1
 1571 575 1571 575 1513.5 443 c 128,-1,2
 1456 311 1456 311 1356.5 213 c 128,-1,3
 1257 115 1257 115 1124 57.5 c 128,-1,4
 991 0 991 0 842 0 c 0,5,6
 690 0 690 0 558 57.5 c 128,-1,7
 426 115 426 115 327.5 213 c 128,-1,8
 229 311 229 311 172 443 c 128,-1,9
 115 575 115 575 115 727 c 0,10,11
 115 877 115 877 172 1010 c 128,-1,12
 229 1143 229 1143 327.5 1242 c 128,-1,13
 426 1341 426 1341 558 1398.5 c 128,-1,14
 690 1456 690 1456 842 1456 c 0,15,16
 992 1456 992 1456 1124.5 1398.5 c 128,-1,17
 1257 1341 1257 1341 1356.5 1242 c 128,-1,18
 1456 1143 1456 1143 1513.5 1010 c 128,-1,19
 1571 877 1571 877 1571 727 c 0,0,1
258 727 m 256,20,21
 258 606 258 606 304 499.5 c 128,-1,22
 350 393 350 393 429 314.5 c 128,-1,23
 508 236 508 236 614.5 189.5 c 128,-1,24
 721 143 721 143 842 143 c 256,25,26
 963 143 963 143 1069.5 189.5 c 128,-1,27
 1176 236 1176 236 1255.5 314.5 c 128,-1,28
 1335 393 1335 393 1381 499.5 c 128,-1,29
 1427 606 1427 606 1427 727 c 256,30,31
 1427 848 1427 848 1381 954.5 c 128,-1,32
 1335 1061 1335 1061 1255.5 1141 c 128,-1,33
 1176 1221 1176 1221 1069.5 1267 c 128,-1,34
 963 1313 963 1313 842 1313 c 256,35,36
 721 1313 721 1313 614.5 1267 c 128,-1,37
 508 1221 508 1221 429 1141 c 128,-1,38
 350 1061 350 1061 304 954.5 c 128,-1,39
 258 848 258 848 258 727 c 256,20,21
758 1909 m 1,40,41
 789 1850 789 1850 820.5 1796.5 c 128,-1,42
 852 1743 852 1743 883 1683 c 1,43,-1
 793 1683 l 1,44,45
 752 1740 752 1740 715 1796.5 c 128,-1,46
 678 1853 678 1853 637 1909 c 1,47,-1
 758 1909 l 1,40,41
EndSplineSet
EndChar

StartChar: Oacute
Encoding: 211 211 135
Width: 1660
GlyphClass: 2
Flags: W
LayerCount: 2
Fore
SplineSet
1571 727 m 0,0,1
 1571 575 1571 575 1513.5 443 c 128,-1,2
 1456 311 1456 311 1356.5 213 c 128,-1,3
 1257 115 1257 115 1124 57.5 c 128,-1,4
 991 0 991 0 842 0 c 0,5,6
 690 0 690 0 558 57.5 c 128,-1,7
 426 115 426 115 327.5 213 c 128,-1,8
 229 311 229 311 172 443 c 128,-1,9
 115 575 115 575 115 727 c 0,10,11
 115 877 115 877 172 1010 c 128,-1,12
 229 1143 229 1143 327.5 1242 c 128,-1,13
 426 1341 426 1341 558 1398.5 c 128,-1,14
 690 1456 690 1456 842 1456 c 0,15,16
 992 1456 992 1456 1124.5 1398.5 c 128,-1,17
 1257 1341 1257 1341 1356.5 1242 c 128,-1,18
 1456 1143 1456 1143 1513.5 1010 c 128,-1,19
 1571 877 1571 877 1571 727 c 0,0,1
258 727 m 256,20,21
 258 606 258 606 304 499.5 c 128,-1,22
 350 393 350 393 429 314.5 c 128,-1,23
 508 236 508 236 614.5 189.5 c 128,-1,24
 721 143 721 143 842 143 c 256,25,26
 963 143 963 143 1069.5 189.5 c 128,-1,27
 1176 236 1176 236 1255.5 314.5 c 128,-1,28
 1335 393 1335 393 1381 499.5 c 128,-1,29
 1427 606 1427 606 1427 727 c 256,30,31
 1427 848 1427 848 1381 954.5 c 128,-1,32
 1335 1061 1335 1061 1255.5 1141 c 128,-1,33
 1176 1221 1176 1221 1069.5 1267 c 128,-1,34
 963 1313 963 1313 842 1313 c 256,35,36
 721 1313 721 1313 614.5 1267 c 128,-1,37
 508 1221 508 1221 429 1141 c 128,-1,38
 350 1061 350 1061 304 954.5 c 128,-1,39
 258 848 258 848 258 727 c 256,20,21
926 1909 m 1,40,-1
 1049 1909 l 1,41,-1
 893 1683 l 1,42,-1
 801 1683 l 1,43,-1
 926 1909 l 1,40,-1
EndSplineSet
EndChar

StartChar: Ocircumflex
Encoding: 212 212 136
Width: 1660
GlyphClass: 2
Flags: W
LayerCount: 2
Fore
SplineSet
1571 727 m 0,0,1
 1571 575 1571 575 1513.5 443 c 128,-1,2
 1456 311 1456 311 1356.5 213 c 128,-1,3
 1257 115 1257 115 1124 57.5 c 128,-1,4
 991 0 991 0 842 0 c 0,5,6
 690 0 690 0 558 57.5 c 128,-1,7
 426 115 426 115 327.5 213 c 128,-1,8
 229 311 229 311 172 443 c 128,-1,9
 115 575 115 575 115 727 c 0,10,11
 115 877 115 877 172 1010 c 128,-1,12
 229 1143 229 1143 327.5 1242 c 128,-1,13
 426 1341 426 1341 558 1398.5 c 128,-1,14
 690 1456 690 1456 842 1456 c 0,15,16
 992 1456 992 1456 1124.5 1398.5 c 128,-1,17
 1257 1341 1257 1341 1356.5 1242 c 128,-1,18
 1456 1143 1456 1143 1513.5 1010 c 128,-1,19
 1571 877 1571 877 1571 727 c 0,0,1
258 727 m 256,20,21
 258 606 258 606 304 499.5 c 128,-1,22
 350 393 350 393 429 314.5 c 128,-1,23
 508 236 508 236 614.5 189.5 c 128,-1,24
 721 143 721 143 842 143 c 256,25,26
 963 143 963 143 1069.5 189.5 c 128,-1,27
 1176 236 1176 236 1255.5 314.5 c 128,-1,28
 1335 393 1335 393 1381 499.5 c 128,-1,29
 1427 606 1427 606 1427 727 c 256,30,31
 1427 848 1427 848 1381 954.5 c 128,-1,32
 1335 1061 1335 1061 1255.5 1141 c 128,-1,33
 1176 1221 1176 1221 1069.5 1267 c 128,-1,34
 963 1313 963 1313 842 1313 c 256,35,36
 721 1313 721 1313 614.5 1267 c 128,-1,37
 508 1221 508 1221 429 1141 c 128,-1,38
 350 1061 350 1061 304 954.5 c 128,-1,39
 258 848 258 848 258 727 c 256,20,21
901 1909 m 1,40,41
 944 1852 944 1852 985 1796.5 c 128,-1,42
 1026 1741 1026 1741 1069 1683 c 1,43,-1
 948 1683 l 1,44,-1
 842 1825 l 1,45,-1
 735 1683 l 1,46,-1
 614 1683 l 1,47,48
 663 1746 663 1746 700 1796.5 c 128,-1,49
 737 1847 737 1847 784 1909 c 1,50,-1
 901 1909 l 1,40,41
EndSplineSet
EndChar

StartChar: Otilde
Encoding: 213 213 137
Width: 1660
GlyphClass: 2
Flags: W
LayerCount: 2
Fore
SplineSet
1571 727 m 0,0,1
 1571 575 1571 575 1513.5 443 c 128,-1,2
 1456 311 1456 311 1356.5 213 c 128,-1,3
 1257 115 1257 115 1124 57.5 c 128,-1,4
 991 0 991 0 842 0 c 0,5,6
 690 0 690 0 558 57.5 c 128,-1,7
 426 115 426 115 327.5 213 c 128,-1,8
 229 311 229 311 172 443 c 128,-1,9
 115 575 115 575 115 727 c 0,10,11
 115 877 115 877 172 1010 c 128,-1,12
 229 1143 229 1143 327.5 1242 c 128,-1,13
 426 1341 426 1341 558 1398.5 c 128,-1,14
 690 1456 690 1456 842 1456 c 0,15,16
 992 1456 992 1456 1124.5 1398.5 c 128,-1,17
 1257 1341 1257 1341 1356.5 1242 c 128,-1,18
 1456 1143 1456 1143 1513.5 1010 c 128,-1,19
 1571 877 1571 877 1571 727 c 0,0,1
258 727 m 256,20,21
 258 606 258 606 304 499.5 c 128,-1,22
 350 393 350 393 429 314.5 c 128,-1,23
 508 236 508 236 614.5 189.5 c 128,-1,24
 721 143 721 143 842 143 c 256,25,26
 963 143 963 143 1069.5 189.5 c 128,-1,27
 1176 236 1176 236 1255.5 314.5 c 128,-1,28
 1335 393 1335 393 1381 499.5 c 128,-1,29
 1427 606 1427 606 1427 727 c 256,30,31
 1427 848 1427 848 1381 954.5 c 128,-1,32
 1335 1061 1335 1061 1255.5 1141 c 128,-1,33
 1176 1221 1176 1221 1069.5 1267 c 128,-1,34
 963 1313 963 1313 842 1313 c 256,35,36
 721 1313 721 1313 614.5 1267 c 128,-1,37
 508 1221 508 1221 429 1141 c 128,-1,38
 350 1061 350 1061 304 954.5 c 128,-1,39
 258 848 258 848 258 727 c 256,20,21
979 1794 m 0,40,41
 1040 1794 1040 1794 1059.5 1829 c 128,-1,42
 1079 1864 1079 1864 1083 1911 c 1,43,-1
 1192 1911 l 1,44,45
 1190 1860 1190 1860 1173.5 1819 c 128,-1,46
 1157 1778 1157 1778 1130.5 1749 c 128,-1,47
 1104 1720 1104 1720 1069 1703 c 128,-1,48
 1034 1686 1034 1686 995 1683 c 1,49,-1
 997 1683 l 1,50,51
 944 1683 944 1683 898 1707 c 128,-1,52
 852 1731 852 1731 813 1753 c 0,53,54
 782 1771 782 1771 754.5 1786.5 c 128,-1,55
 727 1802 727 1802 705 1802 c 0,56,57
 644 1802 644 1802 624 1766.5 c 128,-1,58
 604 1731 604 1731 600 1683 c 1,59,-1
 492 1683 l 1,60,61
 496 1785 496 1785 552 1846 c 128,-1,62
 608 1907 608 1907 688 1911 c 0,63,64
 737 1909 737 1909 783 1886.5 c 128,-1,65
 829 1864 829 1864 866 1839 c 0,66,67
 897 1821 897 1821 924.5 1807.5 c 128,-1,68
 952 1794 952 1794 979 1794 c 0,40,41
EndSplineSet
EndChar

StartChar: Odieresis
Encoding: 214 214 138
Width: 1660
GlyphClass: 2
Flags: W
LayerCount: 2
Fore
SplineSet
1571 727 m 0,0,1
 1571 575 1571 575 1513.5 443 c 128,-1,2
 1456 311 1456 311 1356.5 213 c 128,-1,3
 1257 115 1257 115 1124 57.5 c 128,-1,4
 991 0 991 0 842 0 c 0,5,6
 690 0 690 0 558 57.5 c 128,-1,7
 426 115 426 115 327.5 213 c 128,-1,8
 229 311 229 311 172 443 c 128,-1,9
 115 575 115 575 115 727 c 0,10,11
 115 877 115 877 172 1010 c 128,-1,12
 229 1143 229 1143 327.5 1242 c 128,-1,13
 426 1341 426 1341 558 1398.5 c 128,-1,14
 690 1456 690 1456 842 1456 c 0,15,16
 992 1456 992 1456 1124.5 1398.5 c 128,-1,17
 1257 1341 1257 1341 1356.5 1242 c 128,-1,18
 1456 1143 1456 1143 1513.5 1010 c 128,-1,19
 1571 877 1571 877 1571 727 c 0,0,1
258 727 m 256,20,21
 258 606 258 606 304 499.5 c 128,-1,22
 350 393 350 393 429 314.5 c 128,-1,23
 508 236 508 236 614.5 189.5 c 128,-1,24
 721 143 721 143 842 143 c 256,25,26
 963 143 963 143 1069.5 189.5 c 128,-1,27
 1176 236 1176 236 1255.5 314.5 c 128,-1,28
 1335 393 1335 393 1381 499.5 c 128,-1,29
 1427 606 1427 606 1427 727 c 256,30,31
 1427 848 1427 848 1381 954.5 c 128,-1,32
 1335 1061 1335 1061 1255.5 1141 c 128,-1,33
 1176 1221 1176 1221 1069.5 1267 c 128,-1,34
 963 1313 963 1313 842 1313 c 256,35,36
 721 1313 721 1313 614.5 1267 c 128,-1,37
 508 1221 508 1221 429 1141 c 128,-1,38
 350 1061 350 1061 304 954.5 c 128,-1,39
 258 848 258 848 258 727 c 256,20,21
528 1909 m 0,40,41
 571 1909 571 1909 602 1879 c 128,-1,42
 633 1849 633 1849 633 1804 c 256,43,44
 633 1759 633 1759 602 1727.5 c 128,-1,45
 571 1696 571 1696 528 1696 c 0,46,47
 483 1696 483 1696 451.5 1727.5 c 128,-1,48
 420 1759 420 1759 420 1804 c 256,49,50
 420 1849 420 1849 451.5 1879 c 128,-1,51
 483 1909 483 1909 528 1909 c 0,40,41
1159 1909 m 256,52,53
 1204 1909 1204 1909 1235 1879 c 128,-1,54
 1266 1849 1266 1849 1266 1804 c 256,55,56
 1266 1759 1266 1759 1235 1727.5 c 128,-1,57
 1204 1696 1204 1696 1159 1696 c 256,58,59
 1114 1696 1114 1696 1083.5 1727.5 c 128,-1,60
 1053 1759 1053 1759 1053 1804 c 256,61,62
 1053 1849 1053 1849 1083.5 1879 c 128,-1,63
 1114 1909 1114 1909 1159 1909 c 256,52,53
EndSplineSet
EndChar

StartChar: multiply
Encoding: 215 215 139
Width: 878
GlyphClass: 2
Flags: W
LayerCount: 2
Fore
SplineSet
227 799 m 1,0,-1
 444 582 l 1,1,-1
 664 799 l 1,2,-1
 762 700 l 1,3,-1
 545 481 l 1,4,-1
 762 264 l 1,5,-1
 664 164 l 1,6,-1
 444 381 l 1,7,-1
 227 164 l 1,8,-1
 129 264 l 1,9,-1
 346 483 l 1,10,-1
 129 700 l 1,11,-1
 227 799 l 1,0,-1
EndSplineSet
EndChar

StartChar: Oslash
Encoding: 216 216 140
Width: 1660
GlyphClass: 2
Flags: W
LayerCount: 2
Fore
SplineSet
1169 1581 m 1,0,-1
 1118 1403 l 1,1,2
 1216 1360 1216 1360 1300 1290.5 c 128,-1,3
 1384 1221 1384 1221 1443.5 1132.5 c 128,-1,4
 1503 1044 1503 1044 1537 941 c 128,-1,5
 1571 838 1571 838 1571 727 c 0,6,7
 1571 575 1571 575 1513.5 443 c 128,-1,8
 1456 311 1456 311 1356.5 213 c 128,-1,9
 1257 115 1257 115 1124 57.5 c 128,-1,10
 991 0 991 0 842 0 c 0,11,12
 813 0 813 0 781.5 2 c 128,-1,13
 750 4 750 4 702 12 c 1,14,-1
 649 -162 l 1,15,-1
 510 -125 l 1,16,-1
 563 53 l 1,17,18
 465 96 465 96 382 166 c 128,-1,19
 299 236 299 236 239.5 323 c 128,-1,20
 180 410 180 410 147.5 513 c 128,-1,21
 115 616 115 616 115 727 c 0,22,23
 115 877 115 877 172 1010 c 128,-1,24
 229 1143 229 1143 327.5 1242 c 128,-1,25
 426 1341 426 1341 558 1398.5 c 128,-1,26
 690 1456 690 1456 842 1456 c 0,27,28
 869 1456 869 1456 904.5 1452 c 128,-1,29
 940 1448 940 1448 981 1442 c 1,30,-1
 1032 1618 l 1,31,-1
 1169 1581 l 1,0,-1
842 143 m 2,32,33
 963 143 963 143 1069.5 189.5 c 128,-1,34
 1176 236 1176 236 1255.5 314.5 c 128,-1,35
 1335 393 1335 393 1381 499.5 c 128,-1,36
 1427 606 1427 606 1427 727 c 0,37,38
 1427 813 1427 813 1401.5 893 c 128,-1,39
 1376 973 1376 973 1330 1042.5 c 128,-1,40
 1284 1112 1284 1112 1218.5 1168.5 c 128,-1,41
 1153 1225 1153 1225 1075 1262 c 1,42,-1
 745 152 l 1,43,44
 774 146 774 146 791.5 144.5 c 128,-1,45
 809 143 809 143 827 143 c 2,46,-1
 842 143 l 2,32,33
258 727 m 0,47,48
 258 641 258 641 283.5 561 c 128,-1,49
 309 481 309 481 355 412.5 c 128,-1,50
 401 344 401 344 465.5 287.5 c 128,-1,51
 530 231 530 231 608 195 c 1,52,-1
 938 1307 l 1,53,54
 918 1309 918 1309 888 1311 c 128,-1,55
 858 1313 858 1313 842 1313 c 0,56,57
 721 1313 721 1313 614.5 1267 c 128,-1,58
 508 1221 508 1221 429 1141 c 128,-1,59
 350 1061 350 1061 304 954.5 c 128,-1,60
 258 848 258 848 258 727 c 0,47,48
EndSplineSet
EndChar

StartChar: Ugrave
Encoding: 217 217 141
Width: 1259
GlyphClass: 2
Flags: W
LayerCount: 2
Fore
SplineSet
1020 1456 m 1,0,-1
 1161 1456 l 1,1,-1
 1161 522 l 2,2,3
 1161 413 1161 413 1120 319 c 128,-1,4
 1079 225 1079 225 1007.5 153.5 c 128,-1,5
 936 82 936 82 840.5 41 c 128,-1,6
 745 0 745 0 639 0 c 0,7,8
 530 0 530 0 435 41 c 128,-1,9
 340 82 340 82 269.5 153.5 c 128,-1,10
 199 225 199 225 158 319.5 c 128,-1,11
 117 414 117 414 117 522 c 2,12,-1
 117 1456 l 1,13,-1
 258 1456 l 1,14,-1
 258 522 l 2,15,16
 258 444 258 444 288.5 375.5 c 128,-1,17
 319 307 319 307 371.5 255 c 128,-1,18
 424 203 424 203 492.5 173 c 128,-1,19
 561 143 561 143 639 143 c 256,20,21
 717 143 717 143 785.5 173 c 128,-1,22
 854 203 854 203 906 255 c 128,-1,23
 958 307 958 307 989 375.5 c 128,-1,24
 1020 444 1020 444 1020 522 c 2,25,-1
 1020 1456 l 1,0,-1
553 1909 m 1,26,27
 586 1850 586 1850 616.5 1796.5 c 128,-1,28
 647 1743 647 1743 680 1683 c 1,29,-1
 590 1683 l 1,30,31
 549 1740 549 1740 511 1796.5 c 128,-1,32
 473 1853 473 1853 434 1909 c 1,33,-1
 553 1909 l 1,26,27
EndSplineSet
EndChar

StartChar: Uacute
Encoding: 218 218 142
Width: 1259
GlyphClass: 2
Flags: W
LayerCount: 2
Fore
SplineSet
1020 1456 m 1,0,-1
 1161 1456 l 1,1,-1
 1161 522 l 2,2,3
 1161 413 1161 413 1120 319 c 128,-1,4
 1079 225 1079 225 1007.5 153.5 c 128,-1,5
 936 82 936 82 840.5 41 c 128,-1,6
 745 0 745 0 639 0 c 0,7,8
 530 0 530 0 435 41 c 128,-1,9
 340 82 340 82 269.5 153.5 c 128,-1,10
 199 225 199 225 158 319.5 c 128,-1,11
 117 414 117 414 117 522 c 2,12,-1
 117 1456 l 1,13,-1
 258 1456 l 1,14,-1
 258 522 l 2,15,16
 258 444 258 444 288.5 375.5 c 128,-1,17
 319 307 319 307 371.5 255 c 128,-1,18
 424 203 424 203 492.5 173 c 128,-1,19
 561 143 561 143 639 143 c 256,20,21
 717 143 717 143 785.5 173 c 128,-1,22
 854 203 854 203 906 255 c 128,-1,23
 958 307 958 307 989 375.5 c 128,-1,24
 1020 444 1020 444 1020 522 c 2,25,-1
 1020 1456 l 1,0,-1
723 1909 m 1,26,-1
 844 1909 l 1,27,-1
 688 1683 l 1,28,-1
 598 1683 l 1,29,-1
 723 1909 l 1,26,-1
EndSplineSet
EndChar

StartChar: Ucircumflex
Encoding: 219 219 143
Width: 1259
GlyphClass: 2
Flags: W
LayerCount: 2
Fore
SplineSet
1020 1456 m 1,0,-1
 1161 1456 l 1,1,-1
 1161 522 l 2,2,3
 1161 413 1161 413 1120 319 c 128,-1,4
 1079 225 1079 225 1007.5 153.5 c 128,-1,5
 936 82 936 82 840.5 41 c 128,-1,6
 745 0 745 0 639 0 c 0,7,8
 530 0 530 0 435 41 c 128,-1,9
 340 82 340 82 269.5 153.5 c 128,-1,10
 199 225 199 225 158 319.5 c 128,-1,11
 117 414 117 414 117 522 c 2,12,-1
 117 1456 l 1,13,-1
 258 1456 l 1,14,-1
 258 522 l 2,15,16
 258 444 258 444 288.5 375.5 c 128,-1,17
 319 307 319 307 371.5 255 c 128,-1,18
 424 203 424 203 492.5 173 c 128,-1,19
 561 143 561 143 639 143 c 256,20,21
 717 143 717 143 785.5 173 c 128,-1,22
 854 203 854 203 906 255 c 128,-1,23
 958 307 958 307 989 375.5 c 128,-1,24
 1020 444 1020 444 1020 522 c 2,25,-1
 1020 1456 l 1,0,-1
696 1909 m 1,26,27
 741 1852 741 1852 782 1796.5 c 128,-1,28
 823 1741 823 1741 866 1683 c 1,29,-1
 745 1683 l 1,30,-1
 637 1825 l 1,31,-1
 532 1683 l 1,32,-1
 410 1683 l 1,33,34
 459 1746 459 1746 497 1796.5 c 128,-1,35
 535 1847 535 1847 582 1909 c 1,36,-1
 696 1909 l 1,26,27
EndSplineSet
EndChar

StartChar: Udieresis
Encoding: 220 220 144
Width: 1259
GlyphClass: 2
Flags: W
LayerCount: 2
Fore
SplineSet
1020 1456 m 1,0,-1
 1161 1456 l 1,1,-1
 1161 522 l 2,2,3
 1161 413 1161 413 1120 319 c 128,-1,4
 1079 225 1079 225 1007.5 153.5 c 128,-1,5
 936 82 936 82 840.5 41 c 128,-1,6
 745 0 745 0 639 0 c 0,7,8
 530 0 530 0 435 41 c 128,-1,9
 340 82 340 82 269.5 153.5 c 128,-1,10
 199 225 199 225 158 319.5 c 128,-1,11
 117 414 117 414 117 522 c 2,12,-1
 117 1456 l 1,13,-1
 258 1456 l 1,14,-1
 258 522 l 2,15,16
 258 444 258 444 288.5 375.5 c 128,-1,17
 319 307 319 307 371.5 255 c 128,-1,18
 424 203 424 203 492.5 173 c 128,-1,19
 561 143 561 143 639 143 c 256,20,21
 717 143 717 143 785.5 173 c 128,-1,22
 854 203 854 203 906 255 c 128,-1,23
 958 307 958 307 989 375.5 c 128,-1,24
 1020 444 1020 444 1020 522 c 2,25,-1
 1020 1456 l 1,0,-1
324 1909 m 256,26,27
 369 1909 369 1909 399.5 1879 c 128,-1,28
 430 1849 430 1849 430 1804 c 256,29,30
 430 1759 430 1759 399.5 1727.5 c 128,-1,31
 369 1696 369 1696 324 1696 c 256,32,33
 279 1696 279 1696 248 1727.5 c 128,-1,34
 217 1759 217 1759 217 1804 c 256,35,36
 217 1849 217 1849 248 1879 c 128,-1,37
 279 1909 279 1909 324 1909 c 256,26,27
956 1909 m 256,38,39
 1001 1909 1001 1909 1031 1879 c 128,-1,40
 1061 1849 1061 1849 1061 1804 c 256,41,42
 1061 1759 1061 1759 1031 1727.5 c 128,-1,43
 1001 1696 1001 1696 956 1696 c 256,44,45
 911 1696 911 1696 879.5 1727.5 c 128,-1,46
 848 1759 848 1759 848 1804 c 256,47,48
 848 1849 848 1849 879.5 1879 c 128,-1,49
 911 1909 911 1909 956 1909 c 256,38,39
EndSplineSet
EndChar

StartChar: Yacute
Encoding: 221 221 145
Width: 1218
GlyphClass: 2
Flags: W
LayerCount: 2
Fore
SplineSet
547 0 m 1,0,-1
 547 723 l 1,1,-1
 135 1456 l 1,2,-1
 279 1456 l 1,3,-1
 616 856 l 1,4,-1
 958 1456 l 1,5,-1
 1102 1456 l 1,6,-1
 688 723 l 1,7,-1
 688 0 l 1,8,-1
 547 0 l 1,0,-1
700 1909 m 1,9,-1
 823 1909 l 1,10,-1
 668 1683 l 1,11,-1
 578 1683 l 1,12,-1
 700 1909 l 1,9,-1
EndSplineSet
EndChar

StartChar: germandbls
Encoding: 223 223 146
Width: 1427
GlyphClass: 2
Flags: W
LayerCount: 2
Fore
SplineSet
694 182 m 1,0,1
 762 157 762 157 833.5 148 c 128,-1,2
 905 139 905 139 977 139 c 0,3,4
 1020 139 1020 139 1062 154.5 c 128,-1,5
 1104 170 1104 170 1135.5 197.5 c 128,-1,6
 1167 225 1167 225 1186.5 263 c 128,-1,7
 1206 301 1206 301 1206 348 c 0,8,9
 1206 420 1206 420 1168 457 c 128,-1,10
 1130 494 1130 494 1073 514.5 c 128,-1,11
 1016 535 1016 535 950.5 550 c 128,-1,12
 885 565 885 565 827.5 596 c 128,-1,13
 770 627 770 627 732 684 c 128,-1,14
 694 741 694 741 694 844 c 0,15,16
 694 891 694 891 710.5 931 c 128,-1,17
 727 971 727 971 746.5 1007.5 c 128,-1,18
 766 1044 766 1044 782.5 1080 c 128,-1,19
 799 1116 799 1116 799 1157 c 0,20,21
 799 1241 799 1241 750.5 1299.5 c 128,-1,22
 702 1358 702 1358 618 1358 c 0,23,24
 583 1358 583 1358 554.5 1339.5 c 128,-1,25
 526 1321 526 1321 506.5 1293.5 c 128,-1,26
 487 1266 487 1266 477 1231 c 128,-1,27
 467 1196 467 1196 467 1163 c 2,28,-1
 467 0 l 1,29,-1
 326 0 l 1,30,-1
 326 834 l 1,31,-1
 113 834 l 1,32,-1
 113 958 l 1,33,-1
 326 958 l 1,34,35
 326 1040 326 1040 330 1132.5 c 128,-1,36
 334 1225 334 1225 360.5 1301.5 c 128,-1,37
 387 1378 387 1378 447.5 1428.5 c 128,-1,38
 508 1479 508 1479 618 1479 c 0,39,40
 677 1479 677 1479 731.5 1456.5 c 128,-1,41
 786 1434 786 1434 828 1394 c 128,-1,42
 870 1354 870 1354 896 1300.5 c 128,-1,43
 922 1247 922 1247 922 1188 c 0,44,45
 922 1143 922 1143 908.5 1099 c 128,-1,46
 895 1055 895 1055 878.5 1012 c 128,-1,47
 862 969 862 969 849 926 c 128,-1,48
 836 883 836 883 836 838 c 0,49,50
 836 775 836 775 873.5 745 c 128,-1,51
 911 715 911 715 968.5 696.5 c 128,-1,52
 1026 678 1026 678 1091.5 662.5 c 128,-1,53
 1157 647 1157 647 1214.5 613.5 c 128,-1,54
 1272 580 1272 580 1310 518.5 c 128,-1,55
 1348 457 1348 457 1348 348 c 0,56,57
 1348 272 1348 272 1317 208.5 c 128,-1,58
 1286 145 1286 145 1235 99 c 128,-1,59
 1184 53 1184 53 1117.5 26.5 c 128,-1,60
 1051 0 1051 0 977 0 c 0,61,62
 905 0 905 0 833.5 7 c 128,-1,63
 762 14 762 14 694 37 c 1,64,-1
 694 182 l 1,0,1
EndSplineSet
EndChar

StartChar: agrave
Encoding: 224 224 147
Width: 997
GlyphClass: 2
Flags: W
LayerCount: 2
Fore
SplineSet
524 958 m 0,0,1
 612 958 612 958 683 929.5 c 128,-1,2
 754 901 754 901 803 850 c 128,-1,3
 852 799 852 799 877.5 726 c 128,-1,4
 903 653 903 653 903 565 c 2,5,-1
 903 -2 l 1,6,-1
 778 -2 l 1,7,-1
 764 113 l 1,8,9
 690 60 690 60 612.5 29 c 128,-1,10
 535 -2 535 -2 463 -2 c 0,11,12
 400 -2 400 -2 337 16.5 c 128,-1,13
 274 35 274 35 225 70.5 c 128,-1,14
 176 106 176 106 146.5 159.5 c 128,-1,15
 117 213 117 213 117 283 c 0,16,17
 117 363 117 363 147.5 409 c 128,-1,18
 178 455 178 455 229.5 480.5 c 128,-1,19
 281 506 281 506 343.5 515 c 128,-1,20
 406 524 406 524 471 530 c 0,21,22
 551 536 551 536 628 549.5 c 128,-1,23
 705 563 705 563 766 610 c 1,24,25
 766 708 766 708 705.5 769.5 c 128,-1,26
 645 831 645 831 524 831 c 0,27,28
 493 831 493 831 457.5 823 c 128,-1,29
 422 815 422 815 391 798.5 c 128,-1,30
 360 782 360 782 336.5 756.5 c 128,-1,31
 313 731 313 731 307 696 c 1,32,-1
 166 696 l 1,33,34
 172 757 172 757 206 805.5 c 128,-1,35
 240 854 240 854 291 888 c 128,-1,36
 342 922 342 922 402.5 940 c 128,-1,37
 463 958 463 958 524 958 c 0,0,1
463 113 m 0,38,39
 516 113 516 113 566 127 c 128,-1,40
 616 141 616 141 657 169 c 128,-1,41
 698 197 698 197 727 236.5 c 128,-1,42
 756 276 756 276 766 328 c 1,43,-1
 766 508 l 1,44,45
 713 477 713 477 660.5 467 c 128,-1,46
 608 457 608 457 555 449 c 0,47,48
 504 443 504 443 450.5 433.5 c 128,-1,49
 397 424 397 424 354 407.5 c 128,-1,50
 311 391 311 391 283.5 361.5 c 128,-1,51
 256 332 256 332 256 287 c 0,52,53
 256 244 256 244 273.5 211 c 128,-1,54
 291 178 291 178 320.5 156.5 c 128,-1,55
 350 135 350 135 387 124 c 128,-1,56
 424 113 424 113 463 113 c 0,38,39
424 1419 m 1,57,58
 457 1360 457 1360 487.5 1304.5 c 128,-1,59
 518 1249 518 1249 551 1190 c 1,60,-1
 459 1190 l 1,61,62
 418 1247 418 1247 380 1304.5 c 128,-1,63
 342 1362 342 1362 301 1419 c 1,64,-1
 424 1419 l 1,57,58
EndSplineSet
EndChar

StartChar: aacute
Encoding: 225 225 148
Width: 997
GlyphClass: 2
Flags: W
LayerCount: 2
Fore
SplineSet
524 958 m 0,0,1
 612 958 612 958 683 929.5 c 128,-1,2
 754 901 754 901 803 850 c 128,-1,3
 852 799 852 799 877.5 726 c 128,-1,4
 903 653 903 653 903 565 c 2,5,-1
 903 -2 l 1,6,-1
 778 -2 l 1,7,-1
 764 113 l 1,8,9
 690 60 690 60 612.5 29 c 128,-1,10
 535 -2 535 -2 463 -2 c 0,11,12
 400 -2 400 -2 337 16.5 c 128,-1,13
 274 35 274 35 225 70.5 c 128,-1,14
 176 106 176 106 146.5 159.5 c 128,-1,15
 117 213 117 213 117 283 c 0,16,17
 117 363 117 363 147.5 409 c 128,-1,18
 178 455 178 455 229.5 480.5 c 128,-1,19
 281 506 281 506 343.5 515 c 128,-1,20
 406 524 406 524 471 530 c 0,21,22
 551 536 551 536 628 549.5 c 128,-1,23
 705 563 705 563 766 610 c 1,24,25
 766 708 766 708 705.5 769.5 c 128,-1,26
 645 831 645 831 524 831 c 0,27,28
 493 831 493 831 457.5 823 c 128,-1,29
 422 815 422 815 391 798.5 c 128,-1,30
 360 782 360 782 336.5 756.5 c 128,-1,31
 313 731 313 731 307 696 c 1,32,-1
 166 696 l 1,33,34
 172 757 172 757 206 805.5 c 128,-1,35
 240 854 240 854 291 888 c 128,-1,36
 342 922 342 922 402.5 940 c 128,-1,37
 463 958 463 958 524 958 c 0,0,1
463 113 m 0,38,39
 516 113 516 113 566 127 c 128,-1,40
 616 141 616 141 657 169 c 128,-1,41
 698 197 698 197 727 236.5 c 128,-1,42
 756 276 756 276 766 328 c 1,43,-1
 766 508 l 1,44,45
 713 477 713 477 660.5 467 c 128,-1,46
 608 457 608 457 555 449 c 0,47,48
 504 443 504 443 450.5 433.5 c 128,-1,49
 397 424 397 424 354 407.5 c 128,-1,50
 311 391 311 391 283.5 361.5 c 128,-1,51
 256 332 256 332 256 287 c 0,52,53
 256 244 256 244 273.5 211 c 128,-1,54
 291 178 291 178 320.5 156.5 c 128,-1,55
 350 135 350 135 387 124 c 128,-1,56
 424 113 424 113 463 113 c 0,38,39
594 1419 m 1,57,-1
 719 1419 l 1,58,-1
 559 1190 l 1,59,-1
 469 1190 l 1,60,-1
 594 1419 l 1,57,-1
EndSplineSet
EndChar

StartChar: acircumflex
Encoding: 226 226 149
Width: 997
GlyphClass: 2
Flags: W
LayerCount: 2
Fore
SplineSet
524 958 m 0,0,1
 612 958 612 958 683 929.5 c 128,-1,2
 754 901 754 901 803 850 c 128,-1,3
 852 799 852 799 877.5 726 c 128,-1,4
 903 653 903 653 903 565 c 2,5,-1
 903 -2 l 1,6,-1
 778 -2 l 1,7,-1
 764 113 l 1,8,9
 690 60 690 60 612.5 29 c 128,-1,10
 535 -2 535 -2 463 -2 c 0,11,12
 400 -2 400 -2 337 16.5 c 128,-1,13
 274 35 274 35 225 70.5 c 128,-1,14
 176 106 176 106 146.5 159.5 c 128,-1,15
 117 213 117 213 117 283 c 0,16,17
 117 363 117 363 147.5 409 c 128,-1,18
 178 455 178 455 229.5 480.5 c 128,-1,19
 281 506 281 506 343.5 515 c 128,-1,20
 406 524 406 524 471 530 c 0,21,22
 551 536 551 536 628 549.5 c 128,-1,23
 705 563 705 563 766 610 c 1,24,25
 766 708 766 708 705.5 769.5 c 128,-1,26
 645 831 645 831 524 831 c 0,27,28
 493 831 493 831 457.5 823 c 128,-1,29
 422 815 422 815 391 798.5 c 128,-1,30
 360 782 360 782 336.5 756.5 c 128,-1,31
 313 731 313 731 307 696 c 1,32,-1
 166 696 l 1,33,34
 172 757 172 757 206 805.5 c 128,-1,35
 240 854 240 854 291 888 c 128,-1,36
 342 922 342 922 402.5 940 c 128,-1,37
 463 958 463 958 524 958 c 0,0,1
463 113 m 0,38,39
 516 113 516 113 566 127 c 128,-1,40
 616 141 616 141 657 169 c 128,-1,41
 698 197 698 197 727 236.5 c 128,-1,42
 756 276 756 276 766 328 c 1,43,-1
 766 508 l 1,44,45
 713 477 713 477 660.5 467 c 128,-1,46
 608 457 608 457 555 449 c 0,47,48
 504 443 504 443 450.5 433.5 c 128,-1,49
 397 424 397 424 354 407.5 c 128,-1,50
 311 391 311 391 283.5 361.5 c 128,-1,51
 256 332 256 332 256 287 c 0,52,53
 256 244 256 244 273.5 211 c 128,-1,54
 291 178 291 178 320.5 156.5 c 128,-1,55
 350 135 350 135 387 124 c 128,-1,56
 424 113 424 113 463 113 c 0,38,39
569 1419 m 1,57,58
 614 1360 614 1360 655 1303.5 c 128,-1,59
 696 1247 696 1247 739 1190 c 1,60,-1
 618 1190 l 1,61,-1
 508 1333 l 1,62,-1
 401 1190 l 1,63,-1
 279 1190 l 1,64,65
 328 1256 328 1256 365.5 1306 c 128,-1,66
 403 1356 403 1356 451 1419 c 1,67,-1
 569 1419 l 1,57,58
EndSplineSet
EndChar

StartChar: atilde
Encoding: 227 227 150
Width: 997
GlyphClass: 2
Flags: W
LayerCount: 2
Fore
SplineSet
524 958 m 0,0,1
 612 958 612 958 683 929.5 c 128,-1,2
 754 901 754 901 803 850 c 128,-1,3
 852 799 852 799 877.5 726 c 128,-1,4
 903 653 903 653 903 565 c 2,5,-1
 903 -2 l 1,6,-1
 778 -2 l 1,7,-1
 764 113 l 1,8,9
 690 60 690 60 612.5 29 c 128,-1,10
 535 -2 535 -2 463 -2 c 0,11,12
 400 -2 400 -2 337 16.5 c 128,-1,13
 274 35 274 35 225 70.5 c 128,-1,14
 176 106 176 106 146.5 159.5 c 128,-1,15
 117 213 117 213 117 283 c 0,16,17
 117 363 117 363 147.5 409 c 128,-1,18
 178 455 178 455 229.5 480.5 c 128,-1,19
 281 506 281 506 343.5 515 c 128,-1,20
 406 524 406 524 471 530 c 0,21,22
 551 536 551 536 628 549.5 c 128,-1,23
 705 563 705 563 766 610 c 1,24,25
 766 708 766 708 705.5 769.5 c 128,-1,26
 645 831 645 831 524 831 c 0,27,28
 493 831 493 831 457.5 823 c 128,-1,29
 422 815 422 815 391 798.5 c 128,-1,30
 360 782 360 782 336.5 756.5 c 128,-1,31
 313 731 313 731 307 696 c 1,32,-1
 166 696 l 1,33,34
 172 757 172 757 206 805.5 c 128,-1,35
 240 854 240 854 291 888 c 128,-1,36
 342 922 342 922 402.5 940 c 128,-1,37
 463 958 463 958 524 958 c 0,0,1
463 113 m 0,38,39
 516 113 516 113 566 127 c 128,-1,40
 616 141 616 141 657 169 c 128,-1,41
 698 197 698 197 727 236.5 c 128,-1,42
 756 276 756 276 766 328 c 1,43,-1
 766 508 l 1,44,45
 713 477 713 477 660.5 467 c 128,-1,46
 608 457 608 457 555 449 c 0,47,48
 504 443 504 443 450.5 433.5 c 128,-1,49
 397 424 397 424 354 407.5 c 128,-1,50
 311 391 311 391 283.5 361.5 c 128,-1,51
 256 332 256 332 256 287 c 0,52,53
 256 244 256 244 273.5 211 c 128,-1,54
 291 178 291 178 320.5 156.5 c 128,-1,55
 350 135 350 135 387 124 c 128,-1,56
 424 113 424 113 463 113 c 0,38,39
647 1300 m 0,57,58
 710 1300 710 1300 731 1337 c 128,-1,59
 752 1374 752 1374 756 1421 c 1,60,-1
 864 1421 l 1,61,62
 860 1319 860 1319 802.5 1256.5 c 128,-1,63
 745 1194 745 1194 666 1190 c 1,64,-1
 668 1190 l 1,65,66
 613 1190 613 1190 566.5 1213.5 c 128,-1,67
 520 1237 520 1237 481 1260 c 0,68,69
 448 1280 448 1280 420.5 1294.5 c 128,-1,70
 393 1309 393 1309 371 1309 c 0,71,72
 308 1309 308 1309 287 1273 c 128,-1,73
 266 1237 266 1237 262 1190 c 1,74,-1
 154 1190 l 1,75,76
 156 1241 156 1241 172 1283 c 128,-1,77
 188 1325 188 1325 215 1354.5 c 128,-1,78
 242 1384 242 1384 276.5 1401.5 c 128,-1,79
 311 1419 311 1419 352 1421 c 0,80,81
 403 1419 403 1419 449.5 1395.5 c 128,-1,82
 496 1372 496 1372 535 1348 c 0,83,84
 566 1330 566 1330 594 1315 c 128,-1,85
 622 1300 622 1300 647 1300 c 0,57,58
EndSplineSet
EndChar

StartChar: adieresis
Encoding: 228 228 151
Width: 997
GlyphClass: 2
Flags: W
LayerCount: 2
Fore
SplineSet
524 958 m 0,0,1
 612 958 612 958 683 929.5 c 128,-1,2
 754 901 754 901 803 850 c 128,-1,3
 852 799 852 799 877.5 726 c 128,-1,4
 903 653 903 653 903 565 c 2,5,-1
 903 -2 l 1,6,-1
 778 -2 l 1,7,-1
 764 113 l 1,8,9
 690 60 690 60 612.5 29 c 128,-1,10
 535 -2 535 -2 463 -2 c 0,11,12
 400 -2 400 -2 337 16.5 c 128,-1,13
 274 35 274 35 225 70.5 c 128,-1,14
 176 106 176 106 146.5 159.5 c 128,-1,15
 117 213 117 213 117 283 c 0,16,17
 117 363 117 363 147.5 409 c 128,-1,18
 178 455 178 455 229.5 480.5 c 128,-1,19
 281 506 281 506 343.5 515 c 128,-1,20
 406 524 406 524 471 530 c 0,21,22
 551 536 551 536 628 549.5 c 128,-1,23
 705 563 705 563 766 610 c 1,24,25
 766 708 766 708 705.5 769.5 c 128,-1,26
 645 831 645 831 524 831 c 0,27,28
 493 831 493 831 457.5 823 c 128,-1,29
 422 815 422 815 391 798.5 c 128,-1,30
 360 782 360 782 336.5 756.5 c 128,-1,31
 313 731 313 731 307 696 c 1,32,-1
 166 696 l 1,33,34
 172 757 172 757 206 805.5 c 128,-1,35
 240 854 240 854 291 888 c 128,-1,36
 342 922 342 922 402.5 940 c 128,-1,37
 463 958 463 958 524 958 c 0,0,1
463 113 m 0,38,39
 516 113 516 113 566 127 c 128,-1,40
 616 141 616 141 657 169 c 128,-1,41
 698 197 698 197 727 236.5 c 128,-1,42
 756 276 756 276 766 328 c 1,43,-1
 766 508 l 1,44,45
 713 477 713 477 660.5 467 c 128,-1,46
 608 457 608 457 555 449 c 0,47,48
 504 443 504 443 450.5 433.5 c 128,-1,49
 397 424 397 424 354 407.5 c 128,-1,50
 311 391 311 391 283.5 361.5 c 128,-1,51
 256 332 256 332 256 287 c 0,52,53
 256 244 256 244 273.5 211 c 128,-1,54
 291 178 291 178 320.5 156.5 c 128,-1,55
 350 135 350 135 387 124 c 128,-1,56
 424 113 424 113 463 113 c 0,38,39
190 1419 m 256,57,58
 235 1419 235 1419 266 1388.5 c 128,-1,59
 297 1358 297 1358 297 1311 c 0,60,61
 297 1266 297 1266 266.5 1234 c 128,-1,62
 236 1202 236 1202 190 1202 c 256,63,64
 145 1202 145 1202 112.5 1234 c 128,-1,65
 80 1266 80 1266 80 1311 c 0,66,67
 80 1358 80 1358 112.5 1388.5 c 128,-1,68
 145 1419 145 1419 190 1419 c 256,57,58
831 1419 m 256,69,70
 876 1419 876 1419 907 1388.5 c 128,-1,71
 938 1358 938 1358 938 1311 c 0,72,73
 938 1266 938 1266 907.5 1234 c 128,-1,74
 877 1202 877 1202 831 1202 c 256,75,76
 786 1202 786 1202 754.5 1234 c 128,-1,77
 723 1266 723 1266 723 1311 c 0,78,79
 723 1358 723 1358 754.5 1388.5 c 128,-1,80
 786 1419 786 1419 831 1419 c 256,69,70
EndSplineSet
EndChar

StartChar: aring
Encoding: 229 229 152
Width: 997
GlyphClass: 2
Flags: W
LayerCount: 2
Fore
SplineSet
524 958 m 0,0,1
 612 958 612 958 683 929.5 c 128,-1,2
 754 901 754 901 803 850 c 128,-1,3
 852 799 852 799 877.5 726 c 128,-1,4
 903 653 903 653 903 565 c 2,5,-1
 903 -2 l 1,6,-1
 778 -2 l 1,7,-1
 764 113 l 1,8,9
 690 60 690 60 612.5 29 c 128,-1,10
 535 -2 535 -2 463 -2 c 0,11,12
 400 -2 400 -2 337 16.5 c 128,-1,13
 274 35 274 35 225 70.5 c 128,-1,14
 176 106 176 106 146.5 159.5 c 128,-1,15
 117 213 117 213 117 283 c 0,16,17
 117 363 117 363 147.5 409 c 128,-1,18
 178 455 178 455 229.5 480.5 c 128,-1,19
 281 506 281 506 343.5 515 c 128,-1,20
 406 524 406 524 471 530 c 0,21,22
 551 536 551 536 628 549.5 c 128,-1,23
 705 563 705 563 766 610 c 1,24,25
 766 708 766 708 705.5 769.5 c 128,-1,26
 645 831 645 831 524 831 c 0,27,28
 493 831 493 831 457.5 823 c 128,-1,29
 422 815 422 815 391 798.5 c 128,-1,30
 360 782 360 782 336.5 756.5 c 128,-1,31
 313 731 313 731 307 696 c 1,32,-1
 166 696 l 1,33,34
 172 757 172 757 206 805.5 c 128,-1,35
 240 854 240 854 291 888 c 128,-1,36
 342 922 342 922 402.5 940 c 128,-1,37
 463 958 463 958 524 958 c 0,0,1
463 113 m 0,38,39
 516 113 516 113 566 127 c 128,-1,40
 616 141 616 141 657 169 c 128,-1,41
 698 197 698 197 727 236.5 c 128,-1,42
 756 276 756 276 766 328 c 1,43,-1
 766 508 l 1,44,45
 713 477 713 477 660.5 467 c 128,-1,46
 608 457 608 457 555 449 c 0,47,48
 504 443 504 443 450.5 433.5 c 128,-1,49
 397 424 397 424 354 407.5 c 128,-1,50
 311 391 311 391 283.5 361.5 c 128,-1,51
 256 332 256 332 256 287 c 0,52,53
 256 244 256 244 273.5 211 c 128,-1,54
 291 178 291 178 320.5 156.5 c 128,-1,55
 350 135 350 135 387 124 c 128,-1,56
 424 113 424 113 463 113 c 0,38,39
686 1368 m 0,57,58
 686 1292 686 1292 634 1241 c 128,-1,59
 582 1190 582 1190 508 1190 c 0,60,61
 471 1190 471 1190 439.5 1203.5 c 128,-1,62
 408 1217 408 1217 384 1241.5 c 128,-1,63
 360 1266 360 1266 347 1298.5 c 128,-1,64
 334 1331 334 1331 334 1368 c 0,65,66
 334 1440 334 1440 385 1491 c 128,-1,67
 436 1542 436 1542 508 1542 c 0,68,69
 545 1542 545 1542 577.5 1529 c 128,-1,70
 610 1516 610 1516 633.5 1492 c 128,-1,71
 657 1468 657 1468 671.5 1436.5 c 128,-1,72
 686 1405 686 1405 686 1368 c 0,57,58
412 1368 m 0,73,74
 412 1325 412 1325 440.5 1298.5 c 128,-1,75
 469 1272 469 1272 508 1272 c 0,76,77
 551 1272 551 1272 577.5 1298.5 c 128,-1,78
 604 1325 604 1325 604 1368 c 0,79,80
 604 1407 604 1407 577.5 1435.5 c 128,-1,81
 551 1464 551 1464 508 1464 c 0,82,83
 469 1464 469 1464 440.5 1435.5 c 128,-1,84
 412 1407 412 1407 412 1368 c 0,73,74
EndSplineSet
EndChar

StartChar: ae
Encoding: 230 230 153
Width: 1691
GlyphClass: 2
Flags: W
LayerCount: 2
Fore
SplineSet
457 -2 m 0,0,1
 391 -2 391 -2 328.5 16.5 c 128,-1,2
 266 35 266 35 217 70.5 c 128,-1,3
 168 106 168 106 138.5 159.5 c 128,-1,4
 109 213 109 213 109 283 c 0,5,6
 109 363 109 363 139.5 409 c 128,-1,7
 170 455 170 455 221 480.5 c 128,-1,8
 272 506 272 506 334.5 515 c 128,-1,9
 397 524 397 524 463 530 c 0,10,11
 543 536 543 536 619.5 549.5 c 128,-1,12
 696 563 696 563 758 610 c 1,13,14
 758 708 758 708 697.5 769.5 c 128,-1,15
 637 831 637 831 516 831 c 0,16,17
 485 831 485 831 449.5 823 c 128,-1,18
 414 815 414 815 383 798.5 c 128,-1,19
 352 782 352 782 328.5 756.5 c 128,-1,20
 305 731 305 731 299 696 c 1,21,-1
 158 696 l 1,22,23
 164 757 164 757 197.5 805.5 c 128,-1,24
 231 854 231 854 282.5 888 c 128,-1,25
 334 922 334 922 395.5 940 c 128,-1,26
 457 958 457 958 516 958 c 0,27,28
 620 958 620 958 698 917.5 c 128,-1,29
 776 877 776 877 834 801 c 1,30,31
 900 877 900 877 987.5 917.5 c 128,-1,32
 1075 958 1075 958 1174 958 c 0,33,34
 1283 958 1283 958 1366.5 917.5 c 128,-1,35
 1450 877 1450 877 1506.5 806 c 128,-1,36
 1563 735 1563 735 1591.5 642 c 128,-1,37
 1620 549 1620 549 1620 446 c 1,38,-1
 864 446 l 1,39,40
 887 303 887 303 968 214 c 128,-1,41
 1049 125 1049 125 1174 125 c 0,42,43
 1260 125 1260 125 1326.5 167 c 128,-1,44
 1393 209 1393 209 1434 287 c 1,45,-1
 1585 287 l 1,46,47
 1534 158 1534 158 1425.5 78 c 128,-1,48
 1317 -2 1317 -2 1174 -2 c 0,49,50
 1063 -2 1063 -2 971 47 c 128,-1,51
 879 96 879 96 811 186 c 1,52,53
 758 125 758 125 708.5 88 c 128,-1,54
 659 51 659 51 614 30.5 c 128,-1,55
 569 10 569 10 530.5 4 c 128,-1,56
 492 -2 492 -2 457 -2 c 0,0,1
457 113 m 0,57,58
 510 113 510 113 560 127 c 128,-1,59
 610 141 610 141 650 169 c 128,-1,60
 690 197 690 197 719 236.5 c 128,-1,61
 748 276 748 276 758 328 c 1,62,-1
 758 508 l 1,63,64
 707 477 707 477 654.5 467 c 128,-1,65
 602 457 602 457 549 449 c 0,66,67
 498 443 498 443 444.5 433.5 c 128,-1,68
 391 424 391 424 347 407.5 c 128,-1,69
 303 391 303 391 275.5 361.5 c 128,-1,70
 248 332 248 332 248 287 c 0,71,72
 248 244 248 244 266.5 211 c 128,-1,73
 285 178 285 178 313.5 156.5 c 128,-1,74
 342 135 342 135 380 124 c 128,-1,75
 418 113 418 113 457 113 c 0,57,58
1174 831 m 256,76,77
 1068 831 1068 831 988.5 759.5 c 128,-1,78
 909 688 909 688 872 571 c 1,79,-1
 1473 571 l 1,80,81
 1436 688 1436 688 1358 759.5 c 128,-1,82
 1280 831 1280 831 1174 831 c 256,76,77
EndSplineSet
EndChar

StartChar: ccedilla
Encoding: 231 231 154
Width: 1081
GlyphClass: 2
Flags: W
LayerCount: 2
Fore
SplineSet
117 477 m 0,0,1
 117 579 117 579 150.5 667.5 c 128,-1,2
 184 756 184 756 243.5 820.5 c 128,-1,3
 303 885 303 885 386 921.5 c 128,-1,4
 469 958 469 958 565 958 c 0,5,6
 635 958 635 958 699.5 935.5 c 128,-1,7
 764 913 764 913 817 873.5 c 128,-1,8
 870 834 870 834 912 780.5 c 128,-1,9
 954 727 954 727 981 666 c 1,10,-1
 829 666 l 1,11,12
 788 742 788 742 720.5 786.5 c 128,-1,13
 653 831 653 831 565 831 c 0,14,15
 497 831 497 831 442 803.5 c 128,-1,16
 387 776 387 776 346 729 c 128,-1,17
 305 682 305 682 282.5 617.5 c 128,-1,18
 260 553 260 553 260 477 c 256,19,20
 260 401 260 401 282.5 336.5 c 128,-1,21
 305 272 305 272 346 225 c 128,-1,22
 387 178 387 178 442.5 151.5 c 128,-1,23
 498 125 498 125 565 125 c 0,24,25
 651 125 651 125 718.5 167 c 128,-1,26
 786 209 786 209 827 287 c 1,27,-1
 979 287 l 1,28,29
 938 176 938 176 851 101.5 c 128,-1,30
 764 27 764 27 641 2 c 1,31,-1
 641 -113 l 1,32,33
 692 -148 692 -148 735 -209 c 128,-1,34
 778 -270 778 -270 778 -336 c 0,35,36
 778 -383 778 -383 758.5 -425 c 128,-1,37
 739 -467 739 -467 705.5 -499.5 c 128,-1,38
 672 -532 672 -532 628 -552.5 c 128,-1,39
 584 -573 584 -573 535 -580 c 1,40,-1
 535 -463 l 1,41,42
 588 -455 588 -455 625 -419 c 128,-1,43
 662 -383 662 -383 662 -336 c 256,44,45
 662 -289 662 -289 625 -252 c 128,-1,46
 588 -215 588 -215 535 -207 c 1,47,-1
 535 -2 l 1,48,49
 443 6 443 6 366 46 c 128,-1,50
 289 86 289 86 233.5 150.5 c 128,-1,51
 178 215 178 215 147.5 298 c 128,-1,52
 117 381 117 381 117 477 c 0,0,1
EndSplineSet
EndChar

StartChar: egrave
Encoding: 232 232 155
Width: 1105
GlyphClass: 2
Flags: W
LayerCount: 2
Fore
SplineSet
565 -2 m 0,0,1
 469 -2 469 -2 386 35 c 128,-1,2
 303 72 303 72 243.5 136.5 c 128,-1,3
 184 201 184 201 150.5 288 c 128,-1,4
 117 375 117 375 117 477 c 256,5,6
 117 579 117 579 150.5 667.5 c 128,-1,7
 184 756 184 756 243.5 820.5 c 128,-1,8
 303 885 303 885 386 921.5 c 128,-1,9
 469 958 469 958 565 958 c 0,10,11
 674 958 674 958 758 917.5 c 128,-1,12
 842 877 842 877 898 806 c 128,-1,13
 954 735 954 735 983 642 c 128,-1,14
 1012 549 1012 549 1012 446 c 1,15,-1
 258 446 l 1,16,17
 278 303 278 303 360 214 c 128,-1,18
 442 125 442 125 565 125 c 0,19,20
 651 125 651 125 717.5 167 c 128,-1,21
 784 209 784 209 825 287 c 1,22,-1
 979 287 l 1,23,24
 926 158 926 158 817 78 c 128,-1,25
 708 -2 708 -2 565 -2 c 0,0,1
565 831 m 256,26,27
 459 831 459 831 381 759.5 c 128,-1,28
 303 688 303 688 266 571 c 1,29,-1
 864 571 l 1,30,31
 827 688 827 688 749 759.5 c 128,-1,32
 671 831 671 831 565 831 c 256,26,27
477 1419 m 1,33,34
 510 1360 510 1360 541.5 1304.5 c 128,-1,35
 573 1249 573 1249 606 1190 c 1,36,-1
 514 1190 l 1,37,38
 473 1247 473 1247 435 1304.5 c 128,-1,39
 397 1362 397 1362 356 1419 c 1,40,-1
 477 1419 l 1,33,34
EndSplineSet
EndChar

StartChar: eacute
Encoding: 233 233 156
Width: 1105
GlyphClass: 2
Flags: W
LayerCount: 2
Fore
SplineSet
565 -2 m 0,0,1
 469 -2 469 -2 386 35 c 128,-1,2
 303 72 303 72 243.5 136.5 c 128,-1,3
 184 201 184 201 150.5 288 c 128,-1,4
 117 375 117 375 117 477 c 256,5,6
 117 579 117 579 150.5 667.5 c 128,-1,7
 184 756 184 756 243.5 820.5 c 128,-1,8
 303 885 303 885 386 921.5 c 128,-1,9
 469 958 469 958 565 958 c 0,10,11
 674 958 674 958 758 917.5 c 128,-1,12
 842 877 842 877 898 806 c 128,-1,13
 954 735 954 735 983 642 c 128,-1,14
 1012 549 1012 549 1012 446 c 1,15,-1
 258 446 l 1,16,17
 278 303 278 303 360 214 c 128,-1,18
 442 125 442 125 565 125 c 0,19,20
 651 125 651 125 717.5 167 c 128,-1,21
 784 209 784 209 825 287 c 1,22,-1
 979 287 l 1,23,24
 926 158 926 158 817 78 c 128,-1,25
 708 -2 708 -2 565 -2 c 0,0,1
565 831 m 256,26,27
 459 831 459 831 381 759.5 c 128,-1,28
 303 688 303 688 266 571 c 1,29,-1
 864 571 l 1,30,31
 827 688 827 688 749 759.5 c 128,-1,32
 671 831 671 831 565 831 c 256,26,27
649 1419 m 1,33,-1
 772 1419 l 1,34,-1
 614 1190 l 1,35,-1
 522 1190 l 1,36,-1
 649 1419 l 1,33,-1
EndSplineSet
EndChar

StartChar: ecircumflex
Encoding: 234 234 157
Width: 1105
GlyphClass: 2
Flags: W
LayerCount: 2
Fore
SplineSet
565 -2 m 0,0,1
 469 -2 469 -2 386 35 c 128,-1,2
 303 72 303 72 243.5 136.5 c 128,-1,3
 184 201 184 201 150.5 288 c 128,-1,4
 117 375 117 375 117 477 c 256,5,6
 117 579 117 579 150.5 667.5 c 128,-1,7
 184 756 184 756 243.5 820.5 c 128,-1,8
 303 885 303 885 386 921.5 c 128,-1,9
 469 958 469 958 565 958 c 0,10,11
 674 958 674 958 758 917.5 c 128,-1,12
 842 877 842 877 898 806 c 128,-1,13
 954 735 954 735 983 642 c 128,-1,14
 1012 549 1012 549 1012 446 c 1,15,-1
 258 446 l 1,16,17
 278 303 278 303 360 214 c 128,-1,18
 442 125 442 125 565 125 c 0,19,20
 651 125 651 125 717.5 167 c 128,-1,21
 784 209 784 209 825 287 c 1,22,-1
 979 287 l 1,23,24
 926 158 926 158 817 78 c 128,-1,25
 708 -2 708 -2 565 -2 c 0,0,1
565 831 m 256,26,27
 459 831 459 831 381 759.5 c 128,-1,28
 303 688 303 688 266 571 c 1,29,-1
 864 571 l 1,30,31
 827 688 827 688 749 759.5 c 128,-1,32
 671 831 671 831 565 831 c 256,26,27
623 1419 m 1,33,34
 668 1360 668 1360 710 1303.5 c 128,-1,35
 752 1247 752 1247 795 1190 c 1,36,-1
 672 1190 l 1,37,-1
 563 1333 l 1,38,-1
 457 1190 l 1,39,-1
 332 1190 l 1,40,41
 383 1253 383 1253 420 1304.5 c 128,-1,42
 457 1356 457 1356 506 1419 c 1,43,-1
 623 1419 l 1,33,34
EndSplineSet
EndChar

StartChar: edieresis
Encoding: 235 235 158
Width: 1105
GlyphClass: 2
Flags: W
LayerCount: 2
Fore
SplineSet
565 -2 m 0,0,1
 469 -2 469 -2 386 35 c 128,-1,2
 303 72 303 72 243.5 136.5 c 128,-1,3
 184 201 184 201 150.5 288 c 128,-1,4
 117 375 117 375 117 477 c 256,5,6
 117 579 117 579 150.5 667.5 c 128,-1,7
 184 756 184 756 243.5 820.5 c 128,-1,8
 303 885 303 885 386 921.5 c 128,-1,9
 469 958 469 958 565 958 c 0,10,11
 674 958 674 958 758 917.5 c 128,-1,12
 842 877 842 877 898 806 c 128,-1,13
 954 735 954 735 983 642 c 128,-1,14
 1012 549 1012 549 1012 446 c 1,15,-1
 258 446 l 1,16,17
 278 303 278 303 360 214 c 128,-1,18
 442 125 442 125 565 125 c 0,19,20
 651 125 651 125 717.5 167 c 128,-1,21
 784 209 784 209 825 287 c 1,22,-1
 979 287 l 1,23,24
 926 158 926 158 817 78 c 128,-1,25
 708 -2 708 -2 565 -2 c 0,0,1
565 831 m 256,26,27
 459 831 459 831 381 759.5 c 128,-1,28
 303 688 303 688 266 571 c 1,29,-1
 864 571 l 1,30,31
 827 688 827 688 749 759.5 c 128,-1,32
 671 831 671 831 565 831 c 256,26,27
244 1419 m 0,33,34
 291 1419 291 1419 321.5 1388.5 c 128,-1,35
 352 1358 352 1358 352 1311 c 0,36,37
 352 1266 352 1266 321.5 1234 c 128,-1,38
 291 1202 291 1202 244 1202 c 0,39,40
 199 1202 199 1202 167 1234 c 128,-1,41
 135 1266 135 1266 135 1311 c 0,42,43
 135 1358 135 1358 167 1388.5 c 128,-1,44
 199 1419 199 1419 244 1419 c 0,33,34
887 1419 m 0,45,46
 932 1419 932 1419 962.5 1388.5 c 128,-1,47
 993 1358 993 1358 993 1311 c 0,48,49
 993 1266 993 1266 962.5 1234 c 128,-1,50
 932 1202 932 1202 887 1202 c 0,51,52
 840 1202 840 1202 808 1234 c 128,-1,53
 776 1266 776 1266 776 1311 c 0,54,55
 776 1358 776 1358 808 1388.5 c 128,-1,56
 840 1419 840 1419 887 1419 c 0,45,46
EndSplineSet
EndChar

StartChar: igrave
Encoding: 236 236 159
Width: 501
GlyphClass: 2
Flags: W
LayerCount: 2
Fore
SplineSet
188 958 m 1,0,-1
 328 958 l 1,1,-1
 328 0 l 1,2,-1
 188 0 l 1,3,-1
 188 958 l 1,0,-1
172 1419 m 1,4,5
 205 1360 205 1360 235.5 1304.5 c 128,-1,6
 266 1249 266 1249 299 1190 c 1,7,-1
 207 1190 l 1,8,9
 166 1247 166 1247 128 1304.5 c 128,-1,10
 90 1362 90 1362 49 1419 c 1,11,-1
 172 1419 l 1,4,5
EndSplineSet
EndChar

StartChar: iacute
Encoding: 237 237 160
Width: 501
GlyphClass: 2
Flags: W
LayerCount: 2
Fore
SplineSet
186 958 m 1,0,-1
 324 958 l 1,1,-1
 324 0 l 1,2,-1
 186 0 l 1,3,-1
 186 958 l 1,0,-1
340 1419 m 1,4,-1
 463 1419 l 1,5,-1
 305 1190 l 1,6,-1
 213 1190 l 1,7,-1
 340 1419 l 1,4,-1
EndSplineSet
EndChar

StartChar: icircumflex
Encoding: 238 238 161
Width: 501
GlyphClass: 2
Flags: W
LayerCount: 2
Fore
SplineSet
186 958 m 1,0,-1
 326 958 l 1,1,-1
 326 0 l 1,2,-1
 186 0 l 1,3,-1
 186 958 l 1,0,-1
315 1419 m 1,4,5
 360 1360 360 1360 401 1303.5 c 128,-1,6
 442 1247 442 1247 487 1190 c 1,7,-1
 365 1190 l 1,8,-1
 256 1333 l 1,9,-1
 147 1190 l 1,10,-1
 25 1190 l 1,11,12
 74 1256 74 1256 112 1306 c 128,-1,13
 150 1356 150 1356 199 1419 c 1,14,-1
 315 1419 l 1,4,5
EndSplineSet
EndChar

StartChar: idieresis
Encoding: 239 239 162
Width: 501
GlyphClass: 2
Flags: W
LayerCount: 2
Fore
SplineSet
186 958 m 1,0,-1
 326 958 l 1,1,-1
 326 0 l 1,2,-1
 186 0 l 1,3,-1
 186 958 l 1,0,-1
-63 1419 m 256,4,5
 -18 1419 -18 1419 12.5 1388.5 c 128,-1,6
 43 1358 43 1358 43 1311 c 0,7,8
 43 1266 43 1266 12.5 1234 c 128,-1,9
 -18 1202 -18 1202 -63 1202 c 256,10,11
 -108 1202 -108 1202 -140 1234 c 128,-1,12
 -172 1266 -172 1266 -172 1311 c 0,13,14
 -172 1358 -172 1358 -140 1388.5 c 128,-1,15
 -108 1419 -108 1419 -63 1419 c 256,4,5
578 1419 m 0,16,17
 625 1419 625 1419 655.5 1388.5 c 128,-1,18
 686 1358 686 1358 686 1311 c 0,19,20
 686 1266 686 1266 655.5 1234 c 128,-1,21
 625 1202 625 1202 578 1202 c 0,22,23
 533 1202 533 1202 501 1234 c 128,-1,24
 469 1266 469 1266 469 1311 c 0,25,26
 469 1358 469 1358 501 1388.5 c 128,-1,27
 533 1419 533 1419 578 1419 c 0,16,17
EndSplineSet
EndChar

StartChar: ntilde
Encoding: 241 241 163
Width: 1126
GlyphClass: 2
Flags: W
LayerCount: 2
Fore
SplineSet
649 958 m 0,0,1
 749 958 749 958 822 920.5 c 128,-1,2
 895 883 895 883 942 816.5 c 128,-1,3
 989 750 989 750 1011.5 662.5 c 128,-1,4
 1034 575 1034 575 1034 477 c 2,5,-1
 1034 0 l 1,6,-1
 891 0 l 1,7,-1
 891 477 l 2,8,9
 891 543 891 543 881.5 606.5 c 128,-1,10
 872 670 872 670 845.5 720 c 128,-1,11
 819 770 819 770 772 800.5 c 128,-1,12
 725 831 725 831 649 831 c 0,13,14
 575 831 575 831 516 800.5 c 128,-1,15
 457 770 457 770 414 720 c 128,-1,16
 371 670 371 670 347.5 606.5 c 128,-1,17
 324 543 324 543 324 477 c 2,18,-1
 324 0 l 1,19,-1
 180 0 l 1,20,-1
 180 958 l 1,21,-1
 303 958 l 1,22,-1
 319 782 l 1,23,24
 385 874 385 874 475 916 c 128,-1,25
 565 958 565 958 649 958 c 0,0,1
745 1300 m 0,26,27
 776 1300 776 1300 796.5 1310.5 c 128,-1,28
 817 1321 817 1321 829.5 1337.5 c 128,-1,29
 842 1354 842 1354 847 1375.5 c 128,-1,30
 852 1397 852 1397 854 1421 c 1,31,-1
 963 1421 l 1,32,33
 959 1319 959 1319 901.5 1256.5 c 128,-1,34
 844 1194 844 1194 764 1190 c 1,35,-1
 766 1190 l 1,36,37
 711 1190 711 1190 664.5 1213.5 c 128,-1,38
 618 1237 618 1237 580 1260 c 0,39,40
 547 1280 547 1280 519.5 1294.5 c 128,-1,41
 492 1309 492 1309 469 1309 c 0,42,43
 406 1309 406 1309 385.5 1273 c 128,-1,44
 365 1237 365 1237 360 1190 c 1,45,-1
 252 1190 l 1,46,47
 254 1241 254 1241 270.5 1283 c 128,-1,48
 287 1325 287 1325 313.5 1354.5 c 128,-1,49
 340 1384 340 1384 375 1401.5 c 128,-1,50
 410 1419 410 1419 451 1421 c 0,51,52
 502 1419 502 1419 548 1395.5 c 128,-1,53
 594 1372 594 1372 633 1348 c 0,54,55
 664 1330 664 1330 692 1315 c 128,-1,56
 720 1300 720 1300 745 1300 c 0,26,27
EndSplineSet
EndChar

StartChar: ograve
Encoding: 242 242 164
Width: 1105
GlyphClass: 2
Flags: W
LayerCount: 2
Fore
SplineSet
565 0 m 0,0,1
 463 0 463 0 381 38 c 128,-1,2
 299 76 299 76 239.5 141.5 c 128,-1,3
 180 207 180 207 148.5 294 c 128,-1,4
 117 381 117 381 117 479 c 256,5,6
 117 577 117 577 148.5 664.5 c 128,-1,7
 180 752 180 752 239.5 818.5 c 128,-1,8
 299 885 299 885 381 923 c 128,-1,9
 463 961 463 961 565 961 c 0,10,11
 665 961 665 961 748 923 c 128,-1,12
 831 885 831 885 890.5 818.5 c 128,-1,13
 950 752 950 752 982 665 c 128,-1,14
 1014 578 1014 578 1014 479 c 256,15,16
 1014 381 1014 381 982 294 c 128,-1,17
 950 207 950 207 890.5 141.5 c 128,-1,18
 831 76 831 76 748 38 c 128,-1,19
 665 0 665 0 565 0 c 0,0,1
565 834 m 256,20,21
 493 834 493 834 436 803 c 128,-1,22
 379 772 379 772 340 722 c 128,-1,23
 301 672 301 672 280.5 608.5 c 128,-1,24
 260 545 260 545 260 479 c 0,25,26
 260 411 260 411 280.5 348 c 128,-1,27
 301 285 301 285 340 235.5 c 128,-1,28
 379 186 379 186 436.5 156.5 c 128,-1,29
 494 127 494 127 565 127 c 256,30,31
 637 127 637 127 694.5 156.5 c 128,-1,32
 752 186 752 186 790.5 235.5 c 128,-1,33
 829 285 829 285 849.5 348.5 c 128,-1,34
 870 412 870 412 870 479 c 0,35,36
 870 545 870 545 849.5 608.5 c 128,-1,37
 829 672 829 672 790.5 722 c 128,-1,38
 752 772 752 772 694.5 803 c 128,-1,39
 637 834 637 834 565 834 c 256,20,21
477 1419 m 1,40,41
 510 1360 510 1360 541.5 1304.5 c 128,-1,42
 573 1249 573 1249 606 1190 c 1,43,-1
 514 1190 l 1,44,45
 473 1247 473 1247 435 1304.5 c 128,-1,46
 397 1362 397 1362 356 1419 c 1,47,-1
 477 1419 l 1,40,41
EndSplineSet
EndChar

StartChar: oacute
Encoding: 243 243 165
Width: 1105
GlyphClass: 2
Flags: W
LayerCount: 2
Fore
SplineSet
565 0 m 0,0,1
 463 0 463 0 381 38 c 128,-1,2
 299 76 299 76 239.5 141.5 c 128,-1,3
 180 207 180 207 148.5 294 c 128,-1,4
 117 381 117 381 117 479 c 256,5,6
 117 577 117 577 148.5 664.5 c 128,-1,7
 180 752 180 752 239.5 818.5 c 128,-1,8
 299 885 299 885 381 923 c 128,-1,9
 463 961 463 961 565 961 c 0,10,11
 665 961 665 961 748 923 c 128,-1,12
 831 885 831 885 890.5 818.5 c 128,-1,13
 950 752 950 752 982 665 c 128,-1,14
 1014 578 1014 578 1014 479 c 256,15,16
 1014 381 1014 381 982 294 c 128,-1,17
 950 207 950 207 890.5 141.5 c 128,-1,18
 831 76 831 76 748 38 c 128,-1,19
 665 0 665 0 565 0 c 0,0,1
565 834 m 256,20,21
 493 834 493 834 436 803 c 128,-1,22
 379 772 379 772 340 722 c 128,-1,23
 301 672 301 672 280.5 608.5 c 128,-1,24
 260 545 260 545 260 479 c 0,25,26
 260 411 260 411 280.5 348 c 128,-1,27
 301 285 301 285 340 235.5 c 128,-1,28
 379 186 379 186 436.5 156.5 c 128,-1,29
 494 127 494 127 565 127 c 256,30,31
 637 127 637 127 694.5 156.5 c 128,-1,32
 752 186 752 186 790.5 235.5 c 128,-1,33
 829 285 829 285 849.5 348.5 c 128,-1,34
 870 412 870 412 870 479 c 0,35,36
 870 545 870 545 849.5 608.5 c 128,-1,37
 829 672 829 672 790.5 722 c 128,-1,38
 752 772 752 772 694.5 803 c 128,-1,39
 637 834 637 834 565 834 c 256,20,21
649 1419 m 1,40,-1
 772 1419 l 1,41,-1
 614 1190 l 1,42,-1
 522 1190 l 1,43,-1
 649 1419 l 1,40,-1
EndSplineSet
EndChar

StartChar: ocircumflex
Encoding: 244 244 166
Width: 1105
GlyphClass: 2
Flags: W
LayerCount: 2
Fore
SplineSet
565 0 m 0,0,1
 463 0 463 0 381 38 c 128,-1,2
 299 76 299 76 239.5 141.5 c 128,-1,3
 180 207 180 207 148.5 294 c 128,-1,4
 117 381 117 381 117 479 c 256,5,6
 117 577 117 577 148.5 664.5 c 128,-1,7
 180 752 180 752 239.5 818.5 c 128,-1,8
 299 885 299 885 381 923 c 128,-1,9
 463 961 463 961 565 961 c 0,10,11
 665 961 665 961 748 923 c 128,-1,12
 831 885 831 885 890.5 818.5 c 128,-1,13
 950 752 950 752 982 665 c 128,-1,14
 1014 578 1014 578 1014 479 c 256,15,16
 1014 381 1014 381 982 294 c 128,-1,17
 950 207 950 207 890.5 141.5 c 128,-1,18
 831 76 831 76 748 38 c 128,-1,19
 665 0 665 0 565 0 c 0,0,1
565 834 m 256,20,21
 493 834 493 834 436 803 c 128,-1,22
 379 772 379 772 340 722 c 128,-1,23
 301 672 301 672 280.5 608.5 c 128,-1,24
 260 545 260 545 260 479 c 0,25,26
 260 411 260 411 280.5 348 c 128,-1,27
 301 285 301 285 340 235.5 c 128,-1,28
 379 186 379 186 436.5 156.5 c 128,-1,29
 494 127 494 127 565 127 c 256,30,31
 637 127 637 127 694.5 156.5 c 128,-1,32
 752 186 752 186 790.5 235.5 c 128,-1,33
 829 285 829 285 849.5 348.5 c 128,-1,34
 870 412 870 412 870 479 c 0,35,36
 870 545 870 545 849.5 608.5 c 128,-1,37
 829 672 829 672 790.5 722 c 128,-1,38
 752 772 752 772 694.5 803 c 128,-1,39
 637 834 637 834 565 834 c 256,20,21
623 1419 m 1,40,41
 668 1360 668 1360 710 1303.5 c 128,-1,42
 752 1247 752 1247 795 1190 c 1,43,-1
 672 1190 l 1,44,-1
 563 1333 l 1,45,-1
 457 1190 l 1,46,-1
 332 1190 l 1,47,48
 383 1253 383 1253 420 1304.5 c 128,-1,49
 457 1356 457 1356 506 1419 c 1,50,-1
 623 1419 l 1,40,41
EndSplineSet
EndChar

StartChar: otilde
Encoding: 245 245 167
Width: 1105
GlyphClass: 2
Flags: W
LayerCount: 2
Fore
SplineSet
565 0 m 0,0,1
 463 0 463 0 381 38 c 128,-1,2
 299 76 299 76 239.5 141.5 c 128,-1,3
 180 207 180 207 148.5 294 c 128,-1,4
 117 381 117 381 117 479 c 256,5,6
 117 577 117 577 148.5 664.5 c 128,-1,7
 180 752 180 752 239.5 818.5 c 128,-1,8
 299 885 299 885 381 923 c 128,-1,9
 463 961 463 961 565 961 c 0,10,11
 665 961 665 961 748 923 c 128,-1,12
 831 885 831 885 890.5 818.5 c 128,-1,13
 950 752 950 752 982 665 c 128,-1,14
 1014 578 1014 578 1014 479 c 256,15,16
 1014 381 1014 381 982 294 c 128,-1,17
 950 207 950 207 890.5 141.5 c 128,-1,18
 831 76 831 76 748 38 c 128,-1,19
 665 0 665 0 565 0 c 0,0,1
565 834 m 256,20,21
 493 834 493 834 436 803 c 128,-1,22
 379 772 379 772 340 722 c 128,-1,23
 301 672 301 672 280.5 608.5 c 128,-1,24
 260 545 260 545 260 479 c 0,25,26
 260 411 260 411 280.5 348 c 128,-1,27
 301 285 301 285 340 235.5 c 128,-1,28
 379 186 379 186 436.5 156.5 c 128,-1,29
 494 127 494 127 565 127 c 256,30,31
 637 127 637 127 694.5 156.5 c 128,-1,32
 752 186 752 186 790.5 235.5 c 128,-1,33
 829 285 829 285 849.5 348.5 c 128,-1,34
 870 412 870 412 870 479 c 0,35,36
 870 545 870 545 849.5 608.5 c 128,-1,37
 829 672 829 672 790.5 722 c 128,-1,38
 752 772 752 772 694.5 803 c 128,-1,39
 637 834 637 834 565 834 c 256,20,21
705 1300 m 0,40,41
 736 1300 736 1300 756 1310.5 c 128,-1,42
 776 1321 776 1321 787.5 1337.5 c 128,-1,43
 799 1354 799 1354 804 1375.5 c 128,-1,44
 809 1397 809 1397 811 1421 c 1,45,-1
 920 1421 l 1,46,47
 916 1317 916 1317 859.5 1255.5 c 128,-1,48
 803 1194 803 1194 721 1190 c 1,49,-1
 723 1190 l 1,50,51
 670 1190 670 1190 624 1213.5 c 128,-1,52
 578 1237 578 1237 537 1260 c 0,53,54
 506 1280 506 1280 477.5 1294.5 c 128,-1,55
 449 1309 449 1309 426 1309 c 0,56,57
 363 1309 363 1309 343.5 1273 c 128,-1,58
 324 1237 324 1237 319 1190 c 1,59,-1
 211 1190 l 1,60,61
 213 1241 213 1241 229.5 1283 c 128,-1,62
 246 1325 246 1325 272.5 1354.5 c 128,-1,63
 299 1384 299 1384 334 1401.5 c 128,-1,64
 369 1419 369 1419 410 1421 c 0,65,66
 459 1419 459 1419 505 1395.5 c 128,-1,67
 551 1372 551 1372 592 1348 c 0,68,69
 621 1330 621 1330 649.5 1315 c 128,-1,70
 678 1300 678 1300 705 1300 c 0,40,41
EndSplineSet
EndChar

StartChar: odieresis
Encoding: 246 246 168
Width: 1105
GlyphClass: 2
Flags: W
LayerCount: 2
Fore
SplineSet
565 0 m 0,0,1
 463 0 463 0 381 38 c 128,-1,2
 299 76 299 76 239.5 141.5 c 128,-1,3
 180 207 180 207 148.5 294 c 128,-1,4
 117 381 117 381 117 479 c 256,5,6
 117 577 117 577 148.5 664.5 c 128,-1,7
 180 752 180 752 239.5 818.5 c 128,-1,8
 299 885 299 885 381 923 c 128,-1,9
 463 961 463 961 565 961 c 0,10,11
 665 961 665 961 748 923 c 128,-1,12
 831 885 831 885 890.5 818.5 c 128,-1,13
 950 752 950 752 982 665 c 128,-1,14
 1014 578 1014 578 1014 479 c 256,15,16
 1014 381 1014 381 982 294 c 128,-1,17
 950 207 950 207 890.5 141.5 c 128,-1,18
 831 76 831 76 748 38 c 128,-1,19
 665 0 665 0 565 0 c 0,0,1
565 834 m 256,20,21
 493 834 493 834 436 803 c 128,-1,22
 379 772 379 772 340 722 c 128,-1,23
 301 672 301 672 280.5 608.5 c 128,-1,24
 260 545 260 545 260 479 c 0,25,26
 260 411 260 411 280.5 348 c 128,-1,27
 301 285 301 285 340 235.5 c 128,-1,28
 379 186 379 186 436.5 156.5 c 128,-1,29
 494 127 494 127 565 127 c 256,30,31
 637 127 637 127 694.5 156.5 c 128,-1,32
 752 186 752 186 790.5 235.5 c 128,-1,33
 829 285 829 285 849.5 348.5 c 128,-1,34
 870 412 870 412 870 479 c 0,35,36
 870 545 870 545 849.5 608.5 c 128,-1,37
 829 672 829 672 790.5 722 c 128,-1,38
 752 772 752 772 694.5 803 c 128,-1,39
 637 834 637 834 565 834 c 256,20,21
244 1419 m 0,40,41
 291 1419 291 1419 321.5 1388.5 c 128,-1,42
 352 1358 352 1358 352 1311 c 0,43,44
 352 1266 352 1266 321.5 1234 c 128,-1,45
 291 1202 291 1202 244 1202 c 0,46,47
 199 1202 199 1202 167 1234 c 128,-1,48
 135 1266 135 1266 135 1311 c 0,49,50
 135 1358 135 1358 167 1388.5 c 128,-1,51
 199 1419 199 1419 244 1419 c 0,40,41
887 1419 m 0,52,53
 932 1419 932 1419 962.5 1388.5 c 128,-1,54
 993 1358 993 1358 993 1311 c 0,55,56
 993 1266 993 1266 962.5 1234 c 128,-1,57
 932 1202 932 1202 887 1202 c 0,58,59
 840 1202 840 1202 808 1234 c 128,-1,60
 776 1266 776 1266 776 1311 c 0,61,62
 776 1358 776 1358 808 1388.5 c 128,-1,63
 840 1419 840 1419 887 1419 c 0,52,53
EndSplineSet
EndChar

StartChar: divide
Encoding: 247 247 169
Width: 452
GlyphClass: 2
Flags: W
LayerCount: 2
Fore
SplineSet
231 213 m 0,0,1
 274 213 274 213 305 182.5 c 128,-1,2
 336 152 336 152 336 106 c 0,3,4
 336 63 336 63 305 31.5 c 128,-1,5
 274 0 274 0 231 0 c 0,6,7
 186 0 186 0 154.5 31.5 c 128,-1,8
 123 63 123 63 123 106 c 0,9,10
 123 151 123 151 154.5 182 c 128,-1,11
 186 213 186 213 231 213 c 0,0,1
231 944 m 0,12,13
 274 944 274 944 305 913.5 c 128,-1,14
 336 883 336 883 336 840 c 0,15,16
 336 795 336 795 305 763 c 128,-1,17
 274 731 274 731 231 731 c 0,18,19
 186 731 186 731 154.5 763 c 128,-1,20
 123 795 123 795 123 840 c 0,21,22
 123 883 123 883 154.5 913.5 c 128,-1,23
 186 944 186 944 231 944 c 0,12,13
608 553 m 1,24,-1
 608 412 l 1,25,-1
 -150 412 l 1,26,-1
 -150 553 l 1,27,-1
 608 553 l 1,24,-1
EndSplineSet
EndChar

StartChar: oslash
Encoding: 248 248 170
Width: 1105
GlyphClass: 2
Flags: W
LayerCount: 2
Fore
SplineSet
821 1014 m 1,0,-1
 782 905 l 1,1,2
 893 837 893 837 953.5 725.5 c 128,-1,3
 1014 614 1014 614 1014 479 c 0,4,5
 1014 381 1014 381 982 294 c 128,-1,6
 950 207 950 207 890.5 141.5 c 128,-1,7
 831 76 831 76 748.5 38 c 128,-1,8
 666 0 666 0 565 0 c 0,9,10
 520 0 520 0 453 12 c 1,11,-1
 414 -92 l 1,12,13
 385 -82 385 -82 360.5 -70.5 c 128,-1,14
 336 -59 336 -59 311 -49 c 1,15,-1
 346 55 l 1,16,17
 235 123 235 123 176 233.5 c 128,-1,18
 117 344 117 344 117 479 c 0,19,20
 117 577 117 577 148.5 664.5 c 128,-1,21
 180 752 180 752 239.5 818.5 c 128,-1,22
 299 885 299 885 381 923 c 128,-1,23
 463 961 463 961 565 961 c 0,24,25
 588 961 588 961 614.5 956.5 c 128,-1,26
 641 952 641 952 676 946 c 1,27,-1
 717 1055 l 1,28,-1
 821 1014 l 1,0,-1
565 127 m 0,29,30
 637 127 637 127 694.5 156.5 c 128,-1,31
 752 186 752 186 790.5 235.5 c 128,-1,32
 829 285 829 285 849.5 348.5 c 128,-1,33
 870 412 870 412 870 479 c 0,34,35
 870 557 870 557 835.5 635 c 128,-1,36
 801 713 801 713 735 778 c 1,37,-1
 498 133 l 1,38,39
 533 129 533 129 544 128 c 128,-1,40
 555 127 555 127 565 127 c 0,29,30
565 834 m 0,41,42
 493 834 493 834 436 803 c 128,-1,43
 379 772 379 772 340 722 c 128,-1,44
 301 672 301 672 280.5 608.5 c 128,-1,45
 260 545 260 545 260 479 c 0,46,47
 260 401 260 401 294 323.5 c 128,-1,48
 328 246 328 246 393 180 c 1,49,-1
 633 829 l 1,50,51
 629 829 629 829 615.5 830 c 128,-1,52
 602 831 602 831 598 831 c 0,53,54
 592 833 592 833 582.5 833.5 c 128,-1,55
 573 834 573 834 565 834 c 0,41,42
EndSplineSet
EndChar

StartChar: ugrave
Encoding: 249 249 171
Width: 1126
GlyphClass: 2
Flags: W
LayerCount: 2
Fore
SplineSet
502 0 m 0,0,1
 402 0 402 0 329 38 c 128,-1,2
 256 76 256 76 209 142.5 c 128,-1,3
 162 209 162 209 139.5 296 c 128,-1,4
 117 383 117 383 117 481 c 2,5,-1
 117 958 l 1,6,-1
 260 958 l 1,7,-1
 260 481 l 2,8,9
 260 415 260 415 270.5 352 c 128,-1,10
 281 289 281 289 307.5 238.5 c 128,-1,11
 334 188 334 188 381 157.5 c 128,-1,12
 428 127 428 127 502 127 c 256,13,14
 576 127 576 127 636 157.5 c 128,-1,15
 696 188 696 188 739 238.5 c 128,-1,16
 782 289 782 289 805.5 352.5 c 128,-1,17
 829 416 829 416 829 481 c 2,18,-1
 829 958 l 1,19,-1
 973 958 l 1,20,-1
 973 0 l 1,21,-1
 848 0 l 1,22,-1
 831 176 l 1,23,24
 765 84 765 84 675.5 42 c 128,-1,25
 586 0 586 0 502 0 c 0,0,1
457 1419 m 1,26,27
 490 1360 490 1360 521.5 1304.5 c 128,-1,28
 553 1249 553 1249 586 1190 c 1,29,-1
 494 1190 l 1,30,31
 453 1247 453 1247 414 1304.5 c 128,-1,32
 375 1362 375 1362 334 1419 c 1,33,-1
 457 1419 l 1,26,27
EndSplineSet
EndChar

StartChar: uacute
Encoding: 250 250 172
Width: 1126
GlyphClass: 2
Flags: W
LayerCount: 2
Fore
SplineSet
502 0 m 0,0,1
 402 0 402 0 329 38 c 128,-1,2
 256 76 256 76 209 142.5 c 128,-1,3
 162 209 162 209 139.5 296 c 128,-1,4
 117 383 117 383 117 481 c 2,5,-1
 117 958 l 1,6,-1
 260 958 l 1,7,-1
 260 481 l 2,8,9
 260 415 260 415 270.5 352 c 128,-1,10
 281 289 281 289 307.5 238.5 c 128,-1,11
 334 188 334 188 381 157.5 c 128,-1,12
 428 127 428 127 502 127 c 256,13,14
 576 127 576 127 636 157.5 c 128,-1,15
 696 188 696 188 739 238.5 c 128,-1,16
 782 289 782 289 805.5 352.5 c 128,-1,17
 829 416 829 416 829 481 c 2,18,-1
 829 958 l 1,19,-1
 973 958 l 1,20,-1
 973 0 l 1,21,-1
 848 0 l 1,22,-1
 831 176 l 1,23,24
 765 84 765 84 675.5 42 c 128,-1,25
 586 0 586 0 502 0 c 0,0,1
629 1419 m 1,26,-1
 752 1419 l 1,27,-1
 594 1190 l 1,28,-1
 502 1190 l 1,29,-1
 629 1419 l 1,26,-1
EndSplineSet
EndChar

StartChar: ucircumflex
Encoding: 251 251 173
Width: 1126
GlyphClass: 2
Flags: W
LayerCount: 2
Fore
SplineSet
502 0 m 0,0,1
 402 0 402 0 329 38 c 128,-1,2
 256 76 256 76 209 142.5 c 128,-1,3
 162 209 162 209 139.5 296 c 128,-1,4
 117 383 117 383 117 481 c 2,5,-1
 117 958 l 1,6,-1
 260 958 l 1,7,-1
 260 481 l 2,8,9
 260 415 260 415 270.5 352 c 128,-1,10
 281 289 281 289 307.5 238.5 c 128,-1,11
 334 188 334 188 381 157.5 c 128,-1,12
 428 127 428 127 502 127 c 256,13,14
 576 127 576 127 636 157.5 c 128,-1,15
 696 188 696 188 739 238.5 c 128,-1,16
 782 289 782 289 805.5 352.5 c 128,-1,17
 829 416 829 416 829 481 c 2,18,-1
 829 958 l 1,19,-1
 973 958 l 1,20,-1
 973 0 l 1,21,-1
 848 0 l 1,22,-1
 831 176 l 1,23,24
 765 84 765 84 675.5 42 c 128,-1,25
 586 0 586 0 502 0 c 0,0,1
602 1419 m 1,26,27
 647 1360 647 1360 688 1303.5 c 128,-1,28
 729 1247 729 1247 774 1190 c 1,29,-1
 651 1190 l 1,30,-1
 543 1333 l 1,31,-1
 436 1190 l 1,32,-1
 311 1190 l 1,33,34
 360 1256 360 1256 398 1306 c 128,-1,35
 436 1356 436 1356 485 1419 c 1,36,-1
 602 1419 l 1,26,27
EndSplineSet
EndChar

StartChar: udieresis
Encoding: 252 252 174
Width: 1126
GlyphClass: 2
Flags: W
LayerCount: 2
Fore
SplineSet
502 0 m 0,0,1
 402 0 402 0 329 38 c 128,-1,2
 256 76 256 76 209 142.5 c 128,-1,3
 162 209 162 209 139.5 296 c 128,-1,4
 117 383 117 383 117 481 c 2,5,-1
 117 958 l 1,6,-1
 260 958 l 1,7,-1
 260 481 l 2,8,9
 260 415 260 415 270.5 352 c 128,-1,10
 281 289 281 289 307.5 238.5 c 128,-1,11
 334 188 334 188 381 157.5 c 128,-1,12
 428 127 428 127 502 127 c 256,13,14
 576 127 576 127 636 157.5 c 128,-1,15
 696 188 696 188 739 238.5 c 128,-1,16
 782 289 782 289 805.5 352.5 c 128,-1,17
 829 416 829 416 829 481 c 2,18,-1
 829 958 l 1,19,-1
 973 958 l 1,20,-1
 973 0 l 1,21,-1
 848 0 l 1,22,-1
 831 176 l 1,23,24
 765 84 765 84 675.5 42 c 128,-1,25
 586 0 586 0 502 0 c 0,0,1
225 1419 m 256,26,27
 270 1419 270 1419 301 1388.5 c 128,-1,28
 332 1358 332 1358 332 1311 c 0,29,30
 332 1266 332 1266 301 1234 c 128,-1,31
 270 1202 270 1202 225 1202 c 256,32,33
 180 1202 180 1202 148.5 1234 c 128,-1,34
 117 1266 117 1266 117 1311 c 0,35,36
 117 1358 117 1358 148.5 1388.5 c 128,-1,37
 180 1419 180 1419 225 1419 c 256,26,27
868 1419 m 0,38,39
 913 1419 913 1419 944 1388.5 c 128,-1,40
 975 1358 975 1358 975 1311 c 0,41,42
 975 1266 975 1266 944 1234 c 128,-1,43
 913 1202 913 1202 868 1202 c 0,44,45
 821 1202 821 1202 789.5 1234 c 128,-1,46
 758 1266 758 1266 758 1311 c 0,47,48
 758 1358 758 1358 789.5 1388.5 c 128,-1,49
 821 1419 821 1419 868 1419 c 0,38,39
EndSplineSet
EndChar

StartChar: yacute
Encoding: 253 253 175
Width: 1087
GlyphClass: 2
Flags: W
LayerCount: 2
Fore
SplineSet
821 958 m 1,0,-1
 987 958 l 1,1,2
 930 804 930 804 889 673.5 c 128,-1,3
 848 543 848 543 805 399 c 0,4,5
 760 247 760 247 705.5 77.5 c 128,-1,6
 651 -92 651 -92 592 -250 c 0,7,8
 557 -334 557 -334 491.5 -384 c 128,-1,9
 426 -434 426 -434 334 -434 c 0,10,11
 311 -434 311 -434 283.5 -429 c 128,-1,12
 256 -424 256 -424 233 -418 c 1,13,-1
 233 -291 l 1,14,15
 266 -297 266 -297 301 -297 c 0,16,17
 346 -297 346 -297 376 -284.5 c 128,-1,18
 406 -272 406 -272 424 -250.5 c 128,-1,19
 442 -229 442 -229 453.5 -199.5 c 128,-1,20
 465 -170 465 -170 475 -137 c 1,21,-1
 473 -137 l 1,22,-1
 489 -90 l 1,23,-1
 125 958 l 1,24,-1
 291 958 l 1,25,-1
 578 94 l 1,26,-1
 821 958 l 1,0,-1
641 1419 m 1,27,-1
 764 1419 l 1,28,-1
 606 1190 l 1,29,-1
 514 1190 l 1,30,-1
 641 1419 l 1,27,-1
EndSplineSet
EndChar

StartChar: ydieresis
Encoding: 255 255 176
Width: 1087
GlyphClass: 2
Flags: W
LayerCount: 2
Fore
SplineSet
821 958 m 1,0,-1
 987 958 l 1,1,2
 930 804 930 804 889 673.5 c 128,-1,3
 848 543 848 543 805 399 c 0,4,5
 760 247 760 247 705.5 77.5 c 128,-1,6
 651 -92 651 -92 592 -250 c 0,7,8
 557 -334 557 -334 491.5 -384 c 128,-1,9
 426 -434 426 -434 334 -434 c 0,10,11
 311 -434 311 -434 283.5 -429 c 128,-1,12
 256 -424 256 -424 233 -418 c 1,13,-1
 233 -291 l 1,14,15
 266 -297 266 -297 301 -297 c 0,16,17
 346 -297 346 -297 376 -284.5 c 128,-1,18
 406 -272 406 -272 424 -250.5 c 128,-1,19
 442 -229 442 -229 453.5 -199.5 c 128,-1,20
 465 -170 465 -170 475 -137 c 1,21,-1
 473 -137 l 1,22,-1
 489 -90 l 1,23,-1
 125 958 l 1,24,-1
 291 958 l 1,25,-1
 578 94 l 1,26,-1
 821 958 l 1,0,-1
879 1419 m 0,27,28
 924 1419 924 1419 954.5 1388.5 c 128,-1,29
 985 1358 985 1358 985 1311 c 0,30,31
 985 1266 985 1266 954.5 1234 c 128,-1,32
 924 1202 924 1202 879 1202 c 0,33,34
 832 1202 832 1202 800 1234 c 128,-1,35
 768 1266 768 1266 768 1311 c 0,36,37
 768 1358 768 1358 800 1388.5 c 128,-1,38
 832 1419 832 1419 879 1419 c 0,27,28
236 1419 m 0,39,40
 283 1419 283 1419 312.5 1388.5 c 128,-1,41
 342 1358 342 1358 342 1311 c 0,42,43
 342 1266 342 1266 312.5 1234 c 128,-1,44
 283 1202 283 1202 236 1202 c 0,45,46
 191 1202 191 1202 159 1234 c 128,-1,47
 127 1266 127 1266 127 1311 c 0,48,49
 127 1358 127 1358 159 1388.5 c 128,-1,50
 191 1419 191 1419 236 1419 c 0,39,40
EndSplineSet
EndChar

StartChar: Amacron
Encoding: 256 256 177
Width: 1241
GlyphClass: 2
Flags: W
LayerCount: 2
Fore
SplineSet
879 414 m 1,0,-1
 381 414 l 1,1,2
 352 314 352 314 321.5 207 c 128,-1,3
 291 100 291 100 260 0 c 1,4,-1
 125 0 l 1,5,-1
 545 1456 l 1,6,-1
 713 1456 l 1,7,-1
 1133 0 l 1,8,-1
 995 0 l 1,9,-1
 879 414 l 1,0,-1
629 1270 m 1,10,-1
 422 555 l 1,11,-1
 836 555 l 1,12,-1
 629 1270 l 1,10,-1
365 1782 m 1,13,-1
 895 1782 l 1,14,-1
 895 1683 l 1,15,-1
 365 1683 l 1,16,-1
 365 1782 l 1,13,-1
EndSplineSet
EndChar

StartChar: amacron
Encoding: 257 257 178
Width: 997
GlyphClass: 2
Flags: W
LayerCount: 2
Fore
SplineSet
524 958 m 0,0,1
 612 958 612 958 683 929.5 c 128,-1,2
 754 901 754 901 803 850 c 128,-1,3
 852 799 852 799 877.5 726 c 128,-1,4
 903 653 903 653 903 565 c 2,5,-1
 903 -2 l 1,6,-1
 778 -2 l 1,7,-1
 764 113 l 1,8,9
 690 60 690 60 612.5 29 c 128,-1,10
 535 -2 535 -2 463 -2 c 0,11,12
 400 -2 400 -2 337 16.5 c 128,-1,13
 274 35 274 35 225 70.5 c 128,-1,14
 176 106 176 106 146.5 159.5 c 128,-1,15
 117 213 117 213 117 283 c 0,16,17
 117 363 117 363 147.5 409 c 128,-1,18
 178 455 178 455 229.5 480.5 c 128,-1,19
 281 506 281 506 343.5 515 c 128,-1,20
 406 524 406 524 471 530 c 0,21,22
 551 536 551 536 628 549.5 c 128,-1,23
 705 563 705 563 766 610 c 1,24,25
 766 708 766 708 705.5 769.5 c 128,-1,26
 645 831 645 831 524 831 c 0,27,28
 493 831 493 831 457.5 823 c 128,-1,29
 422 815 422 815 391 798.5 c 128,-1,30
 360 782 360 782 336.5 756.5 c 128,-1,31
 313 731 313 731 307 696 c 1,32,-1
 166 696 l 1,33,34
 172 757 172 757 206 805.5 c 128,-1,35
 240 854 240 854 291 888 c 128,-1,36
 342 922 342 922 402.5 940 c 128,-1,37
 463 958 463 958 524 958 c 0,0,1
463 113 m 0,38,39
 516 113 516 113 566 127 c 128,-1,40
 616 141 616 141 657 169 c 128,-1,41
 698 197 698 197 727 236.5 c 128,-1,42
 756 276 756 276 766 328 c 1,43,-1
 766 508 l 1,44,45
 713 477 713 477 660.5 467 c 128,-1,46
 608 457 608 457 555 449 c 0,47,48
 504 443 504 443 450.5 433.5 c 128,-1,49
 397 424 397 424 354 407.5 c 128,-1,50
 311 391 311 391 283.5 361.5 c 128,-1,51
 256 332 256 332 256 287 c 0,52,53
 256 244 256 244 273.5 211 c 128,-1,54
 291 178 291 178 320.5 156.5 c 128,-1,55
 350 135 350 135 387 124 c 128,-1,56
 424 113 424 113 463 113 c 0,38,39
240 1290 m 1,57,-1
 778 1290 l 1,58,-1
 778 1190 l 1,59,-1
 240 1190 l 1,60,-1
 240 1290 l 1,57,-1
EndSplineSet
EndChar

StartChar: Abreve
Encoding: 258 258 179
Width: 1241
GlyphClass: 2
Flags: W
LayerCount: 2
Fore
SplineSet
879 414 m 1,0,-1
 381 414 l 1,1,2
 352 314 352 314 321.5 207 c 128,-1,3
 291 100 291 100 260 0 c 1,4,-1
 125 0 l 1,5,-1
 545 1456 l 1,6,-1
 713 1456 l 1,7,-1
 1133 0 l 1,8,-1
 995 0 l 1,9,-1
 879 414 l 1,0,-1
629 1270 m 1,10,-1
 422 555 l 1,11,-1
 836 555 l 1,12,-1
 629 1270 l 1,10,-1
858 1911 m 1,13,14
 852 1868 852 1868 831.5 1831 c 128,-1,15
 811 1794 811 1794 780.5 1765.5 c 128,-1,16
 750 1737 750 1737 711 1720.5 c 128,-1,17
 672 1704 672 1704 629 1704 c 256,18,19
 586 1704 586 1704 547 1720.5 c 128,-1,20
 508 1737 508 1737 477 1765.5 c 128,-1,21
 446 1794 446 1794 427 1831 c 128,-1,22
 408 1868 408 1868 401 1911 c 1,23,-1
 479 1911 l 1,24,25
 485 1852 485 1852 529 1817 c 128,-1,26
 573 1782 573 1782 629 1782 c 256,27,28
 684 1782 684 1782 727 1816.5 c 128,-1,29
 770 1851 770 1851 776 1911 c 1,30,-1
 858 1911 l 1,13,14
EndSplineSet
EndChar

StartChar: abreve
Encoding: 259 259 180
Width: 997
GlyphClass: 2
Flags: W
LayerCount: 2
Fore
SplineSet
524 958 m 0,0,1
 612 958 612 958 683 929.5 c 128,-1,2
 754 901 754 901 803 850 c 128,-1,3
 852 799 852 799 877.5 726 c 128,-1,4
 903 653 903 653 903 565 c 2,5,-1
 903 -2 l 1,6,-1
 778 -2 l 1,7,-1
 764 113 l 1,8,9
 690 60 690 60 612.5 29 c 128,-1,10
 535 -2 535 -2 463 -2 c 0,11,12
 400 -2 400 -2 337 16.5 c 128,-1,13
 274 35 274 35 225 70.5 c 128,-1,14
 176 106 176 106 146.5 159.5 c 128,-1,15
 117 213 117 213 117 283 c 0,16,17
 117 363 117 363 147.5 409 c 128,-1,18
 178 455 178 455 229.5 480.5 c 128,-1,19
 281 506 281 506 343.5 515 c 128,-1,20
 406 524 406 524 471 530 c 0,21,22
 551 536 551 536 628 549.5 c 128,-1,23
 705 563 705 563 766 610 c 1,24,25
 766 708 766 708 705.5 769.5 c 128,-1,26
 645 831 645 831 524 831 c 0,27,28
 493 831 493 831 457.5 823 c 128,-1,29
 422 815 422 815 391 798.5 c 128,-1,30
 360 782 360 782 336.5 756.5 c 128,-1,31
 313 731 313 731 307 696 c 1,32,-1
 166 696 l 1,33,34
 172 757 172 757 206 805.5 c 128,-1,35
 240 854 240 854 291 888 c 128,-1,36
 342 922 342 922 402.5 940 c 128,-1,37
 463 958 463 958 524 958 c 0,0,1
463 113 m 0,38,39
 516 113 516 113 566 127 c 128,-1,40
 616 141 616 141 657 169 c 128,-1,41
 698 197 698 197 727 236.5 c 128,-1,42
 756 276 756 276 766 328 c 1,43,-1
 766 508 l 1,44,45
 713 477 713 477 660.5 467 c 128,-1,46
 608 457 608 457 555 449 c 0,47,48
 504 443 504 443 450.5 433.5 c 128,-1,49
 397 424 397 424 354 407.5 c 128,-1,50
 311 391 311 391 283.5 361.5 c 128,-1,51
 256 332 256 332 256 287 c 0,52,53
 256 244 256 244 273.5 211 c 128,-1,54
 291 178 291 178 320.5 156.5 c 128,-1,55
 350 135 350 135 387 124 c 128,-1,56
 424 113 424 113 463 113 c 0,38,39
739 1421 m 1,57,58
 733 1378 733 1378 713.5 1339 c 128,-1,59
 694 1300 694 1300 663.5 1271.5 c 128,-1,60
 633 1243 633 1243 593 1226.5 c 128,-1,61
 553 1210 553 1210 508 1210 c 0,62,63
 465 1210 465 1210 425 1226.5 c 128,-1,64
 385 1243 385 1243 354.5 1271.5 c 128,-1,65
 324 1300 324 1300 304.5 1339 c 128,-1,66
 285 1378 285 1378 279 1421 c 1,67,-1
 356 1421 l 1,68,69
 362 1362 362 1362 407.5 1326 c 128,-1,70
 453 1290 453 1290 508 1290 c 0,71,72
 565 1290 565 1290 608 1326 c 128,-1,73
 651 1362 651 1362 659 1421 c 1,74,-1
 739 1421 l 1,57,58
EndSplineSet
EndChar

StartChar: Aogonek
Encoding: 260 260 181
Width: 1241
GlyphClass: 2
Flags: W
LayerCount: 2
Fore
SplineSet
1149 0 m 2,0,1
 1145 0 1145 0 1141 -1 c 128,-1,2
 1137 -2 1137 -2 1133 -2 c 1,3,-1
 1141 -27 l 1,4,-1
 1163 0 l 1,5,-1
 1149 0 l 2,0,1
879 414 m 1,6,-1
 381 414 l 1,7,8
 352 314 352 314 321.5 207 c 128,-1,9
 291 100 291 100 260 0 c 1,10,-1
 125 0 l 1,11,-1
 545 1456 l 1,12,-1
 711 1456 l 1,13,-1
 1133 -2 l 1,14,15
 1080 -12 1080 -12 1047 -53 c 128,-1,16
 1014 -94 1014 -94 1014 -150 c 0,17,18
 1014 -207 1014 -207 1047.5 -249 c 128,-1,19
 1081 -291 1081 -291 1141 -297 c 1,20,-1
 1141 -377 l 1,21,22
 1098 -371 1098 -371 1061 -351.5 c 128,-1,23
 1024 -332 1024 -332 995.5 -301 c 128,-1,24
 967 -270 967 -270 950.5 -231.5 c 128,-1,25
 934 -193 934 -193 934 -150 c 0,26,27
 934 -72 934 -72 995 2 c 1,28,-1
 879 414 l 1,6,-1
629 1270 m 1,29,-1
 420 555 l 1,30,-1
 836 555 l 1,31,-1
 629 1270 l 1,29,-1
EndSplineSet
EndChar

StartChar: aogonek
Encoding: 261 261 182
Width: 997
GlyphClass: 2
Flags: W
LayerCount: 2
Fore
SplineSet
524 958 m 0,0,1
 612 958 612 958 683 929.5 c 128,-1,2
 754 901 754 901 803 850 c 128,-1,3
 852 799 852 799 877.5 726 c 128,-1,4
 903 653 903 653 903 565 c 2,5,-1
 903 -2 l 1,6,-1
 899 -2 l 1,7,8
 844 -12 844 -12 808 -53 c 128,-1,9
 772 -94 772 -94 772 -152 c 0,10,11
 772 -211 772 -211 808 -253 c 128,-1,12
 844 -295 844 -295 903 -301 c 1,13,-1
 903 -383 l 1,14,15
 860 -377 860 -377 821 -357.5 c 128,-1,16
 782 -338 782 -338 753.5 -307 c 128,-1,17
 725 -276 725 -276 708.5 -236.5 c 128,-1,18
 692 -197 692 -197 692 -152 c 0,19,20
 692 -101 692 -101 714.5 -54.5 c 128,-1,21
 737 -8 737 -8 774 27 c 1,22,-1
 770 115 l 1,23,24
 694 62 694 62 614.5 30 c 128,-1,25
 535 -2 535 -2 463 -2 c 0,26,27
 400 -2 400 -2 337 16.5 c 128,-1,28
 274 35 274 35 225 70.5 c 128,-1,29
 176 106 176 106 146.5 159.5 c 128,-1,30
 117 213 117 213 117 283 c 0,31,32
 117 363 117 363 147.5 409 c 128,-1,33
 178 455 178 455 229.5 480.5 c 128,-1,34
 281 506 281 506 343.5 515 c 128,-1,35
 406 524 406 524 471 530 c 0,36,37
 551 536 551 536 628 549.5 c 128,-1,38
 705 563 705 563 766 610 c 1,39,40
 766 708 766 708 705.5 769.5 c 128,-1,41
 645 831 645 831 524 831 c 0,42,43
 493 831 493 831 457.5 823 c 128,-1,44
 422 815 422 815 391 798.5 c 128,-1,45
 360 782 360 782 336.5 756.5 c 128,-1,46
 313 731 313 731 307 696 c 1,47,-1
 166 696 l 1,48,49
 172 757 172 757 206 805.5 c 128,-1,50
 240 854 240 854 291 888 c 128,-1,51
 342 922 342 922 402.5 940 c 128,-1,52
 463 958 463 958 524 958 c 0,0,1
463 113 m 0,53,54
 516 113 516 113 566 127 c 128,-1,55
 616 141 616 141 657 169 c 128,-1,56
 698 197 698 197 727 236.5 c 128,-1,57
 756 276 756 276 766 328 c 1,58,-1
 766 508 l 1,59,60
 713 477 713 477 660.5 467 c 128,-1,61
 608 457 608 457 555 449 c 0,62,63
 504 443 504 443 450.5 433.5 c 128,-1,64
 397 424 397 424 354 407.5 c 128,-1,65
 311 391 311 391 283.5 361.5 c 128,-1,66
 256 332 256 332 256 287 c 0,67,68
 256 244 256 244 273.5 211 c 128,-1,69
 291 178 291 178 320.5 156.5 c 128,-1,70
 350 135 350 135 387 124 c 128,-1,71
 424 113 424 113 463 113 c 0,53,54
EndSplineSet
EndChar

StartChar: Cacute
Encoding: 262 262 183
Width: 1419
GlyphClass: 2
Flags: W
LayerCount: 2
Fore
SplineSet
1315 172 m 1,0,1
 1217 92 1217 92 1098 46 c 128,-1,2
 979 0 979 0 844 0 c 0,3,4
 692 0 692 0 560 57.5 c 128,-1,5
 428 115 428 115 329.5 213 c 128,-1,6
 231 311 231 311 174 443 c 128,-1,7
 117 575 117 575 117 727 c 0,8,9
 117 877 117 877 174 1010 c 128,-1,10
 231 1143 231 1143 329.5 1242 c 128,-1,11
 428 1341 428 1341 560 1398.5 c 128,-1,12
 692 1456 692 1456 844 1456 c 0,13,14
 979 1456 979 1456 1098 1410 c 128,-1,15
 1217 1364 1217 1364 1315 1284 c 1,16,-1
 1214 1182 l 1,17,18
 1136 1245 1136 1245 1045 1279 c 128,-1,19
 954 1313 954 1313 844 1313 c 0,20,21
 723 1313 723 1313 616.5 1267 c 128,-1,22
 510 1221 510 1221 431 1141 c 128,-1,23
 352 1061 352 1061 306 954.5 c 128,-1,24
 260 848 260 848 260 727 c 256,25,26
 260 606 260 606 306 499.5 c 128,-1,27
 352 393 352 393 431 314.5 c 128,-1,28
 510 236 510 236 616.5 189.5 c 128,-1,29
 723 143 723 143 844 143 c 0,30,31
 944 143 944 143 1043.5 182 c 128,-1,32
 1143 221 1143 221 1214 274 c 1,33,-1
 1315 172 l 1,0,1
803 1909 m 1,34,-1
 926 1909 l 1,35,-1
 770 1683 l 1,36,-1
 678 1683 l 1,37,-1
 803 1909 l 1,34,-1
EndSplineSet
EndChar

StartChar: cacute
Encoding: 263 263 184
Width: 1081
GlyphClass: 2
Flags: W
LayerCount: 2
Fore
SplineSet
565 -2 m 0,0,1
 469 -2 469 -2 386 35 c 128,-1,2
 303 72 303 72 243.5 136.5 c 128,-1,3
 184 201 184 201 150.5 288 c 128,-1,4
 117 375 117 375 117 477 c 256,5,6
 117 579 117 579 150.5 667.5 c 128,-1,7
 184 756 184 756 243.5 820.5 c 128,-1,8
 303 885 303 885 386 921.5 c 128,-1,9
 469 958 469 958 565 958 c 0,10,11
 635 958 635 958 699.5 935.5 c 128,-1,12
 764 913 764 913 817 873.5 c 128,-1,13
 870 834 870 834 912 780.5 c 128,-1,14
 954 727 954 727 981 666 c 1,15,-1
 829 666 l 1,16,17
 788 742 788 742 720.5 786.5 c 128,-1,18
 653 831 653 831 565 831 c 0,19,20
 497 831 497 831 442 803.5 c 128,-1,21
 387 776 387 776 346 729 c 128,-1,22
 305 682 305 682 282.5 617.5 c 128,-1,23
 260 553 260 553 260 477 c 256,24,25
 260 401 260 401 282.5 336.5 c 128,-1,26
 305 272 305 272 346 225 c 128,-1,27
 387 178 387 178 442.5 151.5 c 128,-1,28
 498 125 498 125 565 125 c 0,29,30
 651 125 651 125 718.5 167 c 128,-1,31
 786 209 786 209 827 287 c 1,32,-1
 979 287 l 1,33,34
 926 158 926 158 817 78 c 128,-1,35
 708 -2 708 -2 565 -2 c 0,0,1
637 1419 m 1,36,-1
 760 1419 l 1,37,-1
 602 1190 l 1,38,-1
 510 1190 l 1,39,-1
 637 1419 l 1,36,-1
EndSplineSet
EndChar

StartChar: Ccircumflex
Encoding: 264 264 185
Width: 1419
GlyphClass: 2
Flags: W
LayerCount: 2
Fore
SplineSet
1315 172 m 1,0,1
 1217 92 1217 92 1098 46 c 128,-1,2
 979 0 979 0 844 0 c 0,3,4
 692 0 692 0 560 57.5 c 128,-1,5
 428 115 428 115 329.5 213 c 128,-1,6
 231 311 231 311 174 443 c 128,-1,7
 117 575 117 575 117 727 c 0,8,9
 117 877 117 877 174 1010 c 128,-1,10
 231 1143 231 1143 329.5 1242 c 128,-1,11
 428 1341 428 1341 560 1398.5 c 128,-1,12
 692 1456 692 1456 844 1456 c 0,13,14
 979 1456 979 1456 1098 1410 c 128,-1,15
 1217 1364 1217 1364 1315 1284 c 1,16,-1
 1214 1182 l 1,17,18
 1136 1245 1136 1245 1045 1279 c 128,-1,19
 954 1313 954 1313 844 1313 c 0,20,21
 723 1313 723 1313 616.5 1267 c 128,-1,22
 510 1221 510 1221 431 1141 c 128,-1,23
 352 1061 352 1061 306 954.5 c 128,-1,24
 260 848 260 848 260 727 c 256,25,26
 260 606 260 606 306 499.5 c 128,-1,27
 352 393 352 393 431 314.5 c 128,-1,28
 510 236 510 236 616.5 189.5 c 128,-1,29
 723 143 723 143 844 143 c 0,30,31
 944 143 944 143 1043.5 182 c 128,-1,32
 1143 221 1143 221 1214 274 c 1,33,-1
 1315 172 l 1,0,1
778 1909 m 1,34,35
 823 1852 823 1852 863 1796.5 c 128,-1,36
 903 1741 903 1741 946 1683 c 1,37,-1
 827 1683 l 1,38,-1
 719 1825 l 1,39,-1
 614 1683 l 1,40,-1
 492 1683 l 1,41,42
 541 1746 541 1746 577.5 1796.5 c 128,-1,43
 614 1847 614 1847 662 1909 c 1,44,-1
 778 1909 l 1,34,35
EndSplineSet
EndChar

StartChar: ccircumflex
Encoding: 265 265 186
Width: 1081
GlyphClass: 2
Flags: W
LayerCount: 2
Fore
SplineSet
565 -2 m 0,0,1
 469 -2 469 -2 386 35 c 128,-1,2
 303 72 303 72 243.5 136.5 c 128,-1,3
 184 201 184 201 150.5 288 c 128,-1,4
 117 375 117 375 117 477 c 256,5,6
 117 579 117 579 150.5 667.5 c 128,-1,7
 184 756 184 756 243.5 820.5 c 128,-1,8
 303 885 303 885 386 921.5 c 128,-1,9
 469 958 469 958 565 958 c 0,10,11
 635 958 635 958 699.5 935.5 c 128,-1,12
 764 913 764 913 817 873.5 c 128,-1,13
 870 834 870 834 912 780.5 c 128,-1,14
 954 727 954 727 981 666 c 1,15,-1
 829 666 l 1,16,17
 788 742 788 742 720.5 786.5 c 128,-1,18
 653 831 653 831 565 831 c 0,19,20
 497 831 497 831 442 803.5 c 128,-1,21
 387 776 387 776 346 729 c 128,-1,22
 305 682 305 682 282.5 617.5 c 128,-1,23
 260 553 260 553 260 477 c 256,24,25
 260 401 260 401 282.5 336.5 c 128,-1,26
 305 272 305 272 346 225 c 128,-1,27
 387 178 387 178 442.5 151.5 c 128,-1,28
 498 125 498 125 565 125 c 0,29,30
 651 125 651 125 718.5 167 c 128,-1,31
 786 209 786 209 827 287 c 1,32,-1
 979 287 l 1,33,34
 926 158 926 158 817 78 c 128,-1,35
 708 -2 708 -2 565 -2 c 0,0,1
610 1419 m 1,36,37
 655 1360 655 1360 697 1303.5 c 128,-1,38
 739 1247 739 1247 782 1190 c 1,39,-1
 659 1190 l 1,40,-1
 551 1333 l 1,41,-1
 444 1190 l 1,42,-1
 319 1190 l 1,43,44
 368 1256 368 1256 406 1306 c 128,-1,45
 444 1356 444 1356 494 1419 c 1,46,-1
 610 1419 l 1,36,37
EndSplineSet
EndChar

StartChar: Cdotaccent
Encoding: 266 266 187
Width: 1419
GlyphClass: 2
Flags: W
LayerCount: 2
Fore
SplineSet
1315 172 m 1,0,1
 1217 92 1217 92 1098 46 c 128,-1,2
 979 0 979 0 844 0 c 0,3,4
 692 0 692 0 560 57.5 c 128,-1,5
 428 115 428 115 329.5 213 c 128,-1,6
 231 311 231 311 174 443 c 128,-1,7
 117 575 117 575 117 727 c 0,8,9
 117 877 117 877 174 1010 c 128,-1,10
 231 1143 231 1143 329.5 1242 c 128,-1,11
 428 1341 428 1341 560 1398.5 c 128,-1,12
 692 1456 692 1456 844 1456 c 0,13,14
 979 1456 979 1456 1098 1410 c 128,-1,15
 1217 1364 1217 1364 1315 1284 c 1,16,-1
 1214 1182 l 1,17,18
 1136 1245 1136 1245 1045 1279 c 128,-1,19
 954 1313 954 1313 844 1313 c 0,20,21
 723 1313 723 1313 616.5 1267 c 128,-1,22
 510 1221 510 1221 431 1141 c 128,-1,23
 352 1061 352 1061 306 954.5 c 128,-1,24
 260 848 260 848 260 727 c 256,25,26
 260 606 260 606 306 499.5 c 128,-1,27
 352 393 352 393 431 314.5 c 128,-1,28
 510 236 510 236 616.5 189.5 c 128,-1,29
 723 143 723 143 844 143 c 0,30,31
 944 143 944 143 1043.5 182 c 128,-1,32
 1143 221 1143 221 1214 274 c 1,33,-1
 1315 172 l 1,0,1
721 1909 m 256,34,35
 766 1909 766 1909 796.5 1879 c 128,-1,36
 827 1849 827 1849 827 1804 c 256,37,38
 827 1759 827 1759 796.5 1727.5 c 128,-1,39
 766 1696 766 1696 721 1696 c 256,40,41
 676 1696 676 1696 645 1727.5 c 128,-1,42
 614 1759 614 1759 614 1804 c 256,43,44
 614 1849 614 1849 645 1879 c 128,-1,45
 676 1909 676 1909 721 1909 c 256,34,35
EndSplineSet
EndChar

StartChar: cdotaccent
Encoding: 267 267 188
Width: 1081
GlyphClass: 2
Flags: W
LayerCount: 2
Fore
SplineSet
565 -2 m 0,0,1
 469 -2 469 -2 386 35 c 128,-1,2
 303 72 303 72 243.5 136.5 c 128,-1,3
 184 201 184 201 150.5 288 c 128,-1,4
 117 375 117 375 117 477 c 256,5,6
 117 579 117 579 150.5 667.5 c 128,-1,7
 184 756 184 756 243.5 820.5 c 128,-1,8
 303 885 303 885 386 921.5 c 128,-1,9
 469 958 469 958 565 958 c 0,10,11
 635 958 635 958 699.5 935.5 c 128,-1,12
 764 913 764 913 817 873.5 c 128,-1,13
 870 834 870 834 912 780.5 c 128,-1,14
 954 727 954 727 981 666 c 1,15,-1
 829 666 l 1,16,17
 788 742 788 742 720.5 786.5 c 128,-1,18
 653 831 653 831 565 831 c 0,19,20
 497 831 497 831 442 803.5 c 128,-1,21
 387 776 387 776 346 729 c 128,-1,22
 305 682 305 682 282.5 617.5 c 128,-1,23
 260 553 260 553 260 477 c 256,24,25
 260 401 260 401 282.5 336.5 c 128,-1,26
 305 272 305 272 346 225 c 128,-1,27
 387 178 387 178 442.5 151.5 c 128,-1,28
 498 125 498 125 565 125 c 0,29,30
 651 125 651 125 718.5 167 c 128,-1,31
 786 209 786 209 827 287 c 1,32,-1
 979 287 l 1,33,34
 926 158 926 158 817 78 c 128,-1,35
 708 -2 708 -2 565 -2 c 0,0,1
553 1419 m 256,36,37
 598 1419 598 1419 628.5 1388.5 c 128,-1,38
 659 1358 659 1358 659 1311 c 0,39,40
 659 1266 659 1266 628.5 1234 c 128,-1,41
 598 1202 598 1202 553 1202 c 256,42,43
 508 1202 508 1202 476 1234 c 128,-1,44
 444 1266 444 1266 444 1311 c 0,45,46
 444 1358 444 1358 476 1388.5 c 128,-1,47
 508 1419 508 1419 553 1419 c 256,36,37
EndSplineSet
EndChar

StartChar: Ccaron
Encoding: 268 268 189
Width: 1419
GlyphClass: 2
Flags: W
LayerCount: 2
Fore
SplineSet
1315 172 m 1,0,1
 1217 92 1217 92 1098 46 c 128,-1,2
 979 0 979 0 844 0 c 0,3,4
 692 0 692 0 560 57.5 c 128,-1,5
 428 115 428 115 329.5 213 c 128,-1,6
 231 311 231 311 174 443 c 128,-1,7
 117 575 117 575 117 727 c 0,8,9
 117 877 117 877 174 1010 c 128,-1,10
 231 1143 231 1143 329.5 1242 c 128,-1,11
 428 1341 428 1341 560 1398.5 c 128,-1,12
 692 1456 692 1456 844 1456 c 0,13,14
 979 1456 979 1456 1098 1410 c 128,-1,15
 1217 1364 1217 1364 1315 1284 c 1,16,-1
 1214 1182 l 1,17,18
 1136 1245 1136 1245 1045 1279 c 128,-1,19
 954 1313 954 1313 844 1313 c 0,20,21
 723 1313 723 1313 616.5 1267 c 128,-1,22
 510 1221 510 1221 431 1141 c 128,-1,23
 352 1061 352 1061 306 954.5 c 128,-1,24
 260 848 260 848 260 727 c 256,25,26
 260 606 260 606 306 499.5 c 128,-1,27
 352 393 352 393 431 314.5 c 128,-1,28
 510 236 510 236 616.5 189.5 c 128,-1,29
 723 143 723 143 844 143 c 0,30,31
 944 143 944 143 1043.5 182 c 128,-1,32
 1143 221 1143 221 1214 274 c 1,33,-1
 1315 172 l 1,0,1
662 1683 m 1,34,35
 617 1742 617 1742 577 1796.5 c 128,-1,36
 537 1851 537 1851 492 1909 c 1,37,-1
 614 1909 l 1,38,-1
 719 1767 l 1,39,-1
 827 1909 l 1,40,-1
 948 1909 l 1,41,42
 899 1846 899 1846 862 1795.5 c 128,-1,43
 825 1745 825 1745 778 1683 c 1,44,-1
 662 1683 l 1,34,35
EndSplineSet
EndChar

StartChar: ccaron
Encoding: 269 269 190
Width: 1081
GlyphClass: 2
Flags: W
LayerCount: 2
Fore
SplineSet
565 -2 m 0,0,1
 469 -2 469 -2 386 35 c 128,-1,2
 303 72 303 72 243.5 136.5 c 128,-1,3
 184 201 184 201 150.5 288 c 128,-1,4
 117 375 117 375 117 477 c 256,5,6
 117 579 117 579 150.5 667.5 c 128,-1,7
 184 756 184 756 243.5 820.5 c 128,-1,8
 303 885 303 885 386 921.5 c 128,-1,9
 469 958 469 958 565 958 c 0,10,11
 635 958 635 958 699.5 935.5 c 128,-1,12
 764 913 764 913 817 873.5 c 128,-1,13
 870 834 870 834 912 780.5 c 128,-1,14
 954 727 954 727 981 666 c 1,15,-1
 829 666 l 1,16,17
 788 742 788 742 720.5 786.5 c 128,-1,18
 653 831 653 831 565 831 c 0,19,20
 497 831 497 831 442 803.5 c 128,-1,21
 387 776 387 776 346 729 c 128,-1,22
 305 682 305 682 282.5 617.5 c 128,-1,23
 260 553 260 553 260 477 c 256,24,25
 260 401 260 401 282.5 336.5 c 128,-1,26
 305 272 305 272 346 225 c 128,-1,27
 387 178 387 178 442.5 151.5 c 128,-1,28
 498 125 498 125 565 125 c 0,29,30
 651 125 651 125 718.5 167 c 128,-1,31
 786 209 786 209 827 287 c 1,32,-1
 979 287 l 1,33,34
 926 158 926 158 817 78 c 128,-1,35
 708 -2 708 -2 565 -2 c 0,0,1
494 1190 m 1,36,37
 447 1249 447 1249 406 1304.5 c 128,-1,38
 365 1360 365 1360 319 1419 c 1,39,-1
 444 1419 l 1,40,-1
 551 1276 l 1,41,-1
 659 1419 l 1,42,-1
 784 1419 l 1,43,44
 759 1386 759 1386 738 1358.5 c 128,-1,45
 717 1331 717 1331 696.5 1303.5 c 128,-1,46
 676 1276 676 1276 655.5 1248.5 c 128,-1,47
 635 1221 635 1221 610 1190 c 1,48,-1
 494 1190 l 1,36,37
EndSplineSet
EndChar

StartChar: Dcaron
Encoding: 270 270 191
Width: 1439
GlyphClass: 2
Flags: W
LayerCount: 2
Fore
SplineSet
616 1456 m 2,0,1
 766 1456 766 1456 899 1398.5 c 128,-1,2
 1032 1341 1032 1341 1130.5 1242 c 128,-1,3
 1229 1143 1229 1143 1286 1010 c 128,-1,4
 1343 877 1343 877 1343 727 c 0,5,6
 1343 575 1343 575 1286 443 c 128,-1,7
 1229 311 1229 311 1130.5 213 c 128,-1,8
 1032 115 1032 115 899 57.5 c 128,-1,9
 766 0 766 0 616 0 c 2,10,-1
 178 0 l 1,11,-1
 178 1456 l 1,12,-1
 616 1456 l 2,0,1
616 143 m 2,13,14
 739 143 739 143 845.5 189.5 c 128,-1,15
 952 236 952 236 1031 314.5 c 128,-1,16
 1110 393 1110 393 1156 499.5 c 128,-1,17
 1202 606 1202 606 1202 727 c 256,18,19
 1202 848 1202 848 1156 954.5 c 128,-1,20
 1110 1061 1110 1061 1031 1141 c 128,-1,21
 952 1221 952 1221 845.5 1267 c 128,-1,22
 739 1313 739 1313 616 1313 c 2,23,-1
 322 1313 l 1,24,-1
 322 143 l 1,25,-1
 616 143 l 2,13,14
705 1683 m 1,26,27
 660 1742 660 1742 619 1796.5 c 128,-1,28
 578 1851 578 1851 532 1909 c 1,29,-1
 655 1909 l 1,30,-1
 760 1767 l 1,31,-1
 868 1909 l 1,32,-1
 989 1909 l 1,33,34
 942 1846 942 1846 904 1795.5 c 128,-1,35
 866 1745 866 1745 819 1683 c 1,36,-1
 705 1683 l 1,26,27
EndSplineSet
EndChar

